SplineFontDB: 3.2
FontName: IRFarnaz
FullName: IRFarnaz
FamilyName: IRFarnaz
Weight: Book
Copyright: Copyright (c) 2022, Information Technology Organization of Iran (ito.gov.ir)
Version: 1.001
ItalicAngle: 0
UnderlinePosition: -100
UnderlineWidth: 60
Ascent: 1638
Descent: 410
InvalidEm: 0
sfntRevision: 0x00010042
LayerCount: 2
Layer: 0 1 "Back" 1
Layer: 1 1 "Fore" 0
XUID: [1021 420 722297922 1650411]
StyleMap: 0x0040
FSType: 0
OS2Version: 3
OS2_WeightWidthSlopeOnly: 0
OS2_UseTypoMetrics: 0
CreationTime: 1354246127
ModificationTime: 1662614979
PfmFamily: 17
TTFWeight: 400
TTFWidth: 5
LineGap: 100
VLineGap: 0
Panose: 2 0 5 6 0 0 0 2 0 2
OS2TypoAscent: 2155
OS2TypoAOffset: 0
OS2TypoDescent: -1264
OS2TypoDOffset: 0
OS2TypoLinegap: 1500
OS2WinAscent: 2155
OS2WinAOffset: 0
OS2WinDescent: 1264
OS2WinDOffset: 0
HheadAscent: 2155
HheadAOffset: 0
HheadDescent: -1264
HheadDOffset: 0
OS2SubXSize: 1434
OS2SubYSize: 1331
OS2SubXOff: 0
OS2SubYOff: 293
OS2SupXSize: 1434
OS2SupYSize: 1331
OS2SupXOff: 0
OS2SupYOff: 930
OS2StrikeYSize: 50
OS2StrikeYPos: 250
OS2CapHeight: 2162
OS2XHeight: 577
OS2FamilyClass: 2048
OS2Vendor: 'PARS'
OS2CodePages: 20000041.00000000
OS2UnicodeRanges: 00002003.00000000.00000000.00000000
Lookup: 1 1 0 "'isol' Isolated Forms in Arabic lookup 0" { "'isol' Isolated Forms in Arabic lookup 0 subtable"  } ['isol' ('arab' <'dflt' > ) ]
Lookup: 1 1 0 "'init' Initial Forms in Arabic lookup 1" { "'init' Initial Forms in Arabic lookup 1 subtable"  } ['init' ('arab' <'dflt' > ) ]
Lookup: 1 1 0 "'fina' Terminal Forms in Arabic lookup 2" { "'fina' Terminal Forms in Arabic lookup 2 subtable"  } ['fina' ('arab' <'dflt' > ) ]
Lookup: 1 1 0 "'medi' Medial Forms in Arabic lookup 3" { "'medi' Medial Forms in Arabic lookup 3 subtable"  } ['medi' ('arab' <'dflt' > ) ]
Lookup: 4 1 0 "'ccmp' Glyph Composition/Decomposition in Arabic lookup 4" { "'ccmp' Glyph Composition/Decomposition in Arabic lookup 4 subtable"  } ['ccmp' ('arab' <'dflt' > ) ]

StartChar: quotedbl
Encoding: 34 34 4
Width: 966
Flags: W
LayerCount: 2
Fore
SplineSet
221 703 m 1,0,1
 214 732 214 732 209.5 754.5 c 128,-1,2
 205 777 205 777 202 787 c 0,3,4
 175 896 175 896 159.5 974 c 128,-1,5
 144 1052 144 1052 144 1079 c 0,6,7
 144 1136 144 1136 175 1169.5 c 128,-1,8
 206 1203 206 1203 256 1203 c 0,9,10
 280 1203 280 1203 300.5 1194 c 128,-1,11
 321 1185 321 1185 336.5 1169.5 c 128,-1,12
 352 1154 352 1154 360.5 1132.5 c 128,-1,13
 369 1111 369 1111 369 1086 c 0,14,15
 369 1072 369 1072 365.5 1046 c 128,-1,16
 362 1020 362 1020 353 976 c 128,-1,17
 344 932 344 932 329 865.5 c 128,-1,18
 314 799 314 799 292 703 c 1,19,-1
 221 703 l 1,0,1
674 703 m 1,20,21
 667 730 667 730 661.5 753.5 c 128,-1,22
 656 777 656 777 654 787 c 0,23,24
 627 897 627 897 612 974.5 c 128,-1,25
 597 1052 597 1052 597 1079 c 0,26,27
 597 1136 597 1136 628 1169.5 c 128,-1,28
 659 1203 659 1203 709 1203 c 0,29,30
 733 1203 733 1203 753.5 1194 c 128,-1,31
 774 1185 774 1185 789.5 1169.5 c 128,-1,32
 805 1154 805 1154 813.5 1132.5 c 128,-1,33
 822 1111 822 1111 822 1086 c 0,34,35
 822 1072 822 1072 817.5 1043 c 128,-1,36
 813 1014 813 1014 803.5 967.5 c 128,-1,37
 794 921 794 921 779.5 855.5 c 128,-1,38
 765 790 765 790 745 703 c 1,39,-1
 674 703 l 1,20,21
EndSplineSet
EndChar

StartChar: quotesingle
Encoding: 39 39 5
Width: 484
Flags: W
LayerCount: 2
Fore
SplineSet
207 703 m 1,0,1
 200 730 200 730 195 753.5 c 128,-1,2
 190 777 190 777 188 787 c 0,3,4
 160 896 160 896 145.5 974 c 128,-1,5
 131 1052 131 1052 131 1079 c 0,6,7
 131 1136 131 1136 161.5 1169.5 c 128,-1,8
 192 1203 192 1203 242 1203 c 0,9,10
 266 1203 266 1203 286.5 1194 c 128,-1,11
 307 1185 307 1185 322.5 1169.5 c 128,-1,12
 338 1154 338 1154 346.5 1132.5 c 128,-1,13
 355 1111 355 1111 355 1086 c 0,14,15
 355 1072 355 1072 351 1045.5 c 128,-1,16
 347 1019 347 1019 338 974.5 c 128,-1,17
 329 930 329 930 314.5 863.5 c 128,-1,18
 300 797 300 797 279 703 c 1,19,-1
 207 703 l 1,0,1
EndSplineSet
EndChar

StartChar: asterisk
Encoding: 42 42 6
Width: 1126
Flags: W
LayerCount: 2
Fore
SplineSet
568 347 m 1,0,-1
 574 687 l 1,1,-1
 355 467 l 1,2,-1
 250 467 l 1,3,-1
 527 746 l 1,4,-1
 203 746 l 1,5,-1
 223 839 l 1,6,-1
 547 839 l 1,7,-1
 277 1104 l 1,8,-1
 370 1104 l 1,9,-1
 579 899 l 1,10,-1
 585 1199 l 1,11,-1
 704 1239 l 1,12,-1
 699 912 l 1,13,-1
 905 1104 l 1,14,-1
 1013 1104 l 1,15,-1
 730 839 l 1,16,-1
 1065 839 l 1,17,-1
 1043 746 l 1,18,-1
 729 746 l 1,19,-1
 1002 467 l 1,20,-1
 910 467 l 1,21,-1
 696 687 l 1,22,-1
 688 386 l 1,23,-1
 568 347 l 1,0,-1
EndSplineSet
EndChar

StartChar: plus
Encoding: 43 43 7
Width: 1253
GlyphClass: 2
Flags: W
LayerCount: 2
Fore
SplineSet
1134 405 m 1,0,-1
 798 405 l 1,1,-1
 727 73 l 1,2,-1
 586 73 l 1,3,-1
 657 405 l 1,4,-1
 324 405 l 1,5,-1
 355 552 l 1,6,-1
 688 552 l 1,7,-1
 759 886 l 1,8,-1
 900 886 l 1,9,-1
 829 552 l 1,10,-1
 1165 552 l 1,11,-1
 1134 405 l 1,0,-1
EndSplineSet
EndChar

StartChar: hyphen
Encoding: 45 45 8
Width: 1090
Flags: W
LayerCount: 2
Fore
SplineSet
1043 405 m 1,0,-1
 233 405 l 1,1,-1
 264 552 l 1,2,-1
 1074 552 l 1,3,-1
 1043 405 l 1,0,-1
EndSplineSet
EndChar

StartChar: period
Encoding: 46 46 9
Width: 609
GlyphClass: 2
Flags: W
LayerCount: 2
Fore
SplineSet
546 0 m 1,0,-1
 264 0 l 1,1,-1
 338 243 l 1,2,-1
 622 243 l 1,3,-1
 546 0 l 1,0,-1
EndSplineSet
EndChar

StartChar: slash
Encoding: 47 47 10
Width: 748
Flags: W
LayerCount: 2
Fore
SplineSet
684 1192 m 1,0,-1
 271 -107 l 1,1,-1
 134 -107 l 1,2,-1
 546 1192 l 1,3,-1
 684 1192 l 1,0,-1
EndSplineSet
EndChar

StartChar: less
Encoding: 60 60 11
Width: 992
Flags: W
LayerCount: 2
Fore
SplineSet
54 367 m 1,0,-1
 54 513 l 1,1,-1
 938 902 l 1,2,-1
 938 734 l 1,3,-1
 268 440 l 1,4,-1
 938 146 l 1,5,-1
 938 -21 l 1,6,-1
 54 367 l 1,0,-1
EndSplineSet
EndChar

StartChar: equal
Encoding: 61 61 12
Width: 969
Flags: W
LayerCount: 2
Fore
SplineSet
887 331 m 1,0,-1
 165 331 l 1,1,-1
 187 433 l 1,2,-1
 909 433 l 1,3,-1
 887 331 l 1,0,-1
938 569 m 1,4,-1
 216 569 l 1,5,-1
 237 671 l 1,6,-1
 959 671 l 1,7,-1
 938 569 l 1,4,-1
EndSplineSet
EndChar

StartChar: greater
Encoding: 62 62 13
Width: 992
Flags: W
LayerCount: 2
Fore
SplineSet
54 146 m 1,0,-1
 724 440 l 1,1,-1
 54 734 l 1,2,-1
 54 902 l 1,3,-1
 938 513 l 1,4,-1
 938 367 l 1,5,-1
 54 -21 l 1,6,-1
 54 146 l 1,0,-1
EndSplineSet
EndChar

StartChar: bracketleft
Encoding: 91 91 14
Width: 568
GlyphClass: 2
Flags: W
LayerCount: 2
Fore
SplineSet
460 -254 m 1,0,-1
 60 -254 l 1,1,-1
 359 1157 l 1,2,-1
 759 1157 l 1,3,-1
 748 1101 l 1,4,-1
 640 1101 l 2,5,6
 604 1101 604 1101 580 1096 c 128,-1,7
 556 1091 556 1091 541 1077.5 c 128,-1,8
 526 1064 526 1064 516.5 1041 c 128,-1,9
 507 1018 507 1018 499 981 c 2,10,-1
 268 -108 l 2,11,12
 262 -135 262 -135 262 -152.5 c 128,-1,13
 262 -170 262 -170 269.5 -180 c 128,-1,14
 277 -190 277 -190 292.5 -194 c 128,-1,15
 308 -198 308 -198 334 -198 c 2,16,-1
 471 -198 l 1,17,-1
 460 -254 l 1,0,-1
EndSplineSet
EndChar

StartChar: bracketright
Encoding: 93 93 15
Width: 568
GlyphClass: 2
Flags: W
LayerCount: 2
Fore
SplineSet
12 -198 m 1,0,-1
 148 -198 l 2,1,2
 175 -198 175 -198 192.5 -194.5 c 128,-1,3
 210 -191 210 -191 221 -181 c 128,-1,4
 232 -171 232 -171 239.5 -153.5 c 128,-1,5
 247 -136 247 -136 253 -108 c 2,6,-1
 484 981 l 2,7,8
 492 1018 492 1018 493 1041 c 128,-1,9
 494 1064 494 1064 484 1077.5 c 128,-1,10
 474 1091 474 1091 453 1096 c 128,-1,11
 432 1101 432 1101 397 1101 c 2,12,-1
 289 1101 l 1,13,-1
 300 1157 l 1,14,-1
 699 1157 l 1,15,-1
 400 -254 l 1,16,-1
 1 -254 l 1,17,-1
 12 -198 l 1,0,-1
EndSplineSet
EndChar

StartChar: grave
Encoding: 96 96 16
Width: 568
Flags: W
LayerCount: 2
Fore
SplineSet
528 864 m 1,0,-1
 299 1030 l 2,1,2
 281 1047 281 1047 271.5 1065 c 128,-1,3
 262 1083 262 1083 266 1103 c 0,4,5
 271 1128 271 1128 290 1142.5 c 128,-1,6
 309 1157 309 1157 336 1157 c 0,7,8
 354 1157 354 1157 367.5 1148.5 c 128,-1,9
 381 1140 381 1140 400 1117 c 2,10,-1
 597 864 l 1,11,-1
 528 864 l 1,0,-1
EndSplineSet
EndChar

StartChar: braceleft
Encoding: 123 123 17
Width: 672
GlyphClass: 2
Flags: W
LayerCount: 2
Fore
SplineSet
272 247 m 2,0,1
 282 292 282 292 280 324 c 128,-1,2
 278 356 278 356 262.5 378.5 c 128,-1,3
 247 401 247 401 214.5 416.5 c 128,-1,4
 182 432 182 432 131 446 c 1,5,6
 188 459 188 459 227 474.5 c 128,-1,7
 266 490 266 490 291 512.5 c 128,-1,8
 316 535 316 535 331.5 566.5 c 128,-1,9
 347 598 347 598 356 643 c 2,10,-1
 421 949 l 2,11,12
 451 1089 451 1089 548 1141 c 0,13,14
 571 1154 571 1154 597 1163.5 c 128,-1,15
 623 1173 623 1173 656 1179 c 128,-1,16
 689 1185 689 1185 732 1187.5 c 128,-1,17
 775 1190 775 1190 833 1191 c 1,18,-1
 828 1170 l 1,19,20
 774 1159 774 1159 736.5 1143 c 128,-1,21
 699 1127 699 1127 671.5 1102 c 128,-1,22
 644 1077 644 1077 628.5 1042 c 128,-1,23
 613 1007 613 1007 602 958 c 2,24,-1
 540 667 l 2,25,26
 529 613 529 613 512 576.5 c 128,-1,27
 495 540 495 540 467 515 c 128,-1,28
 439 490 439 490 397 474.5 c 128,-1,29
 355 459 355 459 292 446 c 1,30,31
 350 433 350 433 385 417 c 128,-1,32
 420 401 420 401 437.5 376 c 128,-1,33
 455 351 455 351 456 314 c 128,-1,34
 457 277 457 277 446 223 c 2,35,-1
 384 -69 l 2,36,37
 373 -118 373 -118 375 -152.5 c 128,-1,38
 377 -187 377 -187 393.5 -211.5 c 128,-1,39
 410 -236 410 -236 441 -252.5 c 128,-1,40
 472 -269 472 -269 520 -278 c 1,41,-1
 516 -298 l 1,42,43
 453 -298 453 -298 407.5 -294.5 c 128,-1,44
 362 -291 362 -291 329.5 -283.5 c 128,-1,45
 297 -276 297 -276 274.5 -264.5 c 128,-1,46
 252 -253 252 -253 235 -236 c 0,47,48
 207 -208 207 -208 200.5 -165 c 128,-1,49
 194 -122 194 -122 207 -59 c 2,50,-1
 272 247 l 2,0,1
EndSplineSet
EndChar

StartChar: bar
Encoding: 124 124 18
Width: 375
Flags: W
LayerCount: 2
Fore
SplineSet
363 1179 m 1,0,-1
 513 1179 l 1,1,-1
 256 -32 l 1,2,-1
 106 -32 l 1,3,-1
 363 1179 l 1,0,-1
EndSplineSet
EndChar

StartChar: asciitilde
Encoding: 126 126 19
Width: 887
Flags: W
LayerCount: 2
Fore
SplineSet
932 443 m 1,0,1
 893 403 893 403 862.5 375.5 c 128,-1,2
 832 348 832 348 803.5 331 c 128,-1,3
 775 314 775 314 748 306 c 128,-1,4
 721 298 721 298 691 298 c 0,5,6
 670 298 670 298 650.5 301 c 128,-1,7
 631 304 631 304 611.5 311 c 128,-1,8
 592 318 592 318 571 328.5 c 128,-1,9
 550 339 550 339 524 355 c 0,10,11
 471 386 471 386 431 400.5 c 128,-1,12
 391 415 391 415 346 415 c 0,13,14
 308 415 308 415 279.5 399 c 128,-1,15
 251 383 251 383 212 343 c 1,16,-1
 138 421 l 1,17,18
 198 498 198 498 254.5 531 c 128,-1,19
 311 564 311 564 380 564 c 0,20,21
 401 564 401 564 420.5 561.5 c 128,-1,22
 440 559 440 559 464.5 551 c 128,-1,23
 489 543 489 543 520 528.5 c 128,-1,24
 551 514 551 514 594 493 c 0,25,26
 621 480 621 480 640.5 472 c 128,-1,27
 660 464 660 464 674.5 458.5 c 128,-1,28
 689 453 689 453 700.5 451 c 128,-1,29
 712 449 712 449 723 449 c 0,30,31
 753 449 753 449 783.5 466.5 c 128,-1,32
 814 484 814 484 855 525 c 1,33,-1
 932 443 l 1,0,1
EndSplineSet
EndChar

StartChar: agrave
Encoding: 224 224 20
Width: 1075
Flags: W
LayerCount: 2
Fore
SplineSet
741 331 m 1,0,1
 720 266 720 266 690.5 213 c 128,-1,2
 661 160 661 160 626 114 c 0,3,4
 519 -19 519 -19 400 -19 c 0,5,6
 208 -19 208 -19 159 214 c 0,7,8
 133 334 133 334 157 451 c 128,-1,9
 181 568 181 568 252 683 c 0,10,11
 325 801 325 801 433 860 c 128,-1,12
 541 919 541 919 684 919 c 0,13,14
 712 919 712 919 746 918.5 c 128,-1,15
 780 918 780 918 815.5 916 c 128,-1,16
 851 914 851 914 886 912 c 128,-1,17
 921 910 921 910 952 908 c 1,18,-1
 946 646 l 1,19,-1
 946 647 l 1,20,-1
 950 254 l 2,21,22
 952 209 952 209 954.5 179.5 c 128,-1,23
 957 150 957 150 958 139 c 0,24,25
 961 114 961 114 985 114 c 0,26,27
 1053 114 1053 114 1214 346 c 1,28,-1
 1218 179 l 1,29,30
 1073 -19 1073 -19 925 -19 c 0,31,32
 785 -19 785 -19 753 126 c 0,33,34
 749 146 749 146 747 182 c 128,-1,35
 745 218 745 218 745 264 c 2,36,-1
 741 331 l 1,0,1
737 758 m 1,37,38
 688 775 688 775 647 783.5 c 128,-1,39
 606 792 606 792 561 792 c 0,40,41
 497 792 497 792 453.5 749.5 c 128,-1,42
 410 707 410 707 387 625 c 0,43,44
 362 522 362 522 357 425 c 128,-1,45
 352 328 352 328 368 248 c 0,46,47
 388 146 388 146 437 146 c 0,48,49
 493 146 493 146 589 280 c 0,50,51
 637 352 637 352 674 430 c 128,-1,52
 711 508 711 508 739 599 c 1,53,-1
 737 758 l 1,37,38
817 519 m 1,54,-1
 588 685 l 2,55,56
 570 702 570 702 560.5 720 c 128,-1,57
 551 738 551 738 555 758 c 0,58,59
 560 783 560 783 579 797.5 c 128,-1,60
 598 812 598 812 625 812 c 0,61,62
 643 812 643 812 656.5 803.5 c 128,-1,63
 670 795 670 795 689 772 c 2,64,-1
 886 519 l 1,65,-1
 817 519 l 1,54,-1
EndSplineSet
EndChar

StartChar: ocircumflex.001
Encoding: 65539 -1 26
Width: 1112
Flags: W
LayerCount: 2
Fore
SplineSet
416 -19 m 0,0,1
 301 -19 301 -19 205 70 c 0,2,3
 110 160 110 160 85 288 c 0,4,5
 32 528 32 528 170 726 c 0,6,7
 307 928 307 928 522 928 c 0,8,9
 643 928 643 928 742 842 c 1,10,11
 837 753 837 753 864 626 c 0,12,13
 890 499 890 499 869 388.5 c 128,-1,14
 848 278 848 278 781 179 c 0,15,16
 711 79 711 79 619.5 30 c 128,-1,17
 528 -19 528 -19 416 -19 c 0,0,1
483 98 m 0,18,19
 536 98 536 98 573.5 133 c 128,-1,20
 611 168 611 168 637 236 c 0,21,22
 665 310 665 310 668.5 393.5 c 128,-1,23
 672 477 672 477 652 574 c 0,24,25
 602 813 602 813 466 813 c 0,26,27
 365 813 365 813 313 670 c 0,28,29
 284 595 284 595 281 510.5 c 128,-1,30
 278 426 278 426 298 332 c 0,31,32
 324 213 324 213 370 155.5 c 128,-1,33
 416 98 416 98 483 98 c 0,18,19
EndSplineSet
EndChar

StartChar: dagger
Encoding: 8224 8224 30
Width: 932
Flags: W
LayerCount: 2
Fore
SplineSet
347 -231 m 1,0,-1
 567 622 l 1,1,-1
 248 592 l 1,2,-1
 297 700 l 1,3,-1
 576 668 l 1,4,-1
 607 1066 l 1,5,-1
 755 1093 l 1,6,-1
 621 668 l 1,7,-1
 941 700 l 1,8,-1
 895 592 l 1,9,-1
 612 622 l 1,10,-1
 496 -213 l 1,11,-1
 347 -231 l 1,0,-1
EndSplineSet
EndChar

StartChar: degree
Encoding: 176 176 31
Width: 409
Flags: W
LayerCount: 2
Fore
SplineSet
395 844 m 0,0,1
 344 844 344 844 307.5 880 c 128,-1,2
 271 916 271 916 271 968 c 0,3,4
 271 1021 271 1021 307.5 1057 c 128,-1,5
 344 1093 344 1093 395 1093 c 0,6,7
 447 1093 447 1093 483 1057 c 128,-1,8
 519 1021 519 1021 519 968 c 0,9,10
 519 916 519 916 483 880 c 128,-1,11
 447 844 447 844 395 844 c 0,0,1
395 888 m 256,12,13
 427 888 427 888 450.5 912 c 128,-1,14
 474 936 474 936 474 968 c 256,15,16
 474 1000 474 1000 450.5 1024 c 128,-1,17
 427 1048 427 1048 395 1048 c 256,18,19
 363 1048 363 1048 339 1024 c 128,-1,20
 315 1000 315 1000 315 968 c 256,21,22
 315 936 315 936 339 912 c 128,-1,23
 363 888 363 888 395 888 c 256,12,13
EndSplineSet
EndChar

StartChar: bullet
Encoding: 8226 8226 32
Width: 931
Flags: W
LayerCount: 2
Fore
SplineSet
817 662 m 256,0,1
 817 517 817 517 713.5 414 c 128,-1,2
 610 311 610 311 465 311 c 256,3,4
 320 311 320 311 217 414 c 128,-1,5
 114 517 114 517 114 662 c 256,6,7
 114 807 114 807 217 910 c 128,-1,8
 320 1013 320 1013 465 1013 c 256,9,10
 610 1013 610 1013 713.5 910 c 128,-1,11
 817 807 817 807 817 662 c 256,0,1
EndSplineSet
EndChar

StartChar: registered
Encoding: 174 174 33
Width: 897
Flags: W
LayerCount: 2
Fore
SplineSet
580 445 m 0,0,1
 448 445 448 445 354.5 538.5 c 128,-1,2
 261 632 261 632 261 764 c 256,3,4
 261 896 261 896 354.5 990 c 128,-1,5
 448 1084 448 1084 580 1084 c 0,6,7
 714 1084 714 1084 807 990 c 128,-1,8
 900 896 900 896 900 764 c 256,9,10
 900 632 900 632 806.5 538.5 c 128,-1,11
 713 445 713 445 580 445 c 0,0,1
580 484 m 0,12,13
 695 484 695 484 777.5 567 c 128,-1,14
 860 650 860 650 860 764 c 256,15,16
 860 878 860 878 777.5 961 c 128,-1,17
 695 1044 695 1044 580 1044 c 0,18,19
 466 1044 466 1044 383.5 961 c 128,-1,20
 301 878 301 878 301 764 c 256,21,22
 301 650 301 650 383.5 567 c 128,-1,23
 466 484 466 484 580 484 c 0,12,13
529 737 m 1,24,-1
 501 596 l 1,25,-1
 394 596 l 1,26,-1
 403 639 l 1,27,-1
 456 639 l 1,28,-1
 511 915 l 1,29,-1
 458 915 l 1,30,-1
 466 959 l 1,31,-1
 598 959 l 2,32,33
 751 959 751 959 751 875 c 0,34,35
 751 800 751 800 650 750 c 1,36,-1
 685 639 l 1,37,-1
 747 639 l 1,38,-1
 738 596 l 1,39,-1
 641 596 l 1,40,-1
 591 737 l 1,41,-1
 529 737 l 1,24,-1
538 782 m 1,42,-1
 574 782 l 2,43,44
 697 782 697 782 697 866 c 0,45,46
 697 915 697 915 607 915 c 2,47,-1
 564 915 l 1,48,-1
 538 782 l 1,42,-1
EndSplineSet
EndChar

StartChar: copyright
Encoding: 169 169 34
Width: 1244
Flags: W
LayerCount: 2
Fore
SplineSet
725 -27 m 0,0,1
 495 -27 495 -27 330.5 137 c 128,-1,2
 166 301 166 301 166 533 c 256,3,4
 166 765 166 765 330.5 929 c 128,-1,5
 495 1093 495 1093 725 1093 c 0,6,7
 958 1093 958 1093 1122 929 c 128,-1,8
 1286 765 1286 765 1286 533 c 256,9,10
 1286 301 1286 301 1122 137 c 128,-1,11
 958 -27 958 -27 725 -27 c 0,0,1
725 18 m 0,12,13
 939 18 939 18 1090 169 c 128,-1,14
 1241 320 1241 320 1241 533 c 256,15,16
 1241 746 1241 746 1090 897 c 128,-1,17
 939 1048 939 1048 725 1048 c 0,18,19
 513 1048 513 1048 362 897 c 128,-1,20
 211 746 211 746 211 533 c 256,21,22
 211 320 211 320 362 169 c 128,-1,23
 513 18 513 18 725 18 c 0,12,13
890 246 m 1,24,25
 785 213 785 213 704 213 c 0,26,27
 580 213 580 213 508 279.5 c 128,-1,28
 436 346 436 346 436 462 c 0,29,30
 436 625 436 625 541 734.5 c 128,-1,31
 646 844 646 844 805 844 c 0,32,33
 896 844 896 844 1003 814 c 1,34,-1
 967 675 l 1,35,-1
 915 684 l 1,36,-1
 923 766 l 1,37,38
 854 798 854 798 792 798 c 0,39,40
 688 798 688 798 616 700 c 128,-1,41
 544 602 544 602 544 462 c 0,42,43
 544 271 544 271 722 271 c 0,44,45
 823 271 823 271 902 307 c 1,46,-1
 890 246 l 1,24,25
EndSplineSet
EndChar

StartChar: trademark
Encoding: 8482 8482 35
Width: 1333
Flags: W
LayerCount: 2
Fore
SplineSet
440 1021 m 1,0,-1
 307 1021 l 1,1,-1
 288 923 l 1,2,-1
 225 923 l 1,3,-1
 254 1066 l 1,4,-1
 751 1066 l 1,5,-1
 723 923 l 1,6,-1
 661 923 l 1,7,-1
 679 1021 l 1,8,-1
 546 1021 l 1,9,-1
 456 569 l 1,10,-1
 554 569 l 1,11,-1
 545 524 l 1,12,-1
 243 524 l 1,13,-1
 253 569 l 1,14,-1
 350 569 l 1,15,-1
 440 1021 l 1,0,-1
1011 569 m 1,16,-1
 942 956 l 1,17,-1
 857 524 l 1,18,-1
 688 524 l 1,19,-1
 697 569 l 1,20,-1
 794 569 l 1,21,-1
 884 1021 l 1,22,-1
 787 1021 l 1,23,-1
 796 1066 l 1,24,-1
 1036 1066 l 1,25,-1
 1092 747 l 1,26,-1
 1265 1066 l 1,27,-1
 1481 1066 l 1,28,-1
 1473 1021 l 1,29,-1
 1375 1021 l 1,30,-1
 1285 569 l 1,31,-1
 1383 569 l 1,32,-1
 1373 524 l 1,33,-1
 1178 524 l 1,34,-1
 1270 985 l 1,35,-1
 1041 569 l 1,36,-1
 1011 569 l 1,16,-1
EndSplineSet
EndChar

StartChar: logicalnot
Encoding: 172 172 39
Width: 932
Flags: W
LayerCount: 2
Fore
SplineSet
177 510 m 1,0,-1
 193 590 l 1,1,-1
 975 590 l 1,2,-1
 906 248 l 1,3,-1
 814 248 l 1,4,-1
 866 510 l 1,5,-1
 177 510 l 1,0,-1
EndSplineSet
EndChar

StartChar: florin
Encoding: 402 402 40
Width: 679
Flags: W
LayerCount: 2
Fore
SplineSet
158 -231 m 1,0,-1
 210 -18 l 1,1,-1
 286 364 l 1,2,-1
 108 364 l 1,3,-1
 117 409 l 1,4,-1
 294 409 l 1,5,-1
 298 427 l 2,6,7
 330 586 330 586 463 692.5 c 128,-1,8
 596 799 596 799 761 799 c 0,9,10
 818 799 818 799 860 784 c 1,11,-1
 764 678 l 1,12,13
 712 729 712 729 643 729 c 0,14,15
 500 729 500 729 457 512 c 2,16,-1
 436 409 l 1,17,-1
 623 409 l 1,18,-1
 614 364 l 1,19,-1
 427 364 l 1,20,-1
 313 -213 l 1,21,-1
 158 -231 l 1,0,-1
EndSplineSet
EndChar

StartChar: ellipsis
Encoding: 8230 8230 41
Width: 1827
Flags: W
LayerCount: 2
Fore
SplineSet
758 113 m 0,0,1
 758 144 758 144 809.5 245.5 c 128,-1,2
 861 347 861 347 876 355 c 0,3,4
 907 369 907 369 964.5 307.5 c 128,-1,5
 1022 246 1022 246 1026 211 c 1,6,7
 1026 166 1026 166 977.5 79.5 c 128,-1,8
 929 -7 929 -7 908 -7 c 0,9,10
 899 -7 899 -7 851 26.5 c 128,-1,11
 803 60 803 60 778 79 c 0,12,13
 758 96 758 96 758 113 c 0,0,1
1308 113 m 0,14,15
 1308 144 1308 144 1359 245.5 c 128,-1,16
 1410 347 1410 347 1426 355 c 0,17,18
 1457 369 1457 369 1514.5 307.5 c 128,-1,19
 1572 246 1572 246 1575 211 c 0,20,21
 1575 166 1575 166 1527 79.5 c 128,-1,22
 1479 -7 1479 -7 1458 -7 c 0,23,24
 1449 -7 1449 -7 1401 26.5 c 128,-1,25
 1353 60 1353 60 1328 79 c 0,26,27
 1308 96 1308 96 1308 113 c 0,14,15
211 113 m 0,28,29
 211 144 211 144 262 245.5 c 128,-1,30
 313 347 313 347 329 355 c 0,31,32
 360 369 360 369 417.5 307.5 c 128,-1,33
 475 246 475 246 478 211 c 0,34,35
 478 166 478 166 430 79.5 c 128,-1,36
 382 -7 382 -7 361 -7 c 0,37,38
 352 -7 352 -7 304 26.5 c 128,-1,39
 256 60 256 60 231 79 c 0,40,41
 211 96 211 96 211 113 c 0,28,29
EndSplineSet
EndChar

StartChar: endash
Encoding: 8211 8211 42
Width: 434
Flags: W
LayerCount: 2
Fore
SplineSet
434 154 m 1,0,-1
 0 154 l 1,1,-1
 0 234 l 1,2,-1
 434 234 l 1,3,-1
 434 154 l 1,0,-1
EndSplineSet
EndChar

StartChar: emdash
Encoding: 8212 8212 43
Width: 1862
Flags: W
LayerCount: 2
Fore
SplineSet
1866 572 m 1,0,-1
 -4 572 l 1,1,-1
 -4 732 l 1,2,-1
 1866 732 l 1,3,-1
 1866 572 l 1,0,-1
EndSplineSet
EndChar

StartChar: quotedblleft
Encoding: 8220 8220 44
Width: 613
Flags: W
LayerCount: 2
Fore
SplineSet
340 993 m 0,0,1
 341 1058 341 1058 385 1121.5 c 128,-1,2
 429 1185 429 1185 483 1211 c 1,3,-1
 514 1153 l 1,4,5
 498 1144 498 1144 476 1120 c 128,-1,6
 454 1096 454 1096 444 1058 c 1,7,8
 510 1030 510 1030 507 975 c 0,9,10
 507 959 507 959 500.5 944.5 c 128,-1,11
 494 930 494 930 483.5 919 c 128,-1,12
 473 908 473 908 458 901.5 c 128,-1,13
 443 895 443 895 427 895 c 0,14,15
 406 895 406 895 390 903.5 c 128,-1,16
 374 912 374 912 363 925.5 c 128,-1,17
 352 939 352 939 346 957 c 128,-1,18
 340 975 340 975 340 993 c 0,0,1
121 993 m 0,19,20
 122 1058 122 1058 166 1121.5 c 128,-1,21
 210 1185 210 1185 265 1211 c 1,22,-1
 296 1153 l 1,23,24
 280 1144 280 1144 258 1120 c 128,-1,25
 236 1096 236 1096 226 1058 c 1,26,27
 292 1030 292 1030 289 975 c 0,28,29
 289 959 289 959 282.5 944.5 c 128,-1,30
 276 930 276 930 265 919 c 128,-1,31
 254 908 254 908 239 901.5 c 128,-1,32
 224 895 224 895 208 895 c 0,33,34
 188 895 188 895 171.5 903.5 c 128,-1,35
 155 912 155 912 144 925.5 c 128,-1,36
 133 939 133 939 127 957 c 128,-1,37
 121 975 121 975 121 993 c 0,19,20
EndSplineSet
EndChar

StartChar: quotedblright
Encoding: 8221 8221 45
Width: 597
Flags: W
LayerCount: 2
Fore
SplineSet
295 1113 m 0,0,1
 294 1048 294 1048 250 984.5 c 128,-1,2
 206 921 206 921 152 895 c 1,3,-1
 121 953 l 1,4,5
 137 962 137 962 159 986 c 128,-1,6
 181 1010 181 1010 191 1048 c 1,7,8
 125 1076 125 1076 128 1131 c 0,9,10
 128 1147 128 1147 134.5 1161.5 c 128,-1,11
 141 1176 141 1176 151.5 1187 c 128,-1,12
 162 1198 162 1198 176.5 1204.5 c 128,-1,13
 191 1211 191 1211 208 1211 c 0,14,15
 229 1211 229 1211 245 1202.5 c 128,-1,16
 261 1194 261 1194 272 1180.5 c 128,-1,17
 283 1167 283 1167 289 1149 c 128,-1,18
 295 1131 295 1131 295 1113 c 0,0,1
514 1113 m 0,19,20
 513 1048 513 1048 469 984.5 c 128,-1,21
 425 921 425 921 370 895 c 1,22,-1
 339 953 l 1,23,24
 355 962 355 962 377 986 c 128,-1,25
 399 1010 399 1010 409 1048 c 1,26,27
 343 1076 343 1076 346 1131 c 0,28,29
 346 1147 346 1147 352.5 1161.5 c 128,-1,30
 359 1176 359 1176 370 1187 c 128,-1,31
 381 1198 381 1198 395.5 1204.5 c 128,-1,32
 410 1211 410 1211 427 1211 c 0,33,34
 447 1211 447 1211 463 1202.5 c 128,-1,35
 479 1194 479 1194 490.5 1180.5 c 128,-1,36
 502 1167 502 1167 508 1149 c 128,-1,37
 514 1131 514 1131 514 1113 c 0,19,20
EndSplineSet
EndChar

StartChar: divide
Encoding: 247 247 46
Width: 1104
Flags: W
LayerCount: 2
Fore
SplineSet
798 761 m 0,0,1
 788 719 788 719 755.5 689.5 c 128,-1,2
 723 660 723 660 682 660 c 0,3,4
 661 660 661 660 645 668 c 128,-1,5
 629 676 629 676 618.5 690 c 128,-1,6
 608 704 608 704 604.5 722.5 c 128,-1,7
 601 741 601 741 605 761 c 0,8,9
 614 803 614 803 647.5 829 c 128,-1,10
 681 855 681 855 723 855 c 0,11,12
 764 855 764 855 785 828 c 128,-1,13
 806 801 806 801 798 761 c 0,0,1
1043 405 m 1,14,-1
 233 405 l 1,15,-1
 264 552 l 1,16,-1
 1074 552 l 1,17,-1
 1043 405 l 1,14,-1
660 211 m 0,18,19
 650 169 650 169 617.5 139.5 c 128,-1,20
 585 110 585 110 544 110 c 0,21,22
 523 110 523 110 507 118 c 128,-1,23
 491 126 491 126 480.5 140 c 128,-1,24
 470 154 470 154 466.5 172.5 c 128,-1,25
 463 191 463 191 467 211 c 0,26,27
 476 253 476 253 509.5 279 c 128,-1,28
 543 305 543 305 585 305 c 0,29,30
 626 305 626 305 647 278 c 128,-1,31
 668 251 668 251 660 211 c 0,18,19
EndSplineSet
EndChar

StartChar: lozenge
Encoding: 9674 9674 47
Width: 1118
Flags: W
LayerCount: 2
Fore
SplineSet
1003 699 m 1,0,-1
 560 197 l 1,1,-1
 117 699 l 1,2,-1
 560 1202 l 1,3,-1
 1003 699 l 1,0,-1
848 699 m 1,4,-1
 560 1036 l 1,5,-1
 271 699 l 1,6,-1
 560 364 l 1,7,-1
 848 699 l 1,4,-1
EndSplineSet
EndChar

StartChar: fraction
Encoding: 8260 8260 48
Width: 742
Flags: W
LayerCount: 2
Fore
SplineSet
740 1101 m 1,0,-1
 101 -82 l 1,1,-1
 -9 -82 l 1,2,-1
 629 1101 l 1,3,-1
 740 1101 l 1,0,-1
EndSplineSet
EndChar

StartChar: guilsinglleft
Encoding: 8249 8249 49
Width: 1117
Flags: W
LayerCount: 2
Fore
SplineSet
955 58 m 1,0,-1
 150 444 l 1,1,-1
 150 534 l 1,2,-1
 955 918 l 1,3,-1
 955 784 l 1,4,-1
 331 489 l 1,5,-1
 955 192 l 1,6,-1
 955 58 l 1,0,-1
EndSplineSet
EndChar

StartChar: daggerdbl
Encoding: 8225 8225 52
Width: 932
Flags: W
LayerCount: 2
Fore
SplineSet
349 -231 m 1,0,-1
 481 185 l 1,1,-1
 161 154 l 1,2,-1
 211 261 l 1,3,-1
 490 229 l 1,4,-1
 567 616 l 1,5,-1
 247 586 l 1,6,-1
 297 693 l 1,7,-1
 575 661 l 1,8,-1
 608 1066 l 1,9,-1
 758 1093 l 1,10,-1
 620 661 l 1,11,-1
 940 693 l 1,12,-1
 889 586 l 1,13,-1
 611 616 l 1,14,-1
 535 229 l 1,15,-1
 855 261 l 1,16,-1
 804 154 l 1,17,-1
 525 185 l 1,18,-1
 499 -213 l 1,19,-1
 349 -231 l 1,0,-1
EndSplineSet
EndChar

StartChar: middot.001
Encoding: 8729 8729 53
Width: 620
Flags: W
LayerCount: 2
Fore
SplineSet
429 516 m 1,0,-1
 190 516 l 1,1,-1
 190 789 l 1,2,-1
 429 789 l 1,3,-1
 429 516 l 1,0,-1
EndSplineSet
EndChar

StartChar: quotesinglbase
Encoding: 8218 8218 54
Width: 418
Flags: W
LayerCount: 2
Fore
SplineSet
103 128 m 1,0,-1
 247 231 l 1,1,-1
 353 90 l 1,2,3
 345 -56 345 -56 262.5 -134.5 c 128,-1,4
 180 -213 180 -213 36 -213 c 1,5,-1
 76 -168 l 1,6,7
 189 -158 189 -158 211 -18 c 1,8,-1
 103 128 l 1,0,-1
EndSplineSet
EndChar

StartChar: quotedblbase
Encoding: 8222 8222 55
Width: 684
Flags: W
LayerCount: 2
Fore
SplineSet
91 92 m 1,0,-1
 204 178 l 1,1,-1
 292 64 l 1,2,3
 270 -213 270 -213 31 -213 c 1,4,-1
 60 -168 l 1,5,6
 166 -148 166 -148 179 -16 c 1,7,-1
 91 92 l 1,0,-1
401 92 m 1,8,-1
 516 178 l 1,9,-1
 602 64 l 1,10,11
 581 -213 581 -213 341 -213 c 1,12,-1
 372 -168 l 1,13,14
 476 -148 476 -148 490 -16 c 1,15,-1
 401 92 l 1,8,-1
EndSplineSet
EndChar

StartChar: perthousand
Encoding: 8240 8240 56
Width: 1571
Flags: W
LayerCount: 2
Fore
SplineSet
385 533 m 0,0,1
 304 533 304 533 254.5 584.5 c 128,-1,2
 205 636 205 636 205 722 c 0,3,4
 205 865 205 865 286.5 965.5 c 128,-1,5
 368 1066 368 1066 483 1066 c 0,6,7
 567 1066 567 1066 617.5 1014.5 c 128,-1,8
 668 963 668 963 668 877 c 0,9,10
 668 733 668 733 585.5 633 c 128,-1,11
 503 533 503 533 385 533 c 0,0,1
311 715 m 0,12,13
 311 578 311 578 398 578 c 0,14,15
 463 578 463 578 517 671.5 c 128,-1,16
 571 765 571 765 571 881 c 0,17,18
 571 1022 571 1022 483 1022 c 0,19,20
 416 1022 416 1022 363.5 928 c 128,-1,21
 311 834 311 834 311 715 c 0,12,13
850 0 m 0,22,23
 769 0 769 0 719.5 51.5 c 128,-1,24
 670 103 670 103 670 189 c 0,25,26
 670 331 670 331 751 432 c 128,-1,27
 832 533 832 533 947 533 c 0,28,29
 1031 533 1031 533 1081.5 481.5 c 128,-1,30
 1132 430 1132 430 1132 344 c 0,31,32
 1132 200 1132 200 1049.5 100 c 128,-1,33
 967 0 967 0 850 0 c 0,22,23
776 182 m 0,34,35
 776 44 776 44 862 44 c 0,36,37
 929 44 929 44 982 138 c 128,-1,38
 1035 232 1035 232 1035 348 c 0,39,40
 1035 490 1035 490 948 490 c 0,41,42
 880 490 880 490 828 395.5 c 128,-1,43
 776 301 776 301 776 182 c 0,34,35
131 -27 m 1,44,-1
 1111 1093 l 1,45,-1
 1206 1093 l 1,46,-1
 225 -27 l 1,47,-1
 131 -27 l 1,44,-1
1376 0 m 0,48,49
 1294 0 1294 0 1244.5 51.5 c 128,-1,50
 1195 103 1195 103 1195 189 c 0,51,52
 1195 331 1195 331 1276.5 432 c 128,-1,53
 1358 533 1358 533 1473 533 c 0,54,55
 1557 533 1557 533 1607.5 481.5 c 128,-1,56
 1658 430 1658 430 1658 344 c 0,57,58
 1658 200 1658 200 1575.5 100 c 128,-1,59
 1493 0 1493 0 1376 0 c 0,48,49
1301 183 m 0,60,61
 1301 44 1301 44 1389 44 c 0,62,63
 1453 44 1453 44 1507 138 c 128,-1,64
 1561 232 1561 232 1561 347 c 0,65,66
 1561 490 1561 490 1473 490 c 0,67,68
 1406 490 1406 490 1353.5 395.5 c 128,-1,69
 1301 301 1301 301 1301 183 c 0,60,61
EndSplineSet
EndChar

StartChar: multiply
Encoding: 215 215 60
Width: 877
Flags: W
LayerCount: 2
Fore
SplineSet
975 508 m 1,0,1
 912 476 912 476 839.5 431 c 128,-1,2
 767 386 767 386 682 326 c 1,3,4
 728 272 728 272 775 226.5 c 128,-1,5
 822 181 822 181 870 143 c 1,6,-1
 745 37 l 1,7,8
 691 82 691 82 642.5 128 c 128,-1,9
 594 174 594 174 549 223 c 1,10,11
 474 163 474 163 411.5 111.5 c 128,-1,12
 349 60 349 60 299 16 c 1,13,-1
 209 111 l 1,14,-1
 467 326 l 1,15,16
 429 374 429 374 391 427.5 c 128,-1,17
 353 481 353 481 317 543 c 1,18,-1
 463 639 l 1,19,20
 498 579 498 579 532.5 525.5 c 128,-1,21
 567 472 567 472 602 424 c 1,22,23
 674 477 674 477 750 525.5 c 128,-1,24
 826 574 826 574 907 621 c 1,25,-1
 975 508 l 1,26,-1
 975 508 l 1,0,1
EndSplineSet
EndChar

StartChar: macron
Encoding: 175 175 61
Width: 1118
Flags: W
LayerCount: 2
Fore
SplineSet
1134 1259 m 1,0,-1
 -16 1259 l 1,1,-1
 -16 1389 l 1,2,-1
 1134 1389 l 1,3,-1
 1134 1259 l 1,0,-1
EndSplineSet
EndChar

StartChar: periodcentered
Encoding: 183 183 62
Width: 724
Flags: W
LayerCount: 2
Fore
SplineSet
482 832 m 1,0,-1
 243 832 l 1,1,-1
 243 1117 l 1,2,-1
 482 1117 l 1,3,-1
 482 832 l 1,0,-1
EndSplineSet
EndChar

StartChar: H22073
Encoding: 9633 9633 63
Width: 1237
Flags: W
LayerCount: 2
Fore
SplineSet
146 944 m 1,0,-1
 1090 944 l 1,1,-1
 1090 0 l 1,2,-1
 146 0 l 1,3,-1
 146 944 l 1,0,-1
222 868 m 1,4,-1
 222 76 l 1,5,-1
 1014 76 l 1,6,-1
 1014 868 l 1,7,-1
 222 868 l 1,4,-1
EndSplineSet
EndChar

StartChar: H18543
Encoding: 9642 9642 64
Width: 1089
Flags: W
LayerCount: 2
Fore
SplineSet
886 894 m 1,0,-1
 886 200 l 1,1,-1
 192 200 l 1,2,-1
 192 894 l 1,3,-1
 886 894 l 1,0,-1
EndSplineSet
EndChar

StartChar: H18551
Encoding: 9643 9643 65
Width: 1089
Flags: W
LayerCount: 2
Fore
SplineSet
888 930 m 1,0,-1
 888 235 l 1,1,-1
 193 235 l 1,2,-1
 193 930 l 1,3,-1
 888 930 l 1,0,-1
774 816 m 1,4,-1
 307 816 l 1,5,-1
 307 349 l 1,6,-1
 774 349 l 1,7,-1
 774 816 l 1,4,-1
EndSplineSet
EndChar

StartChar: H18533
Encoding: 9679 9679 66
Width: 1339
Flags: W
LayerCount: 2
Fore
SplineSet
204 775 m 0,0,1
 204 976 204 976 345 1117 c 128,-1,2
 486 1258 486 1258 685 1258 c 0,3,4
 885 1258 885 1258 1026 1117 c 128,-1,5
 1167 976 1167 976 1167 775 c 0,6,7
 1167 577 1167 577 1026 436 c 128,-1,8
 885 295 885 295 685 295 c 0,9,10
 486 295 486 295 345 436 c 128,-1,11
 204 577 204 577 204 775 c 0,0,1
EndSplineSet
EndChar

StartChar: openbullet
Encoding: 9702 9702 67
Width: 1089
Flags: W
LayerCount: 2
Fore
SplineSet
544 1392 m 0,0,1
 700 1392 700 1392 810.5 1281.5 c 128,-1,2
 921 1171 921 1171 921 1015 c 256,3,4
 921 859 921 859 810.5 749 c 128,-1,5
 700 639 700 639 544 639 c 256,6,7
 388 639 388 639 278 749 c 128,-1,8
 168 859 168 859 168 1015 c 256,9,10
 168 1171 168 1171 277.5 1281.5 c 128,-1,11
 387 1392 387 1392 544 1392 c 0,0,1
544 1278 m 0,12,13
 435 1278 435 1278 358.5 1200.5 c 128,-1,14
 282 1123 282 1123 282 1015 c 0,15,16
 282 906 282 906 359 829.5 c 128,-1,17
 436 753 436 753 544 753 c 256,18,19
 652 753 652 753 729.5 829.5 c 128,-1,20
 807 906 807 906 807 1015 c 0,21,22
 807 1123 807 1123 730.5 1200.5 c 128,-1,23
 654 1278 654 1278 544 1278 c 0,12,13
EndSplineSet
EndChar

StartChar: uniFFFC
Encoding: 65532 65532 68
Width: 2048
Flags: W
LayerCount: 2
Fore
SplineSet
2048 1150 m 1,0,-1
 1948 1150 l 1,1,-1
 1948 1373 l 1,2,-1
 1725 1373 l 1,3,-1
 1725 1473 l 1,4,-1
 2048 1473 l 1,5,-1
 2048 1150 l 1,0,-1
1473 1373 m 1,6,-1
 1150 1373 l 1,7,-1
 1150 1473 l 1,8,-1
 1473 1473 l 1,9,-1
 1473 1373 l 1,6,-1
2048 575 m 1,10,-1
 1948 575 l 1,11,-1
 1948 898 l 1,12,-1
 2048 898 l 1,13,-1
 2048 575 l 1,10,-1
1782 611 m 2,14,15
 1782 370 1782 370 1571 370 c 0,16,17
 1485 370 1485 370 1433 415 c 1,18,-1
 1506 494 l 1,19,20
 1531 468 1531 468 1571 468 c 0,21,22
 1666 468 1666 468 1666 606 c 2,23,-1
 1666 1090 l 1,24,-1
 1782 1090 l 1,25,-1
 1782 611 l 2,14,15
898 1373 m 1,26,-1
 575 1373 l 1,27,-1
 575 1473 l 1,28,-1
 898 1473 l 1,29,-1
 898 1373 l 1,26,-1
2048 0 m 1,30,-1
 1725 0 l 1,31,-1
 1725 100 l 1,32,-1
 1948 100 l 1,33,-1
 1948 323 l 1,34,-1
 2048 323 l 1,35,-1
 2048 0 l 1,30,-1
1423 591 m 0,36,37
 1423 382 1423 382 1149 382 c 2,38,-1
 909 382 l 1,39,-1
 909 1090 l 1,40,-1
 1144 1090 l 2,41,42
 1393 1090 1393 1090 1393 904 c 0,43,44
 1393 813 1393 813 1304 759 c 1,45,46
 1423 713 1423 713 1423 591 c 0,36,37
323 1373 m 1,47,-1
 100 1373 l 1,48,-1
 100 1150 l 1,49,-1
 0 1150 l 1,50,-1
 0 1473 l 1,51,-1
 323 1473 l 1,52,-1
 323 1373 l 1,47,-1
1473 0 m 1,53,-1
 1150 0 l 1,54,-1
 1150 100 l 1,55,-1
 1473 100 l 1,56,-1
 1473 0 l 1,53,-1
854 735 m 0,57,58
 854 562 854 562 772 466 c 128,-1,59
 690 370 690 370 537 370 c 256,60,61
 384 370 384 370 303.5 466 c 128,-1,62
 223 562 223 562 223 735 c 0,63,64
 223 910 223 910 303.5 1006 c 128,-1,65
 384 1102 384 1102 537 1102 c 256,66,67
 690 1102 690 1102 772 1006 c 128,-1,68
 854 910 854 910 854 735 c 0,57,58
100 575 m 1,69,-1
 0 575 l 1,70,-1
 0 898 l 1,71,-1
 100 898 l 1,72,-1
 100 575 l 1,69,-1
898 0 m 1,73,-1
 575 0 l 1,74,-1
 575 100 l 1,75,-1
 898 100 l 1,76,-1
 898 0 l 1,73,-1
323 0 m 1,77,-1
 0 0 l 1,78,-1
 0 323 l 1,79,-1
 100 323 l 1,80,-1
 100 100 l 1,81,-1
 323 100 l 1,82,-1
 323 0 l 1,77,-1
1277 893 m 0,83,84
 1277 992 1277 992 1114 992 c 2,85,-1
 1025 992 l 1,86,-1
 1025 798 l 1,87,-1
 1126 798 l 2,88,89
 1277 798 1277 798 1277 893 c 0,83,84
1307 591 m 0,90,91
 1307 700 1307 700 1136 700 c 2,92,-1
 1025 700 l 1,93,-1
 1025 480 l 1,94,-1
 1149 480 l 2,95,96
 1307 480 1307 480 1307 591 c 0,90,91
738 735 m 0,97,98
 738 1004 738 1004 537 1004 c 0,99,100
 339 1004 339 1004 339 735 c 0,101,102
 339 468 339 468 537 468 c 0,103,104
 738 468 738 468 738 735 c 0,97,98
EndSplineSet
EndChar

StartChar: zerowidthnonjoiner
Encoding: 8204 8204 88
Width: 0
GlyphClass: 2
Flags: W
LayerCount: 2
Fore
SplineSet
36 1289 m 1,0,-1
 36 -275 l 1,1,-1
 -36 -275 l 1,2,-1
 -36 1289 l 1,3,-1
 36 1289 l 1,0,-1
EndSplineSet
EndChar

StartChar: zerowidthjoiner
Encoding: 8205 8205 89
Width: 0
GlyphClass: 2
Flags: W
LayerCount: 2
Fore
SplineSet
36 -275 m 1,0,-1
 -36 -275 l 1,1,-1
 -36 1114 l 1,2,-1
 -170 978 l 1,3,-1
 -219 1027 l 1,4,-1
 -48 1196 l 1,5,-1
 -219 1364 l 1,6,-1
 -170 1413 l 1,7,-1
 0 1242 l 1,8,-1
 170 1413 l 1,9,-1
 219 1364 l 1,10,-1
 48 1196 l 1,11,-1
 219 1027 l 1,12,-1
 170 978 l 1,13,-1
 36 1114 l 1,14,-1
 36 -275 l 1,0,-1
EndSplineSet
EndChar

StartChar: lefttorightmark
Encoding: 8206 8206 90
Width: 0
GlyphClass: 2
Flags: W
LayerCount: 2
Fore
SplineSet
430 1198 m 1,0,-1
 213 984 l 1,1,-1
 164 1033 l 1,2,-1
 301 1163 l 1,3,-1
 35 1163 l 1,4,-1
 35 -275 l 1,5,-1
 -36 -275 l 1,6,-1
 -36 1234 l 1,7,-1
 301 1234 l 1,8,-1
 164 1364 l 1,9,-1
 213 1413 l 1,10,-1
 430 1198 l 1,0,-1
EndSplineSet
EndChar

StartChar: righttoleftmark
Encoding: 8207 8207 91
Width: 0
GlyphClass: 2
Flags: W
LayerCount: 2
Fore
SplineSet
35 -275 m 1,0,-1
 -36 -275 l 1,1,-1
 -36 1163 l 1,2,-1
 -302 1163 l 1,3,-1
 -165 1033 l 1,4,-1
 -214 984 l 1,5,-1
 -431 1198 l 1,6,-1
 -214 1413 l 1,7,-1
 -165 1364 l 1,8,-1
 -302 1234 l 1,9,-1
 35 1234 l 1,10,-1
 35 -275 l 1,0,-1
EndSplineSet
EndChar

StartChar: afii57388.001
Encoding: 1644 1644 92
Width: 353
GlyphClass: 2
Flags: W
LayerCount: 2
Fore
SplineSet
210 654 m 0,0,1
 200 627 200 627 185 603 c 0,2,3
 180 597 180 597 173.5 593.5 c 128,-1,4
 167 590 167 590 162 590 c 128,-1,5
 157 590 157 590 154.5 593 c 128,-1,6
 152 596 152 596 155 603 c 0,7,8
 187 660 187 660 202.5 713.5 c 128,-1,9
 218 767 218 767 218 800 c 1,10,11
 194 806 194 806 179 816 c 128,-1,12
 164 826 164 826 155 837.5 c 128,-1,13
 146 849 146 849 143 859 c 128,-1,14
 140 869 140 869 140 874 c 0,15,16
 140 890 140 890 145.5 907 c 128,-1,17
 151 924 151 924 160.5 937.5 c 128,-1,18
 170 951 170 951 183.5 959.5 c 128,-1,19
 197 968 197 968 213 968 c 0,20,21
 272 968 272 968 272 874 c 0,22,23
 272 859 272 859 268 835 c 128,-1,24
 264 811 264 811 256 781.5 c 128,-1,25
 248 752 248 752 236.5 719.5 c 128,-1,26
 225 687 225 687 210 654 c 0,0,1
EndSplineSet
EndChar

StartChar: afii57409
Encoding: 1569 1569 93
Width: 664
GlyphClass: 2
Flags: W
AnchorPoint: "Anchor-3" 390 -285 basechar 0
AnchorPoint: "Anchor-2" 570 495 basechar 0
LayerCount: 2
Fore
SplineSet
731 229 m 1,0,-1
 631 229 l 2,1,2
 615 229 615 229 605 228 c 128,-1,3
 595 227 595 227 588.5 222.5 c 128,-1,4
 582 218 582 218 577.5 209.5 c 128,-1,5
 573 201 573 201 567 186 c 2,6,-1
 551 104 l 1,7,-1
 717 104 l 1,8,-1
 692 37 l 1,9,10
 686 0 686 0 631 0 c 2,11,-1
 209 0 l 1,12,-1
 238 98 l 1,13,-1
 383 98 l 1,14,-1
 426 276 l 2,15,16
 441 332 441 332 496 332 c 2,17,-1
 692 332 l 2,18,19
 748 332 748 332 748 301 c 0,20,21
 748 298 748 298 747.5 295 c 128,-1,22
 747 292 747 292 745 287 c 2,23,-1
 731 229 l 1,0,-1
EndSplineSet
EndChar

StartChar: afii57440
Encoding: 1600 1600 94
Width: 592
GlyphClass: 2
Flags: W
LayerCount: 2
Fore
SplineSet
-53 0 m 1,0,-1
 -53 250 l 1,1,-1
 621 250 l 1,2,-1
 621 0 l 1,3,-1
 -53 0 l 1,0,-1
EndSplineSet
EndChar

StartChar: afii57453
Encoding: 1613 1613 95
Width: 0
GlyphClass: 4
Flags: W
AnchorPoint: "Anchor-3" 0 0 mark 0
AnchorPoint: "Anchor-1" 0 0 mark 0
LayerCount: 2
Fore
SplineSet
192 1 m 1,0,-1
 -181 1 l 1,1,-1
 -163 83 l 1,2,-1
 210 83 l 1,3,-1
 192 1 l 1,0,-1
158 -160 m 1,4,-1
 -215 -160 l 1,5,-1
 -196 -81 l 1,6,-1
 177 -81 l 1,7,-1
 158 -160 l 1,4,-1
EndSplineSet
EndChar

StartChar: afii57381
Encoding: 1642 1642 96
Width: 977
GlyphClass: 2
Flags: W
LayerCount: 2
Fore
SplineSet
676 944 m 0,0,1
 676 916 676 916 665 890.5 c 128,-1,2
 654 865 654 865 635 845.5 c 128,-1,3
 616 826 616 826 590.5 814.5 c 128,-1,4
 565 803 565 803 537 803 c 0,5,6
 507 803 507 803 480.5 814.5 c 128,-1,7
 454 826 454 826 434.5 845 c 128,-1,8
 415 864 415 864 404 889.5 c 128,-1,9
 393 915 393 915 393 944 c 0,10,11
 393 975 393 975 404 1001.5 c 128,-1,12
 415 1028 415 1028 434.5 1047.5 c 128,-1,13
 454 1067 454 1067 480 1078.5 c 128,-1,14
 506 1090 506 1090 537 1090 c 0,15,16
 567 1090 567 1090 592 1078.5 c 128,-1,17
 617 1067 617 1067 636 1047.5 c 128,-1,18
 655 1028 655 1028 665.5 1001.5 c 128,-1,19
 676 975 676 975 676 944 c 0,0,1
1065 1085 m 1,20,21
 1014 959 1014 959 938.5 812.5 c 128,-1,22
 863 666 863 666 760 496 c 0,23,24
 660 334 660 334 572 209 c 128,-1,25
 484 84 484 84 406 -4 c 1,26,-1
 252 92 l 1,27,28
 731 696 731 696 918 1174 c 1,29,-1
 1065 1085 l 1,20,21
967 150 m 256,30,31
 967 120 967 120 956.5 93.5 c 128,-1,32
 946 67 946 67 927 47.5 c 128,-1,33
 908 28 908 28 882.5 17 c 128,-1,34
 857 6 857 6 827 6 c 256,35,36
 797 6 797 6 771 17 c 128,-1,37
 745 28 745 28 725.5 47.5 c 128,-1,38
 706 67 706 67 695 93.5 c 128,-1,39
 684 120 684 120 684 150 c 256,40,41
 684 180 684 180 695 205 c 128,-1,42
 706 230 706 230 725.5 249 c 128,-1,43
 745 268 745 268 771 278.5 c 128,-1,44
 797 289 797 289 827 289 c 0,45,46
 855 289 855 289 880.5 278.5 c 128,-1,47
 906 268 906 268 925.5 249 c 128,-1,48
 945 230 945 230 956 205 c 128,-1,49
 967 180 967 180 967 150 c 256,30,31
EndSplineSet
EndChar

StartChar: afii57461
Encoding: 1643 1643 97
Width: 536
GlyphClass: 2
Flags: W
LayerCount: 2
Fore
SplineSet
518 521 m 1,0,-1
 115 -382 l 1,1,-1
 19 -352 l 1,2,-1
 425 551 l 1,3,-1
 518 521 l 1,0,-1
EndSplineSet
EndChar

StartChar: afii63167
Encoding: 1645 1645 98
Width: 1118
GlyphClass: 2
Flags: W
LayerCount: 2
Fore
SplineSet
694 729 m 1,0,-1
 1057 733 l 1,1,-1
 1057 610 l 1,2,-1
 702 612 l 1,3,-1
 971 352 l 1,4,-1
 883 264 l 1,5,-1
 616 539 l 1,6,-1
 623 168 l 1,7,-1
 498 168 l 1,8,-1
 502 539 l 1,9,-1
 236 264 l 1,10,-1
 147 352 l 1,11,-1
 422 614 l 1,12,-1
 63 610 l 1,13,-1
 63 733 l 1,14,-1
 420 729 l 1,15,-1
 170 975 l 1,16,-1
 258 1065 l 1,17,-1
 502 817 l 1,18,-1
 498 1176 l 1,19,-1
 623 1176 l 1,20,-1
 616 813 l 1,21,-1
 860 1065 l 1,22,-1
 948 975 l 1,23,-1
 694 729 l 1,0,-1
EndSplineSet
EndChar

StartChar: afii57459
Encoding: 65543 -1 99
Width: 780
GlyphClass: 2
Flags: W
LayerCount: 2
Fore
SplineSet
852 250 m 2,0,1
 825 112 825 112 778 59 c 0,2,3
 722 0 722 0 590 0 c 2,4,-1
 -53 0 l 1,5,-1
 -53 250 l 1,6,-1
 195 250 l 1,7,8
 158 274 158 274 158 324 c 0,9,10
 158 332 158 332 159 338 c 128,-1,11
 160 344 160 344 162 350 c 2,12,-1
 195 510 l 2,13,14
 218 622 218 622 237 689.5 c 128,-1,15
 256 757 256 757 270 780 c 0,16,17
 317 858 317 858 461 858 c 2,18,-1
 621 858 l 2,19,20
 770 858 770 858 817 846 c 0,21,22
 926 817 926 817 926 711 c 0,23,24
 926 689 926 689 922.5 658.5 c 128,-1,25
 919 628 919 628 911 590 c 2,26,-1
 852 250 l 2,0,1
602 678 m 2,27,28
 517 678 517 678 485 606 c 0,29,30
 476 585 476 585 455 459 c 2,31,-1
 422 250 l 1,32,-1
 455 250 l 2,33,34
 531 250 531 250 553 272 c 0,35,36
 577 295 577 295 592 371 c 2,37,-1
 643 678 l 1,38,-1
 602 678 l 2,27,28
EndSplineSet
EndChar

StartChar: afii57543
Encoding: 65544 -1 100
Width: 664
Flags: W
LayerCount: 2
Fore
SplineSet
528 0 m 2,0,1
 470 0 470 0 418 61 c 1,2,3
 387 0 387 0 328 0 c 2,4,-1
 -31 0 l 1,5,-1
 -31 250 l 1,6,-1
 125 250 l 2,7,8
 183 250 183 250 203 272 c 0,9,10
 208 279 208 279 212.5 298.5 c 128,-1,11
 217 318 217 318 225 350 c 2,12,-1
 328 856 l 1,13,-1
 604 768 l 1,14,-1
 520 336 l 2,15,16
 514 310 514 310 514 299 c 0,17,18
 514 250 514 250 575 250 c 2,19,-1
 696 250 l 1,20,-1
 696 0 l 1,21,-1
 528 0 l 2,0,1
EndSplineSet
EndChar

StartChar: afii57534
Encoding: 1749 1749 101
Width: 860
GlyphClass: 2
Flags: W
LayerCount: 2
Fore
SplineSet
938 246 m 2,0,1
 927 187 927 187 914 147.5 c 128,-1,2
 901 108 901 108 887 86 c 0,3,4
 828 0 828 0 684 0 c 2,5,-1
 406 0 l 2,6,7
 221 0 221 0 221 170 c 0,8,9
 221 190 221 190 223.5 214 c 128,-1,10
 226 238 226 238 231 266 c 2,11,-1
 285 526 l 1,12,-1
 569 590 l 1,13,-1
 506 252 l 1,14,-1
 569 252 l 2,15,16
 632 252 632 252 647 270 c 0,17,18
 655 278 655 278 662.5 298 c 128,-1,19
 670 318 670 318 676 350 c 2,20,-1
 727 608 l 1,21,-1
 301 608 l 1,22,-1
 352 856 l 1,23,-1
 831 856 l 2,24,25
 1018 856 1018 856 1018 686 c 0,26,27
 1018 666 1018 666 1015.5 642 c 128,-1,28
 1013 618 1013 618 1008 590 c 2,29,-1
 938 246 l 2,0,1
EndSplineSet
EndChar

StartChar: afii64240
Encoding: 65546 -1 103
Width: 374
Flags: W
LayerCount: 2
Fore
SplineSet
294 0 m 1,0,-1
 36 0 l 1,1,-1
 81 227 l 1,2,-1
 339 227 l 1,3,-1
 294 0 l 1,0,-1
EndSplineSet
EndChar

StartChar: afii64241
Encoding: 65547 -1 104
Width: 651
Flags: W
LayerCount: 2
Fore
SplineSet
593 -3 m 1,0,-1
 337 -3 l 1,1,-1
 382 225 l 1,2,-1
 636 225 l 1,3,-1
 593 -3 l 1,0,-1
267 -3 m 1,4,-1
 9 -3 l 1,5,-1
 54 225 l 1,6,-1
 308 225 l 1,7,-1
 267 -3 l 1,4,-1
EndSplineSet
EndChar

StartChar: afii63954
Encoding: 65548 -1 105
Width: 669
Flags: W
LayerCount: 2
Fore
SplineSet
490 294 m 1,0,-1
 234 294 l 1,1,-1
 279 521 l 1,2,-1
 535 521 l 1,3,-1
 490 294 l 1,0,-1
621 3 m 1,4,-1
 365 3 l 1,5,-1
 410 226 l 1,6,-1
 664 226 l 1,7,-1
 621 3 l 1,4,-1
285 3 m 1,8,-1
 29 3 l 1,9,-1
 74 226 l 1,10,-1
 328 226 l 1,11,-1
 285 3 l 1,8,-1
EndSplineSet
EndChar

StartChar: afii57382
Encoding: 65549 -1 106
Width: 640
Flags: W
LayerCount: 2
Fore
SplineSet
585 -226 m 1,0,-1
 327 -226 l 1,1,-1
 372 1 l 1,2,-1
 630 1 l 1,3,-1
 585 -226 l 1,0,-1
263 -226 m 1,4,-1
 7 -226 l 1,5,-1
 52 1 l 1,6,-1
 308 1 l 1,7,-1
 263 -226 l 1,4,-1
370 -507 m 1,8,-1
 114 -507 l 1,9,-1
 161 -282 l 1,10,-1
 415 -282 l 1,11,-1
 370 -507 l 1,8,-1
EndSplineSet
EndChar

StartChar: afii64242
Encoding: 65550 -1 107
Width: 444
Flags: W
LayerCount: 2
Fore
SplineSet
520 246 m 2,0,1
 506 183 506 183 494 143 c 128,-1,2
 482 103 482 103 471 86 c 0,3,4
 418 0 418 0 276 0 c 2,5,-1
 -35 0 l 1,6,-1
 -35 250 l 1,7,-1
 154 250 l 2,8,9
 212 250 212 250 231 272 c 0,10,11
 236 279 236 279 241 298.5 c 128,-1,12
 246 318 246 318 254 350 c 2,13,-1
 356 856 l 1,14,-1
 635 768 l 1,15,-1
 520 246 l 2,0,1
EndSplineSet
EndChar

StartChar: afii57373
Encoding: 65551 -1 112
Width: 595
Flags: W
LayerCount: 2
Fore
SplineSet
546 1379 m 1,0,-1
 446 1379 l 2,1,2
 430 1379 430 1379 420 1378 c 128,-1,3
 410 1377 410 1377 403.5 1372.5 c 128,-1,4
 397 1368 397 1368 392.5 1359.5 c 128,-1,5
 388 1351 388 1351 382 1336 c 2,6,-1
 366 1254 l 1,7,-1
 532 1254 l 1,8,-1
 507 1187 l 1,9,10
 501 1150 501 1150 446 1150 c 2,11,-1
 24 1150 l 1,12,-1
 53 1248 l 1,13,-1
 198 1248 l 1,14,-1
 241 1426 l 2,15,16
 256 1482 256 1482 311 1482 c 2,17,-1
 507 1482 l 2,18,19
 563 1482 563 1482 563 1451 c 0,20,21
 563 1448 563 1448 562.5 1445 c 128,-1,22
 562 1442 562 1442 560 1437 c 2,23,-1
 546 1379 l 1,0,-1
EndSplineSet
EndChar

StartChar: afii57374
Encoding: 65552 -1 113
Width: 983
GlyphClass: 2
Flags: W
LayerCount: 2
Fore
SplineSet
879 0 m 2,0,1
 792 0 792 0 768 70 c 1,2,3
 710 0 710 0 590 0 c 2,4,-1
 -53 0 l 1,5,-1
 -53 250 l 1,6,-1
 195 250 l 1,7,8
 158 274 158 274 158 324 c 0,9,10
 158 332 158 332 159 338 c 128,-1,11
 160 344 160 344 162 350 c 2,12,-1
 195 510 l 2,13,14
 218 622 218 622 237 689.5 c 128,-1,15
 256 757 256 757 270 780 c 0,16,17
 317 858 317 858 461 858 c 2,18,-1
 621 858 l 2,19,20
 770 858 770 858 817 846 c 0,21,22
 928 817 928 817 928 711 c 0,23,24
 928 669 928 669 911 590 c 2,25,-1
 862 338 l 2,26,27
 856 303 856 303 856 295 c 0,28,29
 856 250 856 250 920 250 c 2,30,-1
 1014 250 l 1,31,-1
 1014 0 l 1,32,-1
 879 0 l 2,0,1
602 678 m 2,33,34
 517 678 517 678 485 606 c 0,35,36
 476 585 476 585 455 459 c 2,37,-1
 422 250 l 1,38,-1
 455 250 l 2,39,40
 531 250 531 250 553 272 c 0,41,42
 577 295 577 295 592 371 c 2,43,-1
 643 678 l 1,44,-1
 602 678 l 2,33,34
EndSplineSet
EndChar

StartChar: afii57375
Encoding: 1619 1619 114
Width: 352
GlyphClass: 2
Flags: W
LayerCount: 2
Fore
SplineSet
642 1368 m 1,0,1
 594 1337 594 1337 546 1322 c 128,-1,2
 498 1307 498 1307 450 1305 c 1,3,-1
 294 1323 l 2,4,5
 246 1326 246 1326 203 1316.5 c 128,-1,6
 160 1307 160 1307 122 1284 c 1,7,-1
 63 1380 l 1,8,9
 116 1412 116 1412 163 1427.5 c 128,-1,10
 210 1443 210 1443 253 1438 c 2,11,-1
 417 1419 l 2,12,13
 462 1414 462 1414 503.5 1423.5 c 128,-1,14
 545 1433 545 1433 585 1458 c 1,15,-1
 642 1368 l 1,16,-1
 642 1368 l 1,0,1
EndSplineSet
EndChar

StartChar: afii57391
Encoding: 59450 59450 115
Width: 1024
GlyphClass: 2
Flags: W
LayerCount: 2
Fore
SplineSet
1024 0 m 1,0,-1
 -70 0 l 1,1,-1
 -70 188 l 1,2,-1
 1024 188 l 1,3,-1
 1024 0 l 1,0,-1
EndSplineSet
EndChar

StartChar: afii57471
Encoding: 65553 -1 116
Width: 2040
Flags: W
LayerCount: 2
Fore
SplineSet
1917 0 m 2,0,1
 1854 0 1854 0 1851 61 c 1,2,3
 1818 0 1818 0 1761 0 c 2,4,-1
 457 0 l 2,5,6
 268 0 268 0 268 166 c 0,7,8
 268 191 268 191 271.5 220 c 128,-1,9
 275 249 275 249 283 281 c 2,10,-1
 385 768 l 1,11,-1
 694 856 l 1,12,-1
 596 336 l 2,13,14
 594 325 594 325 593 316 c 128,-1,15
 592 307 592 307 592 301 c 0,16,17
 592 250 592 250 653 250 c 2,18,-1
 1511 250 l 2,19,20
 1568 250 1568 250 1585 270 c 0,21,22
 1593 280 1593 280 1600.5 299.5 c 128,-1,23
 1608 319 1608 319 1614 348 c 2,24,-1
 1716 856 l 1,25,-1
 1993 768 l 1,26,-1
 1909 338 l 2,27,28
 1907 327 1907 327 1906 319 c 128,-1,29
 1905 311 1905 311 1905 303 c 0,30,31
 1905 250 1905 250 1964 250 c 2,32,-1
 2068 250 l 1,33,-1
 2068 0 l 1,34,-1
 1917 0 l 2,0,1
EndSplineSet
EndChar

StartChar: afii52258
Encoding: 65554 -1 117
Width: 1989
GlyphClass: 2
Flags: W
LayerCount: 2
Fore
SplineSet
1884 0 m 2,0,1
 1798 0 1798 0 1774 70 c 1,2,3
 1716 0 1716 0 1595 0 c 2,4,-1
 416 0 l 2,5,6
 233 0 233 0 233 172 c 0,7,8
 233 207 233 207 247 285.5 c 128,-1,9
 261 364 261 364 287 485 c 2,10,-1
 346 768 l 1,11,-1
 655 856 l 1,12,-1
 555 338 l 2,13,14
 553 324 553 324 552 314.5 c 128,-1,15
 551 305 551 305 551 297 c 0,16,17
 551 250 551 250 614 250 c 2,18,-1
 1198 250 l 2,19,20
 1159 250 1159 250 1159 303 c 0,21,22
 1159 323 1159 323 1165 350 c 2,23,-1
 1198 510 l 2,24,25
 1245 736 1245 736 1276 780 c 0,26,27
 1323 858 1323 858 1466 858 c 2,28,-1
 1626 858 l 2,29,30
 1776 858 1776 858 1823 846 c 0,31,32
 1931 817 1931 817 1931 711 c 0,33,34
 1931 689 1931 689 1928 658.5 c 128,-1,35
 1925 628 1925 628 1917 590 c 2,36,-1
 1868 338 l 2,37,38
 1862 303 1862 303 1862 295 c 0,39,40
 1862 250 1862 250 1923 250 c 2,41,-1
 2017 250 l 1,42,-1
 2017 0 l 1,43,-1
 1884 0 l 2,0,1
1608 678 m 2,44,45
 1518 678 1518 678 1491 610 c 0,46,47
 1486 601 1486 601 1478.5 563 c 128,-1,48
 1471 525 1471 525 1460 459 c 2,49,-1
 1425 250 l 1,50,-1
 1460 250 l 2,51,52
 1498 250 1498 250 1521.5 254.5 c 128,-1,53
 1545 259 1545 259 1559.5 272.5 c 128,-1,54
 1574 286 1574 286 1581.5 309.5 c 128,-1,55
 1589 333 1589 333 1595 371 c 2,56,-1
 1649 678 l 1,57,-1
 1608 678 l 2,44,45
EndSplineSet
EndChar

StartChar: afii62889
Encoding: 65555 -1 123
Width: 1587
Flags: W
LayerCount: 2
Fore
SplineSet
1425 0 m 1,0,-1
 1409 -78 l 2,1,2
 1356 -346 1356 -346 1022 -346 c 2,3,-1
 426 -346 l 2,4,5
 238 -346 238 -346 238 -170 c 0,6,7
 238 -144 238 -144 242 -118 c 128,-1,8
 246 -92 246 -92 254 -66 c 2,9,-1
 442 856 l 1,10,-1
 715 754 l 1,11,-1
 565 -6 l 2,12,13
 563 -17 563 -17 562 -24.5 c 128,-1,14
 561 -32 561 -32 561 -37 c 0,15,16
 561 -94 561 -94 616 -94 c 2,17,-1
 930 -94 l 2,18,19
 982 -94 982 -94 1017 -92.5 c 128,-1,20
 1052 -91 1052 -91 1069 -86 c 0,21,22
 1144 -65 1144 -65 1159 0 c 1,23,24
 1045 -2 1045 -2 968.5 4.5 c 128,-1,25
 892 11 892 11 854 25 c 0,26,27
 768 58 768 58 768 164 c 0,28,29
 768 186 768 186 770.5 211.5 c 128,-1,30
 773 237 773 237 778 266 c 2,31,-1
 823 510 l 2,32,33
 843 619 843 619 861.5 687.5 c 128,-1,34
 880 756 880 756 897 782 c 0,35,36
 945 858 945 858 1092 858 c 2,37,-1
 1251 858 l 2,38,39
 1401 858 1401 858 1448 846 c 0,40,41
 1556 817 1556 817 1556 713 c 0,42,43
 1556 690 1556 690 1553 659 c 128,-1,44
 1550 628 1550 628 1542 590 c 2,45,-1
 1475 250 l 1,46,-1
 1618 250 l 1,47,-1
 1618 0 l 1,48,-1
 1425 0 l 1,0,-1
1233 678 m 2,49,50
 1148 678 1148 678 1116 606 c 0,51,52
 1108 587 1108 587 1085 459 c 2,53,-1
 1051 250 l 1,54,-1
 1200 250 l 1,55,-1
 1274 678 l 1,56,-1
 1233 678 l 2,49,50
EndSplineSet
EndChar

StartChar: afii62887
Encoding: 65556 -1 124
Width: 1825
Flags: W
LayerCount: 2
Fore
SplineSet
1886 246 m 2,0,1
 1865 144 1865 144 1800 76 c 0,2,3
 1730 0 1730 0 1632 0 c 2,4,-1
 453 0 l 2,5,6
 266 0 266 0 266 166 c 0,7,8
 266 191 266 191 269.5 220 c 128,-1,9
 273 249 273 249 281 281 c 2,10,-1
 383 768 l 1,11,-1
 692 856 l 1,12,-1
 594 336 l 2,13,14
 592 325 592 325 591 316 c 128,-1,15
 590 307 590 307 590 301 c 0,16,17
 590 250 590 250 651 250 c 2,18,-1
 1509 250 l 2,19,20
 1564 250 1564 250 1581 270 c 0,21,22
 1589 280 1589 280 1596.5 299.5 c 128,-1,23
 1604 319 1604 319 1610 348 c 2,24,-1
 1712 856 l 1,25,-1
 1991 768 l 1,26,-1
 1886 246 l 2,0,1
EndSplineSet
EndChar

StartChar: afii62888
Encoding: 1697 1697 125
Width: 1792
GlyphClass: 2
Flags: W
LayerCount: 2
Fore
SplineSet
1849 246 m 2,0,1
 1828 131 1828 131 1796 86 c 0,2,3
 1767 43 1767 43 1717.5 21.5 c 128,-1,4
 1668 0 1668 0 1595 0 c 2,5,-1
 416 0 l 2,6,7
 233 0 233 0 233 172 c 0,8,9
 233 207 233 207 247 285.5 c 128,-1,10
 261 364 261 364 287 485 c 2,11,-1
 346 768 l 1,12,-1
 655 856 l 1,13,-1
 555 338 l 2,14,15
 553 324 553 324 552 314.5 c 128,-1,16
 551 305 551 305 551 297 c 0,17,18
 551 250 551 250 614 250 c 2,19,-1
 1198 250 l 2,20,21
 1159 250 1159 250 1159 303 c 0,22,23
 1159 323 1159 323 1165 350 c 2,24,-1
 1198 510 l 2,25,26
 1245 736 1245 736 1276 780 c 0,27,28
 1323 858 1323 858 1466 858 c 2,29,-1
 1626 858 l 2,30,31
 1776 858 1776 858 1823 846 c 0,32,33
 1931 817 1931 817 1931 713 c 0,34,35
 1931 690 1931 690 1928 659 c 128,-1,36
 1925 628 1925 628 1917 590 c 2,37,-1
 1849 246 l 2,0,1
1608 678 m 2,38,39
 1518 678 1518 678 1491 610 c 0,40,41
 1486 601 1486 601 1478.5 563 c 128,-1,42
 1471 525 1471 525 1460 459 c 2,43,-1
 1425 250 l 1,44,-1
 1460 250 l 2,45,46
 1498 250 1498 250 1521.5 254.5 c 128,-1,47
 1545 259 1545 259 1559.5 272.5 c 128,-1,48
 1574 286 1574 286 1581.5 309.5 c 128,-1,49
 1589 333 1589 333 1595 371 c 2,50,-1
 1649 678 l 1,51,-1
 1608 678 l 2,38,39
EndSplineSet
Substitution2: "'medi' Medial Forms in Arabic lookup 3 subtable" afii57374
Substitution2: "'fina' Terminal Forms in Arabic lookup 2 subtable" afii52258
Substitution2: "'init' Initial Forms in Arabic lookup 1 subtable" afii57459
EndChar

StartChar: afii57567
Encoding: 1705 1705 132
Width: 1729
GlyphClass: 2
Flags: W
AnchorPoint: "Anchor-3" 960 -360 basechar 0
AnchorPoint: "Anchor-2" 855 1290 basechar 0
LayerCount: 2
Fore
SplineSet
1901 946 m 1,0,-1
 1604 946 l 1,1,2
 1692 814 1692 814 1763 602 c 0,3,4
 1841 378 1841 378 1841 231 c 0,5,6
 1841 163 1841 163 1804 88 c 0,7,8
 1762 0 1762 0 1700 0 c 2,9,-1
 416 0 l 2,10,11
 229 0 229 0 229 178 c 0,12,13
 229 197 229 197 232.5 223 c 128,-1,14
 236 249 236 249 244 281 c 2,15,-1
 346 768 l 1,16,-1
 655 856 l 1,17,-1
 555 338 l 2,18,19
 553 327 553 327 553 318 c 128,-1,20
 553 309 553 309 553 303 c 0,21,22
 553 250 553 250 614 250 c 2,23,-1
 1442 250 l 2,24,25
 1534 250 1534 250 1534 305 c 0,26,27
 1534 311 1534 311 1533 319 c 128,-1,28
 1532 327 1532 327 1530 338 c 0,29,30
 1495 496 1495 496 1446 606 c 0,31,32
 1406 701 1406 701 1262 944 c 1,33,34
 1292 1109 1292 1109 1325 1149 c 0,35,36
 1351 1178 1351 1178 1419 1178 c 2,37,-1
 1958 1178 l 1,38,-1
 1901 946 l 1,0,-1
EndSplineSet
Substitution2: "'medi' Medial Forms in Arabic lookup 3 subtable" afii52306
Substitution2: "'fina' Terminal Forms in Arabic lookup 2 subtable" afii62964
Substitution2: "'init' Initial Forms in Arabic lookup 1 subtable" afii52305
EndChar

StartChar: afii62964
Encoding: 64399 64399 133
Width: 2046
GlyphClass: 2
Flags: W
AnchorPoint: "Anchor-3" 975 -405 basechar 0
AnchorPoint: "Anchor-2" 930 1275 basechar 0
LayerCount: 2
Fore
SplineSet
1851 0 m 2,0,1
 1792 0 1792 0 1786 61 c 1,2,3
 1749 0 1749 0 1700 0 c 2,4,-1
 416 0 l 2,5,6
 229 0 229 0 229 178 c 0,7,8
 229 197 229 197 232.5 223 c 128,-1,9
 236 249 236 249 244 281 c 2,10,-1
 346 768 l 1,11,-1
 655 856 l 1,12,-1
 555 338 l 2,13,14
 553 327 553 327 553 318 c 128,-1,15
 553 309 553 309 553 303 c 0,16,17
 553 250 553 250 614 250 c 2,18,-1
 1442 250 l 2,19,20
 1534 250 1534 250 1534 305 c 0,21,22
 1534 311 1534 311 1533 319 c 128,-1,23
 1532 327 1532 327 1530 338 c 0,24,25
 1495 496 1495 496 1446 606 c 0,26,27
 1406 701 1406 701 1262 944 c 1,28,29
 1292 1109 1292 1109 1325 1149 c 0,30,31
 1351 1178 1351 1178 1419 1178 c 2,32,-1
 1958 1178 l 1,33,-1
 1901 946 l 1,34,-1
 1604 946 l 1,35,36
 1642 889 1642 889 1678 813 c 128,-1,37
 1714 737 1714 737 1749 643 c 256,38,39
 1784 549 1784 549 1806 467 c 128,-1,40
 1828 385 1828 385 1837 315 c 0,41,42
 1837 309 1837 309 1838 298 c 128,-1,43
 1839 287 1839 287 1841 270 c 1,44,45
 1850 252 1850 252 1898 252 c 2,46,-1
 2077 252 l 1,47,-1
 2077 0 l 1,48,-1
 1851 0 l 2,0,1
EndSplineSet
EndChar

StartChar: afii52305
Encoding: 64400 64400 134
Width: 586
GlyphClass: 2
Flags: W
AnchorPoint: "Anchor-3" 315 -435 basechar 0
AnchorPoint: "Anchor-2" 450 1395 basechar 0
LayerCount: 2
Fore
SplineSet
762 946 m 1,0,-1
 446 946 l 1,1,2
 694 555 694 555 694 213 c 0,3,4
 694 144 694 144 657 80 c 0,5,6
 615 0 615 0 553 0 c 2,7,-1
 -53 0 l 1,8,-1
 -53 250 l 1,9,-1
 295 250 l 2,10,11
 387 250 387 250 387 293 c 0,12,13
 387 298 387 298 387 302.5 c 128,-1,14
 387 307 387 307 385 315 c 0,15,16
 368 396 368 396 346.5 466 c 128,-1,17
 325 536 325 536 299 596 c 0,18,19
 271 659 271 659 225.5 746 c 128,-1,20
 180 833 180 833 115 944 c 1,21,22
 129 1006 129 1006 138.5 1044 c 128,-1,23
 148 1082 148 1082 156 1098 c 0,24,25
 195 1178 195 1178 274 1178 c 2,26,-1
 811 1178 l 1,27,-1
 762 946 l 1,0,-1
EndSplineSet
EndChar

StartChar: afii52306
Encoding: 64401 64401 135
Width: 864
GlyphClass: 2
Flags: W
AnchorPoint: "Anchor-3" 345 -420 basechar 0
AnchorPoint: "Anchor-2" 480 1350 basechar 0
LayerCount: 2
Fore
SplineSet
692 0 m 2,0,1
 630 0 630 0 627 61 c 1,2,3
 593 0 593 0 537 0 c 2,4,-1
 -53 0 l 1,5,-1
 -53 250 l 1,6,-1
 293 250 l 2,7,8
 385 250 385 250 385 289 c 0,9,10
 385 295 385 295 385 301 c 128,-1,11
 385 307 385 307 383 315 c 0,12,13
 364 400 364 400 338 481.5 c 128,-1,14
 312 563 312 563 276 641 c 0,15,16
 252 695 252 695 211 770 c 128,-1,17
 170 845 170 845 113 944 c 1,18,19
 128 1026 128 1026 144.5 1076.5 c 128,-1,20
 161 1127 161 1127 178 1149 c 0,21,22
 191 1163 191 1163 214 1170.5 c 128,-1,23
 237 1178 237 1178 272 1178 c 2,24,-1
 809 1178 l 1,25,-1
 762 946 l 1,26,-1
 444 946 l 1,27,28
 532 809 532 809 590.5 652 c 128,-1,29
 649 495 649 495 680 315 c 0,30,31
 689 250 689 250 739 250 c 2,32,-1
 918 250 l 1,33,-1
 918 0 l 1,34,-1
 692 0 l 2,0,1
EndSplineSet
EndChar

StartChar: afii57509
Encoding: 1711 1711 136
Width: 1743
GlyphClass: 2
Flags: W
AnchorPoint: "Anchor-3" 930 -480 basechar 0
AnchorPoint: "Anchor-2" 915 1275 basechar 0
LayerCount: 2
Fore
SplineSet
1942 1239 m 1,0,-1
 1346 1239 l 1,1,-1
 1374 1309 l 1,2,-1
 1972 1309 l 1,3,-1
 1942 1239 l 1,0,-1
1901 946 m 1,4,-1
 1604 946 l 1,5,6
 1692 814 1692 814 1763 602 c 0,7,8
 1841 378 1841 378 1841 231 c 0,9,10
 1841 163 1841 163 1804 88 c 0,11,12
 1762 0 1762 0 1700 0 c 2,13,-1
 416 0 l 2,14,15
 229 0 229 0 229 178 c 0,16,17
 229 197 229 197 232.5 223 c 128,-1,18
 236 249 236 249 244 281 c 2,19,-1
 346 768 l 1,20,-1
 655 856 l 1,21,-1
 555 338 l 2,22,23
 553 327 553 327 553 318 c 128,-1,24
 553 309 553 309 553 303 c 0,25,26
 553 250 553 250 614 250 c 2,27,-1
 1442 250 l 2,28,29
 1534 250 1534 250 1534 305 c 0,30,31
 1534 311 1534 311 1533 319 c 128,-1,32
 1532 327 1532 327 1530 338 c 0,33,34
 1495 496 1495 496 1446 606 c 0,35,36
 1406 701 1406 701 1262 944 c 1,37,38
 1292 1109 1292 1109 1325 1149 c 0,39,40
 1351 1178 1351 1178 1419 1178 c 2,41,-1
 1958 1178 l 1,42,-1
 1901 946 l 1,4,-1
EndSplineSet
Substitution2: "'medi' Medial Forms in Arabic lookup 3 subtable" afii62966
Substitution2: "'fina' Terminal Forms in Arabic lookup 2 subtable" afii62967
Substitution2: "'init' Initial Forms in Arabic lookup 1 subtable" afii62965
EndChar

StartChar: afii62967
Encoding: 64403 64403 137
Width: 2042
GlyphClass: 2
Flags: W
AnchorPoint: "Anchor-3" 870 -495 basechar 0
AnchorPoint: "Anchor-2" 960 1455 basechar 0
LayerCount: 2
Fore
SplineSet
1942 1239 m 1,0,-1
 1346 1239 l 1,1,-1
 1374 1309 l 1,2,-1
 1972 1309 l 1,3,-1
 1942 1239 l 1,0,-1
1851 0 m 2,4,5
 1792 0 1792 0 1786 61 c 1,6,7
 1749 0 1749 0 1700 0 c 2,8,-1
 416 0 l 2,9,10
 229 0 229 0 229 178 c 0,11,12
 229 197 229 197 232.5 223 c 128,-1,13
 236 249 236 249 244 281 c 2,14,-1
 346 768 l 1,15,-1
 655 856 l 1,16,-1
 555 338 l 2,17,18
 553 327 553 327 553 318 c 128,-1,19
 553 309 553 309 553 303 c 0,20,21
 553 250 553 250 614 250 c 2,22,-1
 1442 250 l 2,23,24
 1534 250 1534 250 1534 305 c 0,25,26
 1534 311 1534 311 1533 319 c 128,-1,27
 1532 327 1532 327 1530 338 c 0,28,29
 1495 496 1495 496 1446 606 c 0,30,31
 1406 701 1406 701 1262 944 c 1,32,33
 1292 1109 1292 1109 1325 1149 c 0,34,35
 1351 1178 1351 1178 1419 1178 c 2,36,-1
 1958 1178 l 1,37,-1
 1901 946 l 1,38,-1
 1604 946 l 1,39,40
 1642 889 1642 889 1678 813 c 128,-1,41
 1714 737 1714 737 1749 643 c 256,42,43
 1784 549 1784 549 1806 467 c 128,-1,44
 1828 385 1828 385 1837 315 c 0,45,46
 1837 309 1837 309 1838 298 c 128,-1,47
 1839 287 1839 287 1841 270 c 1,48,49
 1850 252 1850 252 1898 252 c 2,50,-1
 2077 252 l 1,51,-1
 2077 0 l 1,52,-1
 1851 0 l 2,4,5
EndSplineSet
EndChar

StartChar: afii62965
Encoding: 64404 64404 138
Width: 588
GlyphClass: 2
Flags: W
AnchorPoint: "Anchor-3" 240 -420 basechar 0
AnchorPoint: "Anchor-2" 435 1530 basechar 0
LayerCount: 2
Fore
SplineSet
793 1239 m 1,0,-1
 195 1239 l 1,1,-1
 223 1309 l 1,2,-1
 823 1309 l 1,3,-1
 793 1239 l 1,0,-1
762 946 m 1,4,-1
 446 946 l 1,5,6
 694 555 694 555 694 213 c 0,7,8
 694 144 694 144 657 80 c 0,9,10
 615 0 615 0 553 0 c 2,11,-1
 -53 0 l 1,12,-1
 -53 250 l 1,13,-1
 295 250 l 2,14,15
 387 250 387 250 387 293 c 0,16,17
 387 298 387 298 387 302.5 c 128,-1,18
 387 307 387 307 385 315 c 0,19,20
 368 396 368 396 346.5 466 c 128,-1,21
 325 536 325 536 299 596 c 0,22,23
 271 659 271 659 225.5 746 c 128,-1,24
 180 833 180 833 115 944 c 1,25,26
 129 1006 129 1006 138.5 1044 c 128,-1,27
 148 1082 148 1082 156 1098 c 0,28,29
 195 1178 195 1178 274 1178 c 2,30,-1
 811 1178 l 1,31,-1
 762 946 l 1,4,-1
EndSplineSet
EndChar

StartChar: afii62966
Encoding: 64405 64405 139
Width: 881
GlyphClass: 2
Flags: W
AnchorPoint: "Anchor-3" 390 -450 basechar 0
AnchorPoint: "Anchor-2" 525 1515 basechar 0
LayerCount: 2
Fore
SplineSet
793 1239 m 1,0,-1
 195 1239 l 1,1,-1
 223 1309 l 1,2,-1
 823 1309 l 1,3,-1
 793 1239 l 1,0,-1
692 0 m 2,4,5
 630 0 630 0 627 61 c 1,6,7
 593 0 593 0 537 0 c 2,8,-1
 -53 0 l 1,9,-1
 -53 250 l 1,10,-1
 293 250 l 2,11,12
 385 250 385 250 385 289 c 0,13,14
 385 295 385 295 385 301 c 128,-1,15
 385 307 385 307 383 315 c 0,16,17
 364 400 364 400 338 481.5 c 128,-1,18
 312 563 312 563 276 641 c 0,19,20
 252 695 252 695 211 770 c 128,-1,21
 170 845 170 845 113 944 c 1,22,23
 128 1026 128 1026 144.5 1076.5 c 128,-1,24
 161 1127 161 1127 178 1149 c 0,25,26
 191 1163 191 1163 214 1170.5 c 128,-1,27
 237 1178 237 1178 272 1178 c 2,28,-1
 809 1178 l 1,29,-1
 762 946 l 1,30,-1
 444 946 l 1,31,32
 532 809 532 809 590.5 652 c 128,-1,33
 649 495 649 495 680 315 c 0,34,35
 689 250 689 250 739 250 c 2,36,-1
 918 250 l 1,37,-1
 918 0 l 1,38,-1
 692 0 l 2,4,5
EndSplineSet
EndChar

StartChar: afii57555
Encoding: 1740 1740 140
Width: 1364
GlyphClass: 2
Flags: W
AnchorPoint: "Anchor-3" 705 -750 basechar 0
AnchorPoint: "Anchor-2" 885 1140 basechar 0
LayerCount: 2
Fore
SplineSet
1520 604 m 1,0,1
 1419 604 1419 604 1350 601.5 c 128,-1,2
 1281 599 1281 599 1243 594 c 0,3,4
 1157 579 1157 579 1122 532 c 0,5,6
 1097 501 1097 501 1063 385 c 0,7,8
 1054 353 1054 353 1049 330 c 128,-1,9
 1044 307 1044 307 1044 293 c 0,10,11
 1044 250 1044 250 1110 250 c 2,12,-1
 1421 250 l 1,13,-1
 1364 -23 l 2,14,15
 1321 -226 1321 -226 1268 -279 c 0,16,17
 1205 -340 1205 -340 1008 -340 c 2,18,-1
 424 -340 l 2,19,20
 233 -340 233 -340 233 -164 c 0,21,22
 233 -138 233 -138 237.5 -111.5 c 128,-1,23
 242 -85 242 -85 250 -59 c 2,24,-1
 424 811 l 1,25,-1
 711 762 l 1,26,-1
 561 -2 l 2,27,28
 555 -40 555 -40 555 -47 c 0,29,30
 555 -88 555 -88 614 -88 c 2,31,-1
 934 -88 l 2,32,33
 1073 -88 1073 -88 1067 0 c 1,34,-1
 903 0 l 2,35,36
 737 0 737 0 737 145 c 0,37,38
 737 162 737 162 738.5 179 c 128,-1,39
 740 196 740 196 745 213 c 0,40,41
 838 612 838 612 934 723 c 0,42,43
 1050 854 1050 854 1368 854 c 2,44,-1
 1579 854 l 1,45,-1
 1520 604 l 1,0,1
EndSplineSet
Substitution2: "'medi' Medial Forms in Arabic lookup 3 subtable" afii62832
Substitution2: "'fina' Terminal Forms in Arabic lookup 2 subtable" afii52364
Substitution2: "'init' Initial Forms in Arabic lookup 1 subtable" uniFBFE
EndChar

StartChar: afii52364
Encoding: 64509 64509 141
Width: 1464
GlyphClass: 2
Flags: W
AnchorPoint: "Anchor-3" 675 -720 basechar 0
AnchorPoint: "Anchor-2" 915 1080 basechar 0
LayerCount: 2
Fore
SplineSet
1358 0 m 1,0,-1
 1319 -143 l 2,1,2
 1302 -203 1302 -203 1280.5 -242.5 c 128,-1,3
 1259 -282 1259 -282 1231 -299 c 0,4,5
 1167 -342 1167 -342 987 -342 c 2,6,-1
 408 -342 l 2,7,8
 221 -342 221 -342 221 -166 c 0,9,10
 221 -120 221 -120 233 -61 c 2,11,-1
 428 856 l 1,12,-1
 700 766 l 1,13,-1
 543 0 l 2,14,15
 541 -11 541 -11 540 -20 c 128,-1,16
 539 -29 539 -29 539 -37 c 0,17,18
 539 -86 539 -86 596 -86 c 2,19,-1
 913 -86 l 2,20,21
 1055 -86 1055 -86 1049 0 c 1,22,-1
 885 0 l 2,23,24
 715 0 715 0 715 135 c 0,25,26
 715 152 715 152 717.5 171.5 c 128,-1,27
 720 191 720 191 725 213 c 2,28,-1
 733 250 l 1,29,-1
 1493 250 l 1,30,-1
 1493 0 l 1,31,-1
 1358 0 l 1,0,-1
EndSplineSet
EndChar

StartChar: afii62945
Encoding: 65557 -1 147
Width: 1944
GlyphClass: 3
Flags: W
LayerCount: 2
Fore
SplineSet
2003 248 m 2,0,1
 1982 137 1982 137 1944 86 c 0,2,3
 1879 0 1879 0 1735 0 c 2,4,-1
 1483 0 l 2,5,6
 1421 0 1421 0 1372 61 c 1,7,8
 1342 0 1342 0 1282 0 c 2,9,-1
 911 0 l 2,10,11
 653 0 653 0 653 219 c 0,12,13
 653 239 653 239 655 260 c 128,-1,14
 657 281 657 281 662 303 c 2,15,-1
 729 678 l 1,16,-1
 702 678 l 2,17,18
 631 678 631 678 602 655 c 0,19,20
 587 643 587 643 575 615.5 c 128,-1,21
 563 588 563 588 555 543 c 2,22,-1
 504 250 l 1,23,-1
 625 250 l 1,24,-1
 569 0 l 1,25,-1
 403 0 l 2,26,27
 357 0 357 0 323.5 6.5 c 128,-1,28
 290 13 290 13 270 27 c 0,29,30
 217 61 217 61 217 147 c 0,31,32
 217 190 217 190 229 252 c 2,33,-1
 301 621 l 2,34,35
 347 856 347 856 510 856 c 2,36,-1
 756 856 l 2,37,38
 816 856 816 856 859 850.5 c 128,-1,39
 902 845 902 845 928 834 c 0,40,41
 1006 799 1006 799 1006 696 c 0,42,43
 1006 675 1006 675 1002.5 649 c 128,-1,44
 999 623 999 623 993 592 c 2,45,-1
 950 362 l 2,46,47
 948 351 948 351 947 342.5 c 128,-1,48
 946 334 946 334 946 326 c 0,49,50
 946 250 946 250 1028 250 c 2,51,-1
 1077 250 l 2,52,53
 1141 250 1141 250 1155 270 c 0,54,55
 1163 278 1163 278 1180 348 c 2,56,-1
 1298 899 l 1,57,-1
 1589 899 l 1,58,-1
 1475 336 l 2,59,60
 1473 328 1473 328 1471.5 320.5 c 128,-1,61
 1470 313 1470 313 1470 307 c 0,62,63
 1470 250 1470 250 1530 250 c 2,64,-1
 1616 250 l 2,65,66
 1675 250 1675 250 1692 268 c 0,67,68
 1704 285 1704 285 1716 348 c 2,69,-1
 1876 1171 l 1,70,-1
 2167 1171 l 1,71,-1
 2003 248 l 2,0,1
EndSplineSet
EndChar

StartChar: afii64184
Encoding: 65010 65010 148
Width: 1944
GlyphClass: 3
Flags: W
AnchorPoint: "Anchor-1" 1740 -390 baselig 0
AnchorPoint: "Anchor-0" 2055 1260 baselig 0
AnchorPoint: "Anchor-1" 1200 -390 baselig 1
AnchorPoint: "Anchor-0" 1500 1005 baselig 1
AnchorPoint: "Anchor-1" 420 -405 baselig 2
AnchorPoint: "Anchor-0" 720 1035 baselig 2
LayerCount: 2
Fore
SplineSet
1588 1476 m 1,0,1
 1564 1401 1564 1401 1552.5 1338 c 128,-1,2
 1541 1275 1541 1275 1543 1223 c 1,3,-1
 1483 1223 l 1,4,5
 1481 1275 1481 1275 1490 1341 c 128,-1,6
 1499 1407 1499 1407 1522 1489 c 1,7,-1
 1588 1476 l 1,0,1
1669 1077 m 2,8,9
 1668 1048 1668 1048 1657.5 1028.5 c 128,-1,10
 1647 1009 1647 1009 1631 998 c 128,-1,11
 1615 987 1615 987 1595 982.5 c 128,-1,12
 1575 978 1575 978 1554 978 c 0,13,14
 1525 978 1525 978 1505 992 c 128,-1,15
 1485 1006 1485 1006 1472 1023 c 1,16,17
 1466 1012 1466 1012 1456.5 1004 c 128,-1,18
 1447 996 1447 996 1436.5 991.5 c 128,-1,19
 1426 987 1426 987 1415 985 c 128,-1,20
 1404 983 1404 983 1396 983 c 0,21,22
 1374 983 1374 983 1355.5 989.5 c 128,-1,23
 1337 996 1337 996 1325 1009.5 c 128,-1,24
 1313 1023 1313 1023 1308 1044.5 c 128,-1,25
 1303 1066 1303 1066 1309 1097 c 2,26,-1
 1334 1205 l 1,27,-1
 1397 1183 l 1,28,-1
 1374 1080 l 1,29,30
 1374 1049 1374 1049 1405 1049 c 0,31,32
 1422 1049 1422 1049 1432 1054.5 c 128,-1,33
 1442 1060 1442 1060 1448 1078 c 2,34,-1
 1468 1179 l 1,35,36
 1475 1177 1475 1177 1493.5 1175.5 c 128,-1,37
 1512 1174 1512 1174 1537 1172 c 1,38,39
 1522 1092 1522 1092 1522 1084 c 0,40,41
 1521 1070 1521 1070 1527.5 1057.5 c 128,-1,42
 1534 1045 1534 1045 1554 1045 c 0,43,44
 1577 1045 1577 1045 1591 1057 c 128,-1,45
 1605 1069 1605 1069 1606 1101 c 2,46,-1
 1604 1174 l 1,47,-1
 1670 1189 l 1,48,-1
 1669 1077 l 2,8,9
2003 248 m 2,49,50
 1982 137 1982 137 1944 86 c 0,51,52
 1879 0 1879 0 1735 0 c 2,53,-1
 1483 0 l 2,54,55
 1421 0 1421 0 1372 61 c 1,56,57
 1342 0 1342 0 1282 0 c 2,58,-1
 911 0 l 2,59,60
 653 0 653 0 653 219 c 0,61,62
 653 239 653 239 655 260 c 128,-1,63
 657 281 657 281 662 303 c 2,64,-1
 729 678 l 1,65,-1
 702 678 l 2,66,67
 631 678 631 678 602 655 c 0,68,69
 587 643 587 643 575 615.5 c 128,-1,70
 563 588 563 588 555 543 c 2,71,-1
 504 250 l 1,72,-1
 625 250 l 1,73,-1
 569 0 l 1,74,-1
 403 0 l 2,75,76
 357 0 357 0 323.5 6.5 c 128,-1,77
 290 13 290 13 270 27 c 0,78,79
 217 61 217 61 217 147 c 0,80,81
 217 190 217 190 229 252 c 2,82,-1
 301 621 l 2,83,84
 347 856 347 856 510 856 c 2,85,-1
 756 856 l 2,86,87
 816 856 816 856 859 850.5 c 128,-1,88
 902 845 902 845 928 834 c 0,89,90
 1006 799 1006 799 1006 696 c 0,91,92
 1006 675 1006 675 1002.5 649 c 128,-1,93
 999 623 999 623 993 592 c 2,94,-1
 950 362 l 2,95,96
 948 351 948 351 947 342.5 c 128,-1,97
 946 334 946 334 946 326 c 0,98,99
 946 250 946 250 1028 250 c 2,100,-1
 1077 250 l 2,101,102
 1141 250 1141 250 1155 270 c 0,103,104
 1163 278 1163 278 1180 348 c 2,105,-1
 1298 899 l 1,106,-1
 1589 899 l 1,107,-1
 1475 336 l 2,108,109
 1473 328 1473 328 1471.5 320.5 c 128,-1,110
 1470 313 1470 313 1470 307 c 0,111,112
 1470 250 1470 250 1530 250 c 2,113,-1
 1616 250 l 2,114,115
 1675 250 1675 250 1692 268 c 0,116,117
 1704 285 1704 285 1716 348 c 2,118,-1
 1876 1171 l 1,119,-1
 2167 1171 l 1,120,-1
 2003 248 l 2,49,50
EndSplineSet
Ligature2: "'rlig' Required Ligatures in Arabic lookup 5 subtable" afii62817 afii62818 uniFC63 afii62828
Ligature2: "'rlig' Required Ligatures in Arabic lookup 5 subtable" afii62817 afii62818 afii57457 uni0670 afii62828
EndChar

StartChar: afii57415.001
Encoding: 1575 1575 162
Width: 524
GlyphClass: 2
Flags: W
AnchorPoint: "Anchor-3" 315 -330 basechar 0
AnchorPoint: "Anchor-2" 660 1335 basechar 0
LayerCount: 2
Fore
SplineSet
524 0 m 1,0,-1
 231 0 l 1,1,-1
 469 1178 l 1,2,-1
 762 1178 l 1,3,-1
 524 0 l 1,0,-1
EndSplineSet
Substitution2: "'fina' Terminal Forms in Arabic lookup 2 subtable" afii62760
EndChar

StartChar: afii62760.001
Encoding: 65558 -1 163
Width: 780
GlyphClass: 2
Flags: W
LayerCount: 2
Fore
SplineSet
457 0 m 2,0,1
 268 0 268 0 268 176 c 0,2,3
 268 227 268 227 285 281 c 1,4,-1
 469 1176 l 1,5,-1
 762 1176 l 1,6,-1
 596 338 l 2,7,8
 594 327 594 327 593 320.5 c 128,-1,9
 592 314 592 314 592 309 c 0,10,11
 592 252 592 252 647 252 c 2,12,-1
 811 252 l 1,13,-1
 811 0 l 1,14,-1
 457 0 l 2,0,1
EndSplineSet
EndChar

StartChar: afii57421
Encoding: 1581 1581 182
Width: 952
GlyphClass: 2
Flags: W
AnchorPoint: "Anchor-3" 450 -1080 basechar 0
AnchorPoint: "Anchor-2" 735 1095 basechar 0
LayerCount: 2
Fore
SplineSet
1067 641 m 0,0,1
 1047 535 1047 535 1001 437 c 128,-1,2
 955 339 955 339 881 248 c 2,3,-1
 567 -135 l 2,4,5
 538 -170 538 -170 495 -228.5 c 128,-1,6
 452 -287 452 -287 395 -369 c 0,7,8
 387 -382 387 -382 387 -399 c 0,9,10
 387 -469 387 -469 487 -469 c 2,11,-1
 913 -469 l 1,12,-1
 868 -700 l 1,13,-1
 342 -700 l 2,14,15
 123 -700 123 -700 92 -502 c 0,16,17
 90 -496 90 -496 90 -488.5 c 128,-1,18
 90 -481 90 -481 90 -473 c 0,19,20
 90 -298 90 -298 233 -133 c 0,21,22
 349 1 349 1 475.5 149.5 c 128,-1,23
 602 298 602 298 741 463 c 0,24,25
 770 497 770 497 770 547 c 0,26,27
 770 604 770 604 705 604 c 2,28,-1
 651 604 l 2,29,30
 581 604 581 604 549 578 c 0,31,32
 535 567 535 567 520.5 545 c 128,-1,33
 506 523 506 523 489 487 c 1,34,-1
 213 487 l 1,35,36
 251 577 251 577 277.5 633.5 c 128,-1,37
 304 690 304 690 319 715 c 0,38,39
 409 856 409 856 526 856 c 2,40,-1
 909 856 l 2,41,42
 1073 856 1073 856 1073 711 c 0,43,44
 1073 681 1073 681 1067 641 c 0,0,1
EndSplineSet
Substitution2: "'medi' Medial Forms in Arabic lookup 3 subtable" afii62775
Substitution2: "'fina' Terminal Forms in Arabic lookup 2 subtable" afii62776
Substitution2: "'init' Initial Forms in Arabic lookup 1 subtable" afii62774
EndChar

StartChar: afii62776
Encoding: 65186 65186 183
Width: 1133
GlyphClass: 2
Flags: W
AnchorPoint: "Anchor-3" 465 -1140 basechar 0
AnchorPoint: "Anchor-2" 750 1200 basechar 0
LayerCount: 2
Fore
SplineSet
868 0 m 2,0,1
 797 0 797 0 739 61 c 1,2,-1
 543 -160 l 2,3,4
 373 -354 373 -354 373 -391 c 0,5,6
 373 -469 373 -469 463 -469 c 2,7,-1
 918 -469 l 1,8,-1
 860 -702 l 1,9,-1
 338 -702 l 2,10,11
 120 -702 120 -702 86 -504 c 0,12,13
 84 -498 84 -498 84 -490.5 c 128,-1,14
 84 -483 84 -483 84 -475 c 0,15,16
 84 -312 84 -312 229 -135 c 2,17,-1
 739 469 l 1,18,19
 768 513 768 513 768 553 c 0,20,21
 768 604 768 604 705 604 c 2,22,-1
 651 604 l 2,23,24
 573 604 573 604 543 573 c 0,25,26
 536 566 536 566 489 487 c 1,27,-1
 213 487 l 1,28,29
 244 574 244 574 271.5 634 c 128,-1,30
 299 694 299 694 322 729 c 0,31,32
 405 856 405 856 526 856 c 2,33,-1
 909 856 l 2,34,35
 1073 856 1073 856 1073 711 c 0,36,37
 1073 681 1073 681 1067 641 c 0,38,39
 1053 559 1053 559 1018.5 478.5 c 128,-1,40
 984 398 984 398 930 317 c 0,41,42
 915 296 915 296 915 281 c 0,43,44
 915 250 915 250 952 250 c 2,45,-1
 1161 250 l 1,46,-1
 1161 0 l 1,47,-1
 868 0 l 2,0,1
EndSplineSet
EndChar

StartChar: afii62774
Encoding: 65187 65187 184
Width: 846
GlyphClass: 2
Flags: W
AnchorPoint: "Anchor-3" 345 -405 basechar 0
AnchorPoint: "Anchor-2" 660 1095 basechar 0
LayerCount: 2
Fore
SplineSet
913 281 m 2,0,1
 874 118 874 118 764 55 c 0,2,3
 666 0 666 0 465 0 c 2,4,-1
 -33 0 l 1,5,-1
 -33 250 l 1,6,-1
 512 250 l 2,7,8
 636 250 636 250 657 362 c 1,9,-1
 696 479 l 2,10,11
 701 496 701 496 704 510 c 128,-1,12
 707 524 707 524 707 537 c 0,13,14
 707 606 707 606 633 606 c 2,15,-1
 528 606 l 2,16,17
 513 606 513 606 499.5 598 c 128,-1,18
 486 590 486 590 475 573 c 0,19,20
 469 564 469 564 458 542 c 128,-1,21
 447 520 447 520 430 485 c 1,22,-1
 156 485 l 1,23,-1
 233 715 l 1,24,25
 302 856 302 856 416 856 c 2,26,-1
 846 856 l 2,27,28
 880 856 880 856 909.5 841.5 c 128,-1,29
 939 827 939 827 961 802.5 c 128,-1,30
 983 778 983 778 995.5 746 c 128,-1,31
 1008 714 1008 714 1008 680 c 0,32,33
 1008 671 1008 671 1007 661.5 c 128,-1,34
 1006 652 1006 652 1004 641 c 2,35,-1
 913 281 l 2,0,1
EndSplineSet
EndChar

StartChar: afii62775
Encoding: 65188 65188 185
Width: 1034
GlyphClass: 2
Flags: W
AnchorPoint: "Anchor-3" 435 -375 basechar 0
AnchorPoint: "Anchor-2" 615 1140 basechar 0
LayerCount: 2
Fore
SplineSet
850 0 m 2,0,1
 783 0 783 0 737 61 c 1,2,3
 643 0 643 0 426 0 c 2,4,-1
 -33 0 l 1,5,-1
 -33 250 l 1,6,-1
 471 250 l 2,7,8
 595 250 595 250 616 362 c 1,9,-1
 655 479 l 2,10,11
 668 512 668 512 668 537 c 0,12,13
 668 606 668 606 592 606 c 2,14,-1
 487 606 l 2,15,16
 458 606 458 606 434 573 c 0,17,18
 423 556 423 556 391 485 c 1,19,-1
 115 485 l 1,20,-1
 195 715 l 1,21,22
 259 856 259 856 375 856 c 2,23,-1
 805 856 l 2,24,25
 839 856 839 856 868.5 841.5 c 128,-1,26
 898 827 898 827 920.5 803 c 128,-1,27
 943 779 943 779 956 747.5 c 128,-1,28
 969 716 969 716 969 682 c 0,29,30
 969 662 969 662 963 641 c 2,31,-1
 866 307 l 2,32,33
 864 302 864 302 863 298 c 128,-1,34
 862 294 862 294 862 289 c 0,35,36
 862 250 862 250 899 250 c 2,37,-1
 1065 250 l 1,38,-1
 1065 0 l 1,39,-1
 850 0 l 2,0,1
EndSplineSet
EndChar

StartChar: afii57423
Encoding: 1583 1583 190
Width: 940
GlyphClass: 2
Flags: W
AnchorPoint: "Anchor-3" 480 -420 basechar 0
AnchorPoint: "Anchor-2" 720 1095 basechar 0
LayerCount: 2
Fore
SplineSet
987 281 m 2,0,1
 954 116 954 116 842 53 c 0,2,3
 745 0 745 0 541 0 c 2,4,-1
 227 0 l 1,5,-1
 283 250 l 1,6,-1
 588 250 l 2,7,8
 710 250 710 250 731 362 c 2,9,-1
 756 479 l 2,10,11
 761 496 761 496 762.5 508.5 c 128,-1,12
 764 521 764 521 764 532 c 0,13,14
 764 606 764 606 662 606 c 2,15,-1
 352 606 l 1,16,-1
 385 748 l 2,17,18
 394 786 394 786 413 809.5 c 128,-1,19
 432 833 432 833 461 844 c 0,20,21
 481 850 481 850 526.5 853 c 128,-1,22
 572 856 572 856 641 856 c 2,23,-1
 905 856 l 2,24,25
 976 856 976 856 1022 801 c 0,26,27
 1045 775 1045 775 1056 743 c 128,-1,28
 1067 711 1067 711 1067 676 c 0,29,30
 1067 668 1067 668 1066 659 c 128,-1,31
 1065 650 1065 650 1063 641 c 2,32,-1
 987 281 l 2,0,1
EndSplineSet
Substitution2: "'fina' Terminal Forms in Arabic lookup 2 subtable" afii62780
EndChar

StartChar: afii62780
Encoding: 65194 65194 191
Width: 1145
GlyphClass: 2
Flags: W
AnchorPoint: "Anchor-3" 525 -525 basechar 0
AnchorPoint: "Anchor-2" 750 1185 basechar 0
LayerCount: 2
Fore
SplineSet
961 0 m 2,0,1
 875 0 875 0 848 61 c 1,2,3
 753 0 753 0 541 0 c 2,4,-1
 227 0 l 1,5,-1
 283 250 l 1,6,-1
 588 250 l 2,7,8
 710 250 710 250 731 362 c 2,9,-1
 756 479 l 2,10,11
 761 496 761 496 762.5 508.5 c 128,-1,12
 764 521 764 521 764 532 c 0,13,14
 764 606 764 606 662 606 c 2,15,-1
 352 606 l 1,16,-1
 385 748 l 2,17,18
 394 786 394 786 413 809.5 c 128,-1,19
 432 833 432 833 461 844 c 0,20,21
 481 850 481 850 526.5 853 c 128,-1,22
 572 856 572 856 641 856 c 2,23,-1
 905 856 l 2,24,25
 976 856 976 856 1022 801 c 0,26,27
 1067 750 1067 750 1067 678 c 0,28,29
 1067 669 1067 669 1066 659.5 c 128,-1,30
 1065 650 1065 650 1063 641 c 2,31,-1
 989 319 l 2,32,33
 987 314 987 314 987 310 c 128,-1,34
 987 306 987 306 987 301 c 0,35,36
 987 250 987 250 1030 250 c 2,37,-1
 1174 250 l 1,38,-1
 1174 0 l 1,39,-1
 961 0 l 2,0,1
EndSplineSet
EndChar

StartChar: afii57425
Encoding: 1585 1585 194
Width: 817
GlyphClass: 2
Flags: W
AnchorPoint: "Anchor-3" 315 -660 basechar 0
AnchorPoint: "Anchor-2" 705 1110 basechar 0
LayerCount: 2
Fore
SplineSet
874 778 m 1,0,1
 863 712 863 712 852.5 650.5 c 128,-1,2
 842 589 842 589 829 532 c 0,3,4
 772 266 772 266 717 166 c 0,5,6
 635 26 635 26 540 -84 c 128,-1,7
 445 -194 445 -194 336 -274 c 1,8,9
 100 -119 100 -119 100 -104 c 1,10,11
 138 -78 138 -78 173 -49 c 128,-1,12
 208 -20 208 -20 242 12 c 0,13,14
 396 168 396 168 479 356 c 0,15,16
 510 428 510 428 539 551.5 c 128,-1,17
 568 675 568 675 594 856 c 1,18,-1
 874 778 l 1,19,-1
 874 778 l 1,0,1
EndSplineSet
Substitution2: "'fina' Terminal Forms in Arabic lookup 2 subtable" afii62782
EndChar

StartChar: afii62782
Encoding: 65198 65198 195
Width: 918
GlyphClass: 2
Flags: W
AnchorPoint: "Anchor-3" 300 -720 basechar 0
AnchorPoint: "Anchor-2" 750 1140 basechar 0
LayerCount: 2
Fore
SplineSet
827 0 m 2,0,1
 718 0 718 0 678 55 c 1,2,3
 533 -155 533 -155 336 -274 c 1,4,5
 100 -119 100 -119 100 -104 c 1,6,7
 138 -78 138 -78 173 -49 c 128,-1,8
 208 -20 208 -20 242 12 c 0,9,10
 396 168 396 168 479 356 c 0,11,12
 510 428 510 428 539 551.5 c 128,-1,13
 568 675 568 675 594 856 c 1,14,-1
 874 778 l 1,15,16
 863 712 863 712 844.5 618 c 128,-1,17
 826 524 826 524 797 399 c 0,18,19
 790 376 790 376 787 359.5 c 128,-1,20
 784 343 784 343 784 332 c 0,21,22
 784 250 784 250 889 250 c 2,23,-1
 946 250 l 1,24,-1
 946 0 l 1,25,-1
 827 0 l 2,0,1
EndSplineSet
EndChar

StartChar: afii57427
Encoding: 1587 1587 198
Width: 2202
GlyphClass: 2
Flags: W
AnchorPoint: "Anchor-3" 1185 -735 basechar 0
AnchorPoint: "Anchor-2" 1755 1275 basechar 0
LayerCount: 2
Fore
SplineSet
2261 246 m 2,0,1
 2247 183 2247 183 2235 143 c 128,-1,2
 2223 103 2223 103 2212 86 c 0,3,4
 2156 0 2156 0 2015 0 c 2,5,-1
 1845 0 l 2,6,7
 1783 0 1783 0 1735 61 c 1,8,9
 1704 0 1704 0 1645 0 c 2,10,-1
 1427 0 l 2,11,12
 1356 0 1356 0 1305 61 c 1,13,14
 1247 -155 1247 -155 1196 -203 c 0,15,16
 1142 -254 1142 -254 948 -254 c 2,17,-1
 420 -254 l 2,18,19
 231 -254 231 -254 231 -84 c 0,20,21
 231 -42 231 -42 246 29 c 2,22,-1
 416 856 l 1,23,-1
 690 768 l 1,24,-1
 557 86 l 2,25,26
 551 48 551 48 551 43 c 0,27,28
 551 0 551 0 608 0 c 2,29,-1
 852 0 l 2,30,31
 954 0 954 0 981 43 c 0,32,33
 1020 97 1020 97 1073 350 c 2,34,-1
 1178 856 l 1,35,-1
 1454 768 l 1,36,-1
 1362 350 l 2,37,38
 1360 342 1360 342 1359 335 c 128,-1,39
 1358 328 1358 328 1358 322 c 0,40,41
 1358 250 1358 250 1442 250 c 0,42,43
 1521 250 1521 250 1542 350 c 2,44,-1
 1645 856 l 1,45,-1
 1921 768 l 1,46,-1
 1831 350 l 2,47,48
 1825 329 1825 329 1825 313 c 0,49,50
 1825 250 1825 250 1892 250 c 0,51,52
 1934 250 1934 250 1959 274.5 c 128,-1,53
 1984 299 1984 299 1995 350 c 2,54,-1
 2095 856 l 1,55,-1
 2374 768 l 1,56,-1
 2261 246 l 2,0,1
EndSplineSet
Substitution2: "'medi' Medial Forms in Arabic lookup 3 subtable" afii62785
Substitution2: "'fina' Terminal Forms in Arabic lookup 2 subtable" afii62786
Substitution2: "'init' Initial Forms in Arabic lookup 1 subtable" afii62784
EndChar

StartChar: afii62786
Encoding: 65202 65202 199
Width: 2431
GlyphClass: 2
Flags: W
AnchorPoint: "Anchor-3" 1230 -645 basechar 0
AnchorPoint: "Anchor-2" 1590 1185 basechar 0
LayerCount: 2
Fore
SplineSet
2310 0 m 2,0,1
 2260 0 2260 0 2193 61 c 1,2,3
 2139 0 2139 0 2015 0 c 2,4,-1
 1845 0 l 2,5,6
 1783 0 1783 0 1735 61 c 1,7,8
 1704 0 1704 0 1645 0 c 2,9,-1
 1427 0 l 2,10,11
 1356 0 1356 0 1305 61 c 1,12,13
 1247 -155 1247 -155 1196 -203 c 0,14,15
 1142 -254 1142 -254 948 -254 c 2,16,-1
 420 -254 l 2,17,18
 231 -254 231 -254 231 -84 c 0,19,20
 231 -42 231 -42 246 29 c 2,21,-1
 416 856 l 1,22,-1
 690 768 l 1,23,-1
 557 86 l 2,24,25
 551 48 551 48 551 43 c 0,26,27
 551 0 551 0 608 0 c 2,28,-1
 852 0 l 2,29,30
 954 0 954 0 981 43 c 0,31,32
 1020 97 1020 97 1073 350 c 2,33,-1
 1178 856 l 1,34,-1
 1454 768 l 1,35,-1
 1362 350 l 2,36,37
 1360 342 1360 342 1359 335 c 128,-1,38
 1358 328 1358 328 1358 322 c 0,39,40
 1358 250 1358 250 1442 250 c 0,41,42
 1521 250 1521 250 1542 350 c 2,43,-1
 1645 856 l 1,44,-1
 1921 768 l 1,45,-1
 1831 350 l 2,46,47
 1825 329 1825 329 1825 313 c 0,48,49
 1825 250 1825 250 1892 250 c 0,50,51
 1934 250 1934 250 1959 274.5 c 128,-1,52
 1984 299 1984 299 1995 350 c 2,53,-1
 2095 856 l 1,54,-1
 2374 768 l 1,55,-1
 2281 338 l 2,56,57
 2275 309 2275 309 2275 297 c 0,58,59
 2275 250 2275 250 2339 250 c 2,60,-1
 2462 250 l 1,61,-1
 2462 0 l 1,62,-1
 2310 0 l 2,0,1
EndSplineSet
EndChar

StartChar: afii62784
Encoding: 65203 65203 200
Width: 1303
GlyphClass: 2
Flags: W
AnchorPoint: "Anchor-3" 480 -510 basechar 0
AnchorPoint: "Anchor-2" 930 1155 basechar 0
LayerCount: 2
Fore
SplineSet
1331 246 m 2,0,1
 1317 183 1317 183 1305 143 c 128,-1,2
 1293 103 1293 103 1282 86 c 0,3,4
 1226 0 1226 0 1085 0 c 2,5,-1
 918 0 l 2,6,7
 856 0 856 0 807 61 c 1,8,9
 773 0 773 0 717 0 c 2,10,-1
 465 0 l 2,11,12
 397 0 397 0 354 61 c 1,13,14
 321 0 321 0 264 0 c 2,15,-1
 -43 0 l 1,16,-1
 -43 250 l 1,17,-1
 59 250 l 2,18,19
 140 250 140 250 162 350 c 2,20,-1
 264 856 l 1,21,-1
 541 768 l 1,22,-1
 449 350 l 2,23,24
 444 327 444 327 444 311 c 0,25,26
 444 250 444 250 512 250 c 0,27,28
 591 250 591 250 612 350 c 2,29,-1
 717 856 l 1,30,-1
 993 768 l 1,31,-1
 901 350 l 2,32,33
 899 342 899 342 898 333.5 c 128,-1,34
 897 325 897 325 897 315 c 0,35,36
 897 250 897 250 965 250 c 0,37,38
 1044 250 1044 250 1065 350 c 2,39,-1
 1167 856 l 1,40,-1
 1446 768 l 1,41,-1
 1331 246 l 2,0,1
EndSplineSet
EndChar

StartChar: afii62785
Encoding: 65204 65204 201
Width: 1520
GlyphClass: 2
Flags: W
AnchorPoint: "Anchor-3" 645 -465 basechar 0
AnchorPoint: "Anchor-2" 900 1200 basechar 0
LayerCount: 2
Fore
SplineSet
1378 0 m 2,0,1
 1316 0 1316 0 1268 61 c 1,2,3
 1237 0 1237 0 1178 0 c 2,4,-1
 928 0 l 2,5,6
 867 0 867 0 815 61 c 1,7,8
 785 0 785 0 725 0 c 2,9,-1
 475 0 l 2,10,11
 413 0 413 0 365 61 c 1,12,13
 334 0 334 0 274 0 c 2,14,-1
 -35 0 l 1,15,-1
 -35 250 l 1,16,-1
 70 250 l 2,17,18
 130 250 130 250 147 270 c 0,19,20
 158 288 158 288 170 350 c 2,21,-1
 274 856 l 1,22,-1
 551 768 l 1,23,-1
 459 350 l 2,24,25
 457 339 457 339 456 329 c 128,-1,26
 455 319 455 319 455 311 c 0,27,28
 455 249 455 249 522 252 c 0,29,30
 564 254 564 254 588.5 278 c 128,-1,31
 613 302 613 302 623 350 c 2,32,-1
 725 856 l 1,33,-1
 1004 768 l 1,34,-1
 911 350 l 2,35,36
 909 342 909 342 908 333.5 c 128,-1,37
 907 325 907 325 907 315 c 0,38,39
 907 249 907 249 975 252 c 0,40,41
 1057 255 1057 255 1075 350 c 2,42,-1
 1178 856 l 1,43,-1
 1454 768 l 1,44,-1
 1370 338 l 2,45,46
 1368 324 1368 324 1367 314.5 c 128,-1,47
 1366 305 1366 305 1366 299 c 0,48,49
 1366 250 1366 250 1425 250 c 2,50,-1
 1550 250 l 1,51,-1
 1550 0 l 1,52,-1
 1378 0 l 2,0,1
EndSplineSet
EndChar

StartChar: afii57429
Encoding: 1589 1589 206
Width: 2312
GlyphClass: 2
Flags: W
AnchorPoint: "Anchor-3" 1365 -690 basechar 0
AnchorPoint: "Anchor-2" 1575 1200 basechar 0
LayerCount: 2
Fore
SplineSet
2312 246 m 2,0,1
 2291 131 2291 131 2261 84 c 0,2,3
 2232 42 2232 42 2184.5 21 c 128,-1,4
 2137 0 2137 0 2068 0 c 2,5,-1
 1360 0 l 2,6,7
 1272 0 1272 0 1272 61 c 1,8,9
 1243 -50 1243 -50 1215.5 -116 c 128,-1,10
 1188 -182 1188 -182 1165 -205 c 0,11,12
 1111 -256 1111 -256 918 -256 c 2,13,-1
 410 -254 l 2,14,15
 213 -254 213 -254 213 -106 c 0,16,17
 213 -95 213 -95 219 -62.5 c 128,-1,18
 225 -30 225 -30 236 27 c 2,19,-1
 406 856 l 1,20,-1
 678 768 l 1,21,-1
 547 86 l 2,22,23
 541 51 541 51 541 43 c 0,24,25
 541 0 541 0 598 0 c 2,26,-1
 819 0 l 2,27,28
 918 0 918 0 948 43 c 0,29,30
 989 100 989 100 1040 350 c 2,31,-1
 1145 856 l 1,32,-1
 1417 768 l 1,33,-1
 1331 338 l 2,34,35
 1329 333 1329 333 1329 327.5 c 128,-1,36
 1329 322 1329 322 1329 317 c 0,37,38
 1329 256 1329 256 1378 256 c 0,39,40
 1398 256 1398 256 1417 272 c 2,41,-1
 2056 780 l 2,42,43
 2151 856 2151 856 2261 856 c 0,44,45
 2318 856 2318 856 2359 834 c 0,46,47
 2410 806 2410 806 2410 756 c 0,48,49
 2410 751 2410 751 2410 746.5 c 128,-1,50
 2410 742 2410 742 2408 737 c 2,51,-1
 2312 246 l 2,0,1
1733 250 m 1,52,-1
 1919 250 l 2,53,54
 2058 250 2058 250 2089 387 c 2,55,-1
 2122 545 l 1,56,-1
 1733 250 l 1,52,-1
EndSplineSet
Substitution2: "'medi' Medial Forms in Arabic lookup 3 subtable" afii62791
Substitution2: "'fina' Terminal Forms in Arabic lookup 2 subtable" afii62792
Substitution2: "'init' Initial Forms in Arabic lookup 1 subtable" afii62790
EndChar

StartChar: afii62792
Encoding: 65210 65210 207
Width: 2462
GlyphClass: 2
Flags: W
AnchorPoint: "Anchor-3" 1365 -600 basechar 0
AnchorPoint: "Anchor-2" 1575 1185 basechar 0
LayerCount: 2
Fore
SplineSet
2351 0 m 2,0,1
 2289 0 2289 0 2241 61 c 1,2,3
 2183 0 2183 0 2068 0 c 2,4,-1
 1360 0 l 2,5,6
 1272 0 1272 0 1272 61 c 1,7,8
 1243 -50 1243 -50 1215.5 -116 c 128,-1,9
 1188 -182 1188 -182 1165 -205 c 0,10,11
 1111 -256 1111 -256 918 -256 c 2,12,-1
 410 -254 l 2,13,14
 213 -254 213 -254 213 -106 c 0,15,16
 213 -95 213 -95 219 -62.5 c 128,-1,17
 225 -30 225 -30 236 27 c 2,18,-1
 406 856 l 1,19,-1
 678 768 l 1,20,-1
 547 86 l 2,21,22
 541 51 541 51 541 43 c 0,23,24
 541 0 541 0 598 0 c 2,25,-1
 819 0 l 2,26,27
 918 0 918 0 948 43 c 0,28,29
 989 100 989 100 1040 350 c 2,30,-1
 1145 856 l 1,31,-1
 1417 768 l 1,32,-1
 1331 338 l 2,33,34
 1329 333 1329 333 1329 327.5 c 128,-1,35
 1329 322 1329 322 1329 317 c 0,36,37
 1329 256 1329 256 1378 256 c 0,38,39
 1398 256 1398 256 1417 272 c 2,40,-1
 2056 780 l 2,41,42
 2151 856 2151 856 2261 856 c 0,43,44
 2315 856 2315 856 2359 834 c 0,45,46
 2410 806 2410 806 2410 756 c 0,47,48
 2410 753 2410 753 2410 748 c 128,-1,49
 2410 743 2410 743 2408 737 c 2,50,-1
 2335 338 l 2,51,52
 2329 303 2329 303 2329 295 c 0,53,54
 2329 250 2329 250 2390 250 c 2,55,-1
 2492 250 l 1,56,-1
 2492 0 l 1,57,-1
 2351 0 l 2,0,1
1733 250 m 1,58,-1
 1919 250 l 2,59,60
 2058 250 2058 250 2089 387 c 2,61,-1
 2122 545 l 1,62,-1
 1733 250 l 1,58,-1
EndSplineSet
EndChar

StartChar: afii62790
Encoding: 65211 65211 208
Width: 1352
GlyphClass: 2
Flags: W
AnchorPoint: "Anchor-3" 570 -540 basechar 0
AnchorPoint: "Anchor-2" 675 1095 basechar 0
LayerCount: 2
Fore
SplineSet
1397 246 m 2,0,1
 1375 131 1375 131 1343 84 c 0,2,3
 1288 0 1288 0 1153 0 c 2,4,-1
 430 0 l 2,5,6
 340 0 340 0 334 61 c 1,7,8
 288 0 288 0 229 0 c 2,9,-1
 -53 0 l 1,10,-1
 -53 250 l 1,11,-1
 25 250 l 2,12,13
 106 250 106 250 127 350 c 2,14,-1
 184 643 l 1,15,-1
 459 553 l 1,16,-1
 406 317 l 2,17,18
 404 309 404 309 403.5 304.5 c 128,-1,19
 403 300 403 300 403 297 c 0,20,21
 403 248 403 248 444 248 c 0,22,23
 467 248 467 248 481 262 c 2,24,-1
 1141 780 l 2,25,26
 1189 818 1189 818 1240.5 837 c 128,-1,27
 1292 856 1292 856 1346 856 c 0,28,29
 1402 856 1402 856 1444 834 c 0,30,31
 1493 806 1493 806 1493 756 c 2,32,-1
 1493 737 l 1,33,-1
 1397 246 l 2,0,1
815 250 m 1,34,-1
 1004 250 l 2,35,36
 1144 250 1144 250 1171 387 c 2,37,-1
 1206 545 l 1,38,-1
 815 250 l 1,34,-1
EndSplineSet
EndChar

StartChar: afii62791
Encoding: 65212 65212 209
Width: 1540
GlyphClass: 2
Flags: W
AnchorPoint: "Anchor-3" 675 -540 basechar 0
AnchorPoint: "Anchor-2" 735 1140 basechar 0
LayerCount: 2
Fore
SplineSet
1430 0 m 2,0,1
 1368 0 1368 0 1319 61 c 1,2,3
 1285 0 1285 0 1229 0 c 2,4,-1
 430 0 l 2,5,6
 340 0 340 0 334 61 c 1,7,8
 288 0 288 0 229 0 c 2,9,-1
 -53 0 l 1,10,-1
 -53 250 l 1,11,-1
 25 250 l 2,12,13
 106 250 106 250 127 350 c 2,14,-1
 184 643 l 1,15,-1
 459 553 l 1,16,-1
 406 317 l 2,17,18
 404 309 404 309 403.5 304.5 c 128,-1,19
 403 300 403 300 403 297 c 0,20,21
 403 248 403 248 444 248 c 0,22,23
 467 248 467 248 481 262 c 2,24,-1
 1141 780 l 2,25,26
 1189 818 1189 818 1240.5 837 c 128,-1,27
 1292 856 1292 856 1346 856 c 0,28,29
 1402 856 1402 856 1444 834 c 0,30,31
 1493 806 1493 806 1493 756 c 2,32,-1
 1493 737 l 1,33,-1
 1413 338 l 2,34,35
 1411 330 1411 330 1410 323 c 128,-1,36
 1409 316 1409 316 1409 311 c 0,37,38
 1409 250 1409 250 1468 250 c 2,39,-1
 1571 250 l 1,40,-1
 1571 0 l 1,41,-1
 1430 0 l 2,0,1
815 250 m 1,42,-1
 1004 250 l 2,43,44
 1144 250 1144 250 1171 387 c 2,45,-1
 1206 545 l 1,46,-1
 815 250 l 1,42,-1
EndSplineSet
EndChar

StartChar: afii57431
Encoding: 1591 1591 214
Width: 1415
GlyphClass: 2
Flags: W
AnchorPoint: "Anchor-3" 720 -435 basechar 0
AnchorPoint: "Anchor-2" 1305 1305 basechar 0
LayerCount: 2
Fore
SplineSet
1483 246 m 2,0,1
 1461 128 1461 128 1421 76 c 0,2,3
 1366 0 1366 0 1237 0 c 2,4,-1
 231 0 l 1,5,-1
 283 250 l 1,6,-1
 307 250 l 2,7,8
 386 250 386 250 408 350 c 2,9,-1
 575 1178 l 1,10,-1
 870 1178 l 1,11,-1
 694 301 l 1,12,-1
 1227 780 l 2,13,14
 1321 864 1321 864 1436 864 c 0,15,16
 1465 864 1465 864 1488.5 858.5 c 128,-1,17
 1512 853 1512 853 1532 842 c 0,18,19
 1579 813 1579 813 1579 760 c 2,20,-1
 1579 737 l 1,21,-1
 1483 246 l 2,0,1
936 250 m 1,22,-1
 1126 250 l 2,23,24
 1199 250 1199 250 1237 285 c 0,25,26
 1272 312 1272 312 1296 387 c 1,27,-1
 1329 578 l 1,28,-1
 936 250 l 1,22,-1
EndSplineSet
Substitution2: "'medi' Medial Forms in Arabic lookup 3 subtable" afii62797
Substitution2: "'fina' Terminal Forms in Arabic lookup 2 subtable" afii62798
Substitution2: "'init' Initial Forms in Arabic lookup 1 subtable" afii62796
EndChar

StartChar: afii62798
Encoding: 65218 65218 215
Width: 1659
GlyphClass: 2
Flags: W
AnchorPoint: "Anchor-3" 780 -540 basechar 0
AnchorPoint: "Anchor-2" 1290 1395 basechar 0
LayerCount: 2
Fore
SplineSet
1518 0 m 2,0,1
 1450 0 1450 0 1407 61 c 1,2,3
 1343 0 1343 0 1237 0 c 2,4,-1
 231 0 l 1,5,-1
 283 250 l 1,6,-1
 307 250 l 2,7,8
 386 250 386 250 408 350 c 2,9,-1
 575 1178 l 1,10,-1
 870 1178 l 1,11,-1
 694 301 l 1,12,-1
 1227 780 l 2,13,14
 1321 864 1321 864 1436 864 c 0,15,16
 1465 864 1465 864 1488.5 858.5 c 128,-1,17
 1512 853 1512 853 1532 842 c 0,18,19
 1579 813 1579 813 1579 760 c 2,20,-1
 1579 737 l 1,21,-1
 1499 338 l 2,22,23
 1496 321 1496 321 1494.5 311.5 c 128,-1,24
 1493 302 1493 302 1493 297 c 0,25,26
 1493 250 1493 250 1559 250 c 2,27,-1
 1690 250 l 1,28,-1
 1690 0 l 1,29,-1
 1518 0 l 2,0,1
936 250 m 1,30,-1
 1126 250 l 2,31,32
 1265 250 1265 250 1292 389 c 2,33,-1
 1329 578 l 1,34,-1
 936 250 l 1,30,-1
EndSplineSet
EndChar

StartChar: afii62796
Encoding: 65219 65219 216
Width: 1176
GlyphClass: 2
Flags: W
AnchorPoint: "Anchor-3" 540 -465 basechar 0
AnchorPoint: "Anchor-2" 1095 1170 basechar 0
LayerCount: 2
Fore
SplineSet
1251 246 m 2,0,1
 1230 128 1230 128 1190 76 c 0,2,3
 1132 0 1132 0 1006 0 c 2,4,-1
 -31 0 l 1,5,-1
 -31 250 l 1,6,-1
 76 250 l 2,7,8
 155 250 155 250 176 350 c 2,9,-1
 344 1178 l 1,10,-1
 639 1178 l 1,11,-1
 463 301 l 1,12,-1
 995 780 l 2,13,14
 1088 864 1088 864 1204 864 c 0,15,16
 1259 864 1259 864 1300 842 c 0,17,18
 1348 813 1348 813 1348 760 c 0,19,20
 1348 754 1348 754 1348 748 c 128,-1,21
 1348 742 1348 742 1346 737 c 2,22,-1
 1251 246 l 2,0,1
705 250 m 1,23,-1
 895 250 l 2,24,25
 1032 250 1032 250 1061 389 c 2,26,-1
 1098 578 l 1,27,-1
 705 250 l 1,23,-1
EndSplineSet
EndChar

StartChar: afii62797
Encoding: 65220 65220 217
Width: 1427
GlyphClass: 2
Flags: W
AnchorPoint: "Anchor-3" 600 -450 basechar 0
AnchorPoint: "Anchor-2" 1050 1305 basechar 0
LayerCount: 2
Fore
SplineSet
1286 0 m 2,0,1
 1219 0 1219 0 1174 61 c 1,2,3
 1109 0 1109 0 1006 0 c 2,4,-1
 -31 0 l 1,5,-1
 -31 250 l 1,6,-1
 76 250 l 2,7,8
 155 250 155 250 176 350 c 2,9,-1
 344 1178 l 1,10,-1
 639 1178 l 1,11,-1
 463 301 l 1,12,-1
 995 780 l 2,13,14
 1088 864 1088 864 1204 864 c 0,15,16
 1259 864 1259 864 1300 842 c 0,17,18
 1348 813 1348 813 1348 760 c 0,19,20
 1348 754 1348 754 1348 748 c 128,-1,21
 1348 742 1348 742 1346 737 c 2,22,-1
 1268 338 l 2,23,24
 1265 321 1265 321 1263.5 311.5 c 128,-1,25
 1262 302 1262 302 1262 297 c 0,26,27
 1262 250 1262 250 1325 250 c 2,28,-1
 1456 250 l 1,29,-1
 1456 0 l 1,30,-1
 1286 0 l 2,0,1
705 250 m 1,31,-1
 895 250 l 2,32,33
 1032 250 1032 250 1061 389 c 2,34,-1
 1098 578 l 1,35,-1
 705 250 l 1,31,-1
EndSplineSet
EndChar

StartChar: afii57433
Encoding: 1593 1593 222
Width: 1020
GlyphClass: 2
Flags: W
AnchorPoint: "Anchor-3" 600 -1020 basechar 0
AnchorPoint: "Anchor-2" 855 1065 basechar 0
LayerCount: 2
Fore
SplineSet
1090 608 m 1,0,1
 986 608 986 608 920.5 606.5 c 128,-1,2
 855 605 855 605 827 600 c 0,3,4
 744 588 744 588 711 543 c 0,5,6
 697 526 697 526 680 487.5 c 128,-1,7
 663 449 663 449 641 387 c 0,8,9
 629 349 629 349 622.5 327 c 128,-1,10
 616 305 616 305 616 297 c 0,11,12
 616 250 616 250 678 250 c 2,13,-1
 999 250 l 1,14,-1
 938 0 l 1,15,-1
 797 0 l 1,16,-1
 655 -170 l 2,17,18
 632 -196 632 -196 598.5 -245 c 128,-1,19
 565 -294 565 -294 520 -369 c 0,20,21
 512 -382 512 -382 512 -399 c 0,22,23
 512 -469 512 -469 612 -469 c 2,24,-1
 1038 -469 l 1,25,-1
 991 -700 l 1,26,-1
 467 -700 l 2,27,28
 249 -700 249 -700 215 -502 c 0,29,30
 213 -496 213 -496 213 -488.5 c 128,-1,31
 213 -481 213 -481 213 -473 c 0,32,33
 213 -310 213 -310 358 -133 c 0,34,35
 387 -98 387 -98 416 -64.5 c 128,-1,36
 445 -31 445 -31 473 0 c 1,37,38
 305 0 305 0 305 145 c 0,39,40
 305 162 305 162 307.5 179 c 128,-1,41
 310 196 310 196 315 215 c 0,42,43
 363 417 363 417 409.5 544 c 128,-1,44
 456 671 456 671 504 725 c 0,45,46
 620 856 620 856 938 856 c 2,47,-1
 1151 856 l 1,48,-1
 1090 608 l 1,0,1
EndSplineSet
Substitution2: "'medi' Medial Forms in Arabic lookup 3 subtable" afii62803
Substitution2: "'fina' Terminal Forms in Arabic lookup 2 subtable" afii62804
Substitution2: "'init' Initial Forms in Arabic lookup 1 subtable" afii62802
EndChar

StartChar: afii62804
Encoding: 65226 65226 223
Width: 1266
GlyphClass: 2
Flags: W
AnchorPoint: "Anchor-3" 600 -1065 basechar 0
AnchorPoint: "Anchor-2" 750 1140 basechar 0
LayerCount: 2
Fore
SplineSet
1128 0 m 2,0,1
 1037 0 1037 0 968 8 c 128,-1,2
 899 16 899 16 848 33 c 1,3,4
 828 17 828 17 782.5 -33 c 128,-1,5
 737 -83 737 -83 666 -170 c 0,6,7
 516 -353 516 -353 516 -391 c 0,8,9
 516 -469 516 -469 606 -469 c 2,10,-1
 1063 -469 l 1,11,-1
 1004 -702 l 1,12,-1
 481 -702 l 2,13,14
 263 -702 263 -702 229 -504 c 0,15,16
 227 -498 227 -498 227 -490.5 c 128,-1,17
 227 -483 227 -483 227 -475 c 0,18,19
 227 -323 227 -323 373 -135 c 2,20,-1
 594 156 l 1,21,22
 540 202 540 202 497.5 248 c 128,-1,23
 455 294 455 294 426 342 c 0,24,25
 391 396 391 396 363 466 c 128,-1,26
 335 536 335 536 313 621 c 0,27,28
 307 648 307 648 307 682 c 0,29,30
 307 856 307 856 481 856 c 2,31,-1
 1053 856 l 2,32,33
 1221 856 1221 856 1221 713 c 0,34,35
 1221 613 1221 613 1120 418 c 0,36,37
 1092 361 1092 361 1068 319.5 c 128,-1,38
 1044 278 1044 278 1024 250 c 1,39,-1
 1319 250 l 1,40,-1
 1319 0 l 1,41,-1
 1128 0 l 2,0,1
885 469 m 0,42,43
 913 511 913 511 913 553 c 0,44,45
 913 604 913 604 848 604 c 2,46,-1
 692 604 l 2,47,48
 610 604 610 604 610 541 c 0,49,50
 610 507 610 507 633 469 c 0,51,52
 659 426 659 426 696.5 395 c 128,-1,53
 734 364 734 364 782 344 c 0,54,55
 790 342 790 342 815 374 c 128,-1,56
 840 406 840 406 885 469 c 0,42,43
EndSplineSet
EndChar

StartChar: afii62802
Encoding: 65227 65227 224
Width: 752
GlyphClass: 2
Flags: W
AnchorPoint: "Anchor-3" 360 -390 basechar 0
AnchorPoint: "Anchor-2" 690 1080 basechar 0
LayerCount: 2
Fore
SplineSet
903 608 m 1,0,1
 800 608 800 608 734.5 606.5 c 128,-1,2
 669 605 669 605 641 600 c 0,3,4
 561 588 561 588 524 543 c 0,5,6
 512 526 512 526 495 487.5 c 128,-1,7
 478 449 478 449 457 387 c 0,8,9
 446 356 446 356 441 334.5 c 128,-1,10
 436 313 436 313 436 301 c 0,11,12
 436 250 436 250 494 250 c 2,13,-1
 813 250 l 1,14,-1
 752 0 l 1,15,-1
 -53 0 l 1,16,-1
 -53 250 l 1,17,-1
 137 250 l 1,18,19
 182 439 182 439 229 558 c 128,-1,20
 276 677 276 677 326 731 c 0,21,22
 441 856 441 856 754 856 c 2,23,-1
 965 856 l 1,24,-1
 903 608 l 1,0,1
EndSplineSet
EndChar

StartChar: afii62803
Encoding: 65228 65228 225
Width: 1151
GlyphClass: 2
Flags: W
AnchorPoint: "Anchor-3" 570 -375 basechar 0
AnchorPoint: "Anchor-2" 645 1155 basechar 0
LayerCount: 2
Fore
SplineSet
1026 0 m 2,0,1
 836 0 836 0 659 49 c 1,2,3
 487 0 487 0 260 0 c 2,4,-1
 -53 0 l 1,5,-1
 -53 250 l 1,6,-1
 362 250 l 1,7,8
 344 272 344 272 327 296 c 128,-1,9
 310 320 310 320 293 348 c 0,10,11
 217 474 217 474 176 641 c 0,12,13
 171 661 171 661 169.5 679.5 c 128,-1,14
 168 698 168 698 168 715 c 0,15,16
 168 856 168 856 330 856 c 2,17,-1
 950 856 l 2,18,19
 1116 856 1116 856 1116 711 c 0,20,21
 1116 681 1116 681 1110 641 c 0,22,23
 1064 393 1064 393 924 250 c 1,24,-1
 1182 250 l 1,25,-1
 1182 0 l 1,26,-1
 1026 0 l 2,0,1
782 469 m 0,27,28
 811 522 811 522 811 555 c 0,29,30
 811 604 811 604 745 604 c 2,31,-1
 541 604 l 2,32,33
 469 604 469 604 469 549 c 0,34,35
 469 500 469 500 506 453 c 0,36,37
 588 340 588 340 659 305 c 1,38,39
 698 314 698 314 782 469 c 0,27,28
EndSplineSet
EndChar

StartChar: afii57443
Encoding: 1603 1603 238
Width: 1729
GlyphClass: 2
Flags: W
AnchorPoint: "Anchor-3" 960 -435 basechar 0
AnchorPoint: "Anchor-2" 1005 1380 basechar 0
LayerCount: 2
Fore
SplineSet
1901 946 m 1,0,-1
 1604 946 l 1,1,2
 1692 814 1692 814 1763 602 c 0,3,4
 1841 378 1841 378 1841 231 c 0,5,6
 1841 163 1841 163 1804 88 c 0,7,8
 1762 0 1762 0 1700 0 c 2,9,-1
 416 0 l 2,10,11
 229 0 229 0 229 178 c 0,12,13
 229 197 229 197 232.5 223 c 128,-1,14
 236 249 236 249 244 281 c 2,15,-1
 346 768 l 1,16,-1
 655 856 l 1,17,-1
 555 338 l 2,18,19
 553 327 553 327 553 318 c 128,-1,20
 553 309 553 309 553 303 c 0,21,22
 553 250 553 250 614 250 c 2,23,-1
 1442 250 l 2,24,25
 1534 250 1534 250 1534 305 c 0,26,27
 1534 311 1534 311 1533 319 c 128,-1,28
 1532 327 1532 327 1530 338 c 0,29,30
 1495 496 1495 496 1446 606 c 0,31,32
 1406 701 1406 701 1262 944 c 1,33,34
 1292 1109 1292 1109 1325 1149 c 0,35,36
 1351 1178 1351 1178 1419 1178 c 2,37,-1
 1958 1178 l 1,38,-1
 1901 946 l 1,0,-1
EndSplineSet
Substitution2: "'medi' Medial Forms in Arabic lookup 3 subtable" afii52306
Substitution2: "'fina' Terminal Forms in Arabic lookup 2 subtable" afii62816
Substitution2: "'init' Initial Forms in Arabic lookup 1 subtable" afii52305
EndChar

StartChar: afii62816
Encoding: 65242 65242 239
Width: 2046
GlyphClass: 2
Flags: W
AnchorPoint: "Anchor-3" 960 -465 basechar 0
AnchorPoint: "Anchor-2" 930 1350 basechar 0
LayerCount: 2
Fore
SplineSet
1851 0 m 2,0,1
 1792 0 1792 0 1786 61 c 1,2,3
 1749 0 1749 0 1700 0 c 2,4,-1
 416 0 l 2,5,6
 229 0 229 0 229 178 c 0,7,8
 229 197 229 197 232.5 223 c 128,-1,9
 236 249 236 249 244 281 c 2,10,-1
 346 768 l 1,11,-1
 655 856 l 1,12,-1
 555 338 l 2,13,14
 553 327 553 327 553 318 c 128,-1,15
 553 309 553 309 553 303 c 0,16,17
 553 250 553 250 614 250 c 2,18,-1
 1442 250 l 2,19,20
 1534 250 1534 250 1534 305 c 0,21,22
 1534 311 1534 311 1533 319 c 128,-1,23
 1532 327 1532 327 1530 338 c 0,24,25
 1495 496 1495 496 1446 606 c 0,26,27
 1406 701 1406 701 1262 944 c 1,28,29
 1292 1109 1292 1109 1325 1149 c 0,30,31
 1351 1178 1351 1178 1419 1178 c 2,32,-1
 1958 1178 l 1,33,-1
 1901 946 l 1,34,-1
 1604 946 l 1,35,36
 1642 889 1642 889 1678 813 c 128,-1,37
 1714 737 1714 737 1749 643 c 256,38,39
 1784 549 1784 549 1806 467 c 128,-1,40
 1828 385 1828 385 1837 315 c 0,41,42
 1837 309 1837 309 1838 298 c 128,-1,43
 1839 287 1839 287 1841 270 c 1,44,45
 1850 252 1850 252 1898 252 c 2,46,-1
 2077 252 l 1,47,-1
 2077 0 l 1,48,-1
 1851 0 l 2,0,1
EndSplineSet
EndChar

StartChar: afii57444
Encoding: 1604 1604 242
Width: 1298
GlyphClass: 2
Flags: W
AnchorPoint: "Anchor-3" 645 -675 basechar 0
AnchorPoint: "Anchor-2" 1260 1530 basechar 0
LayerCount: 2
Fore
SplineSet
1307 104 m 2,0,1
 1296 56 1296 56 1289.5 24 c 128,-1,2
 1283 -8 1283 -8 1278 -25 c 0,3,4
 1267 -63 1267 -63 1256.5 -93.5 c 128,-1,5
 1246 -124 1246 -124 1235 -145 c 0,6,7
 1196 -218 1196 -218 1120 -240 c 0,8,9
 1092 -248 1092 -248 1036 -251 c 128,-1,10
 980 -254 980 -254 895 -254 c 2,11,-1
 414 -254 l 2,12,13
 231 -254 231 -254 231 -63 c 0,14,15
 231 -43 231 -43 234 -20.5 c 128,-1,16
 237 2 237 2 242 27 c 2,17,-1
 414 860 l 1,18,-1
 690 766 l 1,19,-1
 555 84 l 2,20,21
 553 73 553 73 552 64 c 128,-1,22
 551 55 551 55 551 47 c 0,23,24
 551 0 551 0 604 0 c 2,25,-1
 846 0 l 2,26,27
 884 0 884 0 910 2.5 c 128,-1,28
 936 5 936 5 950 10 c 0,29,30
 1000 25 1000 25 1012 84 c 2,31,-1
 1249 1176 l 1,32,-1
 1542 1176 l 1,33,-1
 1307 104 l 2,0,1
EndSplineSet
Substitution2: "'medi' Medial Forms in Arabic lookup 3 subtable" afii62818
Substitution2: "'fina' Terminal Forms in Arabic lookup 2 subtable" afii62819
Substitution2: "'init' Initial Forms in Arabic lookup 1 subtable" afii62817
EndChar

StartChar: afii62817
Encoding: 65247 65247 243
Width: 430
GlyphClass: 2
Flags: W
AnchorPoint: "Anchor-3" 180 -420 basechar 0
AnchorPoint: "Anchor-2" 525 1350 basechar 0
LayerCount: 2
Fore
SplineSet
469 246 m 2,0,1
 442 118 442 118 422 86 c 0,2,3
 366 0 366 0 223 0 c 2,4,-1
 -53 0 l 1,5,-1
 -53 250 l 1,6,-1
 104 250 l 2,7,8
 158 250 158 250 178 276 c 0,9,10
 186 286 186 286 193 304 c 128,-1,11
 200 322 200 322 205 350 c 2,12,-1
 373 1174 l 1,13,-1
 664 1174 l 1,14,-1
 469 246 l 2,0,1
EndSplineSet
EndChar

StartChar: afii62818
Encoding: 65248 65248 244
Width: 657
GlyphClass: 2
Flags: W
AnchorPoint: "Anchor-3" 255 -420 basechar 0
AnchorPoint: "Anchor-2" 540 1380 basechar 0
LayerCount: 2
Fore
SplineSet
510 0 m 2,0,1
 449 0 449 0 397 61 c 1,2,3
 370 0 370 0 307 0 c 2,4,-1
 -35 0 l 1,5,-1
 -35 250 l 1,6,-1
 104 250 l 2,7,8
 156 250 156 250 176 276 c 0,9,10
 185 287 185 287 192.5 305.5 c 128,-1,11
 200 324 200 324 205 350 c 2,12,-1
 373 1174 l 1,13,-1
 664 1174 l 1,14,-1
 500 336 l 2,15,16
 498 328 498 328 498 320.5 c 128,-1,17
 498 313 498 313 498 307 c 0,18,19
 498 250 498 250 555 250 c 2,20,-1
 688 250 l 1,21,-1
 688 0 l 1,22,-1
 510 0 l 2,0,1
EndSplineSet
EndChar

StartChar: afii57445
Encoding: 1605 1605 245
Width: 1214
GlyphClass: 2
Flags: W
AnchorPoint: "Anchor-3" 600 -975 basechar 0
AnchorPoint: "Anchor-2" 915 1170 basechar 0
LayerCount: 2
Fore
SplineSet
1272 244 m 2,0,1
 1247 127 1247 127 1219 86 c 0,2,3
 1160 0 1160 0 1018 0 c 2,4,-1
 608 0 l 2,5,6
 535 0 535 0 502 -100 c 1,7,-1
 379 -705 l 1,8,-1
 86 -705 l 1,9,-1
 238 4 l 2,10,11
 265 128 265 128 287 164 c 0,12,13
 343 250 343 250 485 250 c 0,14,15
 567 250 567 250 590 348 c 2,16,-1
 623 508 l 2,17,18
 668 731 668 731 700 778 c 0,19,20
 749 854 749 854 895 854 c 2,21,-1
 1165 854 l 2,22,23
 1257 854 1257 854 1300 825 c 0,24,25
 1354 788 1354 788 1354 700 c 0,26,27
 1354 677 1354 677 1350.5 649.5 c 128,-1,28
 1347 622 1347 622 1339 590 c 2,29,-1
 1272 244 l 2,0,1
1026 678 m 2,30,31
 937 678 937 678 905 612 c 0,32,33
 902 604 902 604 895 566 c 128,-1,34
 888 528 888 528 877 457 c 2,35,-1
 842 250 l 1,36,-1
 883 250 l 2,37,38
 956 250 956 250 981 272 c 0,39,40
 992 283 992 283 1000 306.5 c 128,-1,41
 1008 330 1008 330 1016 369 c 2,42,-1
 1069 678 l 1,43,-1
 1026 678 l 2,30,31
EndSplineSet
Substitution2: "'medi' Medial Forms in Arabic lookup 3 subtable" afii62821
Substitution2: "'fina' Terminal Forms in Arabic lookup 2 subtable" afii62822
Substitution2: "'init' Initial Forms in Arabic lookup 1 subtable" afii62820
EndChar

StartChar: afii62822
Encoding: 65250 65250 246
Width: 1440
GlyphClass: 2
Flags: W
AnchorPoint: "Anchor-3" 885 -540 basechar 0
AnchorPoint: "Anchor-2" 1035 1050 basechar 0
LayerCount: 2
Fore
SplineSet
1305 0 m 2,0,1
 1224 0 1224 0 1194 61 c 1,2,3
 1136 0 1136 0 1018 0 c 2,4,-1
 600 0 l 2,5,6
 520 0 520 0 502 -100 c 2,7,-1
 379 -705 l 1,8,-1
 86 -705 l 1,9,-1
 238 4 l 2,10,11
 265 128 265 128 287 164 c 0,12,13
 343 250 343 250 485 250 c 0,14,15
 567 250 567 250 590 348 c 2,16,-1
 623 508 l 2,17,18
 668 731 668 731 700 778 c 0,19,20
 749 854 749 854 895 854 c 2,21,-1
 1165 854 l 2,22,23
 1257 854 1257 854 1300 825 c 0,24,25
 1354 791 1354 791 1354 700 c 0,26,27
 1354 677 1354 677 1350.5 649.5 c 128,-1,28
 1347 622 1347 622 1339 590 c 2,29,-1
 1288 338 l 2,30,31
 1286 324 1286 324 1285 314.5 c 128,-1,32
 1284 305 1284 305 1284 297 c 0,33,34
 1284 250 1284 250 1346 250 c 2,35,-1
 1468 250 l 1,36,-1
 1468 0 l 1,37,-1
 1305 0 l 2,0,1
1026 678 m 2,38,39
 937 678 937 678 905 612 c 0,40,41
 902 604 902 604 895 566 c 128,-1,42
 888 528 888 528 877 457 c 2,43,-1
 842 250 l 1,44,-1
 883 250 l 2,45,46
 956 250 956 250 981 272 c 0,47,48
 992 283 992 283 1000 306.5 c 128,-1,49
 1008 330 1008 330 1016 369 c 2,50,-1
 1069 678 l 1,51,-1
 1026 678 l 2,38,39
EndSplineSet
EndChar

StartChar: afii62820
Encoding: 65251 65251 247
Width: 819
GlyphClass: 2
Flags: W
AnchorPoint: "Anchor-3" 375 -510 basechar 0
AnchorPoint: "Anchor-2" 720 1035 basechar 0
LayerCount: 2
Fore
SplineSet
879 246 m 2,0,1
 854 130 854 130 825 86 c 0,2,3
 796 43 796 43 746.5 21.5 c 128,-1,4
 697 0 697 0 625 0 c 2,5,-1
 313 0 l 2,6,7
 218 0 218 0 203 53 c 1,8,9
 156 0 156 0 113 0 c 2,10,-1
 -53 0 l 1,11,-1
 -53 250 l 1,12,-1
 92 250 l 2,13,14
 175 250 175 250 197 350 c 2,15,-1
 229 510 l 2,16,17
 252 625 252 625 271.5 692 c 128,-1,18
 291 759 291 759 305 780 c 0,19,20
 354 856 354 856 502 856 c 2,21,-1
 754 856 l 2,22,23
 805 856 805 856 840.5 849.5 c 128,-1,24
 876 843 876 843 899 829 c 0,25,26
 961 793 961 793 961 698 c 0,27,28
 961 654 961 654 946 590 c 2,29,-1
 879 246 l 2,0,1
637 680 m 2,30,31
 549 680 549 680 520 618 c 0,32,33
 517 612 517 612 509.5 574 c 128,-1,34
 502 536 502 536 489 467 c 2,35,-1
 453 252 l 1,36,-1
 487 252 l 2,37,38
 558 252 558 252 584 276 c 0,39,40
 595 287 595 287 602.5 310.5 c 128,-1,41
 610 334 610 334 618 371 c 2,42,-1
 680 680 l 1,43,-1
 637 680 l 2,30,31
EndSplineSet
EndChar

StartChar: afii57446
Encoding: 1606 1606 248
Width: 1280
GlyphClass: 2
Flags: W
AnchorPoint: "Anchor-3" 735 -735 basechar 0
AnchorPoint: "Anchor-2" 975 1425 basechar 0
LayerCount: 2
Fore
SplineSet
1047 946 m 1,0,-1
 791 946 l 1,1,-1
 836 1174 l 1,2,-1
 1092 1174 l 1,3,-1
 1047 946 l 1,0,-1
1303 61 m 2,4,5
 1283 -42 1283 -42 1258.5 -106.5 c 128,-1,6
 1234 -171 1234 -171 1208 -197 c 0,7,8
 1143 -256 1143 -256 946 -256 c 2,9,-1
 418 -256 l 2,10,11
 229 -256 229 -256 229 -78 c 0,12,13
 229 -52 229 -52 233.5 -25.5 c 128,-1,14
 238 1 238 1 246 27 c 2,15,-1
 418 856 l 1,16,-1
 690 768 l 1,17,-1
 555 86 l 2,18,19
 553 75 553 75 553 68.5 c 128,-1,20
 553 62 553 62 553 57 c 0,21,22
 553 0 553 0 608 0 c 2,23,-1
 866 0 l 2,24,25
 935 0 935 0 956 12 c 0,26,27
 986 31 986 31 1012 102 c 0,28,29
 1020 131 1020 131 1034.5 192.5 c 128,-1,30
 1049 254 1049 254 1069 350 c 2,31,-1
 1174 856 l 1,32,-1
 1444 768 l 1,33,-1
 1303 61 l 2,4,5
EndSplineSet
Substitution2: "'medi' Medial Forms in Arabic lookup 3 subtable" afii62824
Substitution2: "'fina' Terminal Forms in Arabic lookup 2 subtable" afii62825
Substitution2: "'init' Initial Forms in Arabic lookup 1 subtable" afii62823
EndChar

StartChar: afii62825
Encoding: 65254 65254 249
Width: 1479
GlyphClass: 2
Flags: W
AnchorPoint: "Anchor-3" 645 -645 basechar 0
AnchorPoint: "Anchor-2" 960 1410 basechar 0
LayerCount: 2
Fore
SplineSet
1047 946 m 1,0,-1
 791 946 l 1,1,-1
 836 1174 l 1,2,-1
 1092 1174 l 1,3,-1
 1047 946 l 1,0,-1
1374 0 m 2,4,5
 1320 0 1320 0 1298 43 c 1,6,7
 1259 -149 1259 -149 1202 -203 c 1,8,9
 1140 -256 1140 -256 946 -256 c 2,10,-1
 418 -256 l 2,11,12
 229 -256 229 -256 229 -78 c 0,13,14
 229 -52 229 -52 233.5 -25.5 c 128,-1,15
 238 1 238 1 246 27 c 2,16,-1
 418 856 l 1,17,-1
 690 768 l 1,18,-1
 555 86 l 2,19,20
 553 75 553 75 553 68.5 c 128,-1,21
 553 62 553 62 553 57 c 0,22,23
 553 0 553 0 608 0 c 2,24,-1
 866 0 l 2,25,26
 935 0 935 0 956 12 c 0,27,28
 986 31 986 31 1012 102 c 0,29,30
 1020 131 1020 131 1034.5 192.5 c 128,-1,31
 1049 254 1049 254 1069 350 c 2,32,-1
 1174 856 l 1,33,-1
 1444 768 l 1,34,-1
 1360 350 l 2,35,36
 1358 342 1358 342 1357 336.5 c 128,-1,37
 1356 331 1356 331 1356 326 c 0,38,39
 1356 250 1356 250 1415 250 c 2,40,-1
 1509 250 l 1,41,-1
 1509 0 l 1,42,-1
 1374 0 l 2,4,5
EndSplineSet
EndChar

StartChar: afii62828
Encoding: 65258 65258 253
Width: 1098
GlyphClass: 2
Flags: W
AnchorPoint: "Anchor-3" 555 -465 basechar 0
AnchorPoint: "Anchor-2" 630 1140 basechar 0
LayerCount: 2
Fore
SplineSet
911 0 m 2,0,1
 653 0 653 0 653 219 c 0,2,3
 653 239 653 239 655 260 c 128,-1,4
 657 281 657 281 662 303 c 2,5,-1
 729 678 l 1,6,-1
 702 678 l 2,7,8
 631 678 631 678 602 655 c 0,9,10
 587 643 587 643 575 615.5 c 128,-1,11
 563 588 563 588 555 543 c 2,12,-1
 504 250 l 1,13,-1
 625 250 l 1,14,-1
 569 0 l 1,15,-1
 403 0 l 2,16,17
 357 0 357 0 323.5 6.5 c 128,-1,18
 290 13 290 13 270 27 c 0,19,20
 217 61 217 61 217 147 c 0,21,22
 217 190 217 190 229 252 c 2,23,-1
 301 621 l 2,24,25
 347 856 347 856 510 856 c 2,26,-1
 756 856 l 2,27,28
 816 856 816 856 859 850.5 c 128,-1,29
 902 845 902 845 928 834 c 0,30,31
 1006 799 1006 799 1006 696 c 0,32,33
 1006 675 1006 675 1002.5 649 c 128,-1,34
 999 623 999 623 993 592 c 2,35,-1
 950 362 l 2,36,37
 948 351 948 351 947 342.5 c 128,-1,38
 946 334 946 334 946 326 c 0,39,40
 946 250 946 250 1028 250 c 2,41,-1
 1126 250 l 1,42,-1
 1126 0 l 1,43,-1
 911 0 l 2,0,1
EndSplineSet
EndChar

StartChar: afii57448
Encoding: 1608 1608 254
Width: 905
GlyphClass: 2
Flags: W
AnchorPoint: "Anchor-3" 495 -690 basechar 0
AnchorPoint: "Anchor-2" 795 1140 basechar 0
LayerCount: 2
Fore
SplineSet
815 -4 m 0,0,1
 752 -92 752 -92 677.5 -169.5 c 128,-1,2
 603 -247 603 -247 516 -313 c 1,3,-1
 281 -143 l 1,4,5
 426 -36 426 -36 516 94 c 1,6,7
 460 110 460 110 414 134.5 c 128,-1,8
 368 159 368 159 330 195 c 0,9,10
 242 276 242 276 242 381 c 0,11,12
 242 499 242 499 395 678 c 0,13,14
 553 860 553 860 668 860 c 0,15,16
 1008 860 1008 860 1008 541 c 0,17,18
 1008 262 1008 262 815 -4 c 0,0,1
741 430 m 0,19,20
 755 459 755 459 761.5 484 c 128,-1,21
 768 509 768 509 768 530 c 0,22,23
 768 598 768 598 711 598 c 0,24,25
 663 598 663 598 606 541 c 0,26,27
 524 460 524 460 524 399 c 0,28,29
 524 314 524 314 651 299 c 1,30,31
 673 316 673 316 695.5 348.5 c 128,-1,32
 718 381 718 381 741 430 c 0,19,20
EndSplineSet
Substitution2: "'fina' Terminal Forms in Arabic lookup 2 subtable" afii62829
EndChar

StartChar: afii62829
Encoding: 65262 65262 255
Width: 1036
GlyphClass: 2
Flags: W
AnchorPoint: "Anchor-3" 450 -645 basechar 0
AnchorPoint: "Anchor-2" 735 1155 basechar 0
LayerCount: 2
Fore
SplineSet
815 0 m 1,0,1
 693 -177 693 -177 516 -313 c 1,2,-1
 281 -143 l 1,3,4
 426 -36 426 -36 516 94 c 1,5,6
 460 110 460 110 414 134.5 c 128,-1,7
 368 159 368 159 330 195 c 0,8,9
 242 276 242 276 242 381 c 0,10,11
 242 499 242 499 395 678 c 0,12,13
 553 860 553 860 668 860 c 0,14,15
 1008 860 1008 860 1008 541 c 0,16,17
 1008 430 1008 430 969 289 c 0,18,19
 966 279 966 279 961 270 c 128,-1,20
 956 261 956 261 950 250 c 1,21,-1
 1071 250 l 1,22,-1
 1071 0 l 1,23,-1
 815 0 l 1,0,1
741 430 m 0,24,25
 755 459 755 459 761.5 484 c 128,-1,26
 768 509 768 509 768 530 c 0,27,28
 768 598 768 598 711 598 c 0,29,30
 663 598 663 598 606 541 c 0,31,32
 524 460 524 460 524 399 c 0,33,34
 524 314 524 314 651 299 c 1,35,36
 673 316 673 316 695.5 348.5 c 128,-1,37
 718 381 718 381 741 430 c 0,24,25
EndSplineSet
EndChar

StartChar: afii62840
Encoding: 65275 65275 268
Width: 864
GlyphClass: 3
Flags: W
AnchorPoint: "Anchor-1" 660 -345 baselig 0
AnchorPoint: "Anchor-0" 1020 1320 baselig 0
AnchorPoint: "Anchor-1" 270 -345 baselig 1
AnchorPoint: "Anchor-0" 675 1320 baselig 1
LayerCount: 2
Fore
SplineSet
578 348 m 1,0,-1
 285 348 l 1,1,-1
 457 1178 l 1,2,-1
 750 1178 l 1,3,-1
 578 348 l 1,0,-1
946 252 m 2,4,5
 925 132 925 132 897 90 c 0,6,7
 838 0 838 0 694 0 c 2,8,-1
 219 0 l 1,9,-1
 270 252 l 1,10,-1
 575 252 l 2,11,12
 636 252 636 252 651 270 c 0,13,14
 663 287 663 287 678 350 c 2,15,-1
 846 1178 l 1,16,-1
 1135 1178 l 1,17,-1
 946 252 l 2,4,5
EndSplineSet
Ligature2: "'rlig' Required Ligatures in Arabic lookup 6 subtable" afii62817 afii62760
Substitution2: "'fina' Terminal Forms in Arabic lookup 2 subtable" afii62841
EndChar

StartChar: afii62841
Encoding: 65276 65276 269
Width: 1165
GlyphClass: 3
Flags: W
AnchorPoint: "Anchor-1" 705 -360 baselig 0
AnchorPoint: "Anchor-0" 1080 1365 baselig 0
AnchorPoint: "Anchor-1" 300 -330 baselig 1
AnchorPoint: "Anchor-0" 675 1350 baselig 1
LayerCount: 2
Fore
SplineSet
987 0 m 2,0,1
 926 0 926 0 874 61 c 1,2,3
 847 0 847 0 784 0 c 2,4,-1
 225 0 l 1,5,-1
 274 250 l 1,6,-1
 582 250 l 2,7,8
 661 250 661 250 682 350 c 2,9,-1
 852 1178 l 1,10,-1
 1143 1178 l 1,11,-1
 979 338 l 2,12,13
 973 303 973 303 973 295 c 0,14,15
 973 250 973 250 1032 250 c 2,16,-1
 1194 250 l 1,17,-1
 1194 0 l 1,18,-1
 987 0 l 2,0,1
584 348 m 1,19,-1
 291 348 l 1,20,-1
 461 1178 l 1,21,-1
 754 1178 l 1,22,-1
 584 348 l 1,19,-1
EndSplineSet
Ligature2: "'rlig' Required Ligatures in Arabic lookup 6 subtable" afii62818 afii62760
EndChar

StartChar: afii59759
Encoding: 3663 3663 276
Width: 1233
GlyphClass: 2
Flags: W
LayerCount: 2
Fore
SplineSet
616 983 m 0,0,1
 823 983 823 983 969.5 836.5 c 128,-1,2
 1116 690 1116 690 1116 483 c 0,3,4
 1116 277 1116 277 969.5 130.5 c 128,-1,5
 823 -16 823 -16 616 -16 c 0,6,7
 410 -16 410 -16 263.5 130.5 c 128,-1,8
 117 277 117 277 117 483 c 0,9,10
 117 690 117 690 263.5 836.5 c 128,-1,11
 410 983 410 983 616 983 c 0,0,1
616 147 m 0,12,13
 758 147 758 147 849 242 c 128,-1,14
 940 337 940 337 940 483 c 256,15,16
 940 629 940 629 849 724 c 128,-1,17
 758 819 758 819 616 819 c 0,18,19
 475 819 475 819 384 724 c 128,-1,20
 293 629 293 629 293 483 c 256,21,22
 293 337 293 337 384 242 c 128,-1,23
 475 147 475 147 616 147 c 0,12,13
616 598 m 0,24,25
 664 598 664 598 697.5 565 c 128,-1,26
 731 532 731 532 731 485 c 256,27,28
 731 438 731 438 697.5 404.5 c 128,-1,29
 664 371 664 371 616 371 c 0,30,31
 569 371 569 371 535.5 404.5 c 128,-1,32
 502 438 502 438 502 485 c 256,33,34
 502 532 502 532 535.5 565 c 128,-1,35
 569 598 569 598 616 598 c 0,24,25
EndSplineSet
EndChar

StartChar: afii59760
Encoding: 3664 3664 277
Width: 1233
GlyphClass: 2
Flags: W
LayerCount: 2
Fore
SplineSet
616 924 m 0,0,1
 834 924 834 924 975 794.5 c 128,-1,2
 1116 665 1116 665 1116 453 c 0,3,4
 1116 242 1116 242 975 113 c 128,-1,5
 834 -16 834 -16 616 -16 c 0,6,7
 399 -16 399 -16 258 113 c 128,-1,8
 117 242 117 242 117 453 c 0,9,10
 117 665 117 665 258 794.5 c 128,-1,11
 399 924 399 924 616 924 c 0,0,1
616 150 m 0,12,13
 765 150 765 150 852.5 231 c 128,-1,14
 940 312 940 312 940 453 c 256,15,16
 940 594 940 594 852 677 c 128,-1,17
 764 760 764 760 616 760 c 0,18,19
 469 760 469 760 381 677 c 128,-1,20
 293 594 293 594 293 453 c 0,21,22
 293 310 293 310 381.5 230 c 128,-1,23
 470 150 470 150 616 150 c 0,12,13
EndSplineSet
EndChar

StartChar: glyph279
Encoding: 65559 -1 279
Width: 0
GlyphClass: 2
Flags: W
LayerCount: 2
Fore
SplineSet
36 1831 m 1,0,-1
 36 863 l 1,1,-1
 -36 863 l 1,2,-1
 -36 1831 l 1,3,-1
 36 1831 l 1,0,-1
36 543 m 1,4,-1
 36 -423 l 1,5,-1
 -36 -423 l 1,6,-1
 -36 543 l 1,7,-1
 36 543 l 1,4,-1
EndSplineSet
EndChar

StartChar: glyph280
Encoding: 65560 -1 280
Width: 0
GlyphClass: 2
Flags: W
LayerCount: 2
Fore
SplineSet
-234 -423 m 1,0,-1
 -234 -352 l 1,1,-1
 -36 -352 l 1,2,-1
 -36 1760 l 1,3,-1
 -234 1760 l 1,4,-1
 -234 1831 l 1,5,-1
 234 1831 l 1,6,-1
 234 1760 l 1,7,-1
 36 1760 l 1,8,-1
 36 -352 l 1,9,-1
 234 -352 l 1,10,-1
 234 -423 l 1,11,-1
 -234 -423 l 1,0,-1
EndSplineSet
EndChar

StartChar: glyph281
Encoding: 65561 -1 281
Width: 0
GlyphClass: 2
Flags: W
LayerCount: 2
Fore
SplineSet
224 1646 m 1,0,-1
 36 1504 l 1,1,-1
 36 -423 l 1,2,-1
 -36 -423 l 1,3,-1
 -36 1831 l 1,4,-1
 224 1646 l 1,0,-1
EndSplineSet
EndChar

StartChar: glyph282
Encoding: 65562 -1 282
Width: 0
GlyphClass: 2
Flags: W
LayerCount: 2
Fore
SplineSet
36 1831 m 1,0,-1
 36 -423 l 1,1,-1
 -36 -423 l 1,2,-1
 -36 1504 l 1,3,-1
 -224 1646 l 1,4,-1
 36 1831 l 1,0,-1
EndSplineSet
EndChar

StartChar: glyph283
Encoding: 65563 -1 283
Width: 0
GlyphClass: 2
Flags: W
LayerCount: 2
Fore
SplineSet
36 1831 m 1,0,-1
 36 -352 l 1,1,-1
 234 -352 l 1,2,-1
 234 -423 l 1,3,-1
 -36 -423 l 1,4,-1
 -36 1831 l 1,5,-1
 36 1831 l 1,0,-1
EndSplineSet
EndChar

StartChar: glyph284
Encoding: 65564 -1 284
Width: 0
GlyphClass: 2
Flags: W
LayerCount: 2
Fore
SplineSet
224 1646 m 1,0,-1
 36 1504 l 1,1,-1
 36 -423 l 1,2,-1
 -36 -423 l 1,3,-1
 -36 1504 l 1,4,-1
 -224 1641 l 1,5,-1
 0 1831 l 1,6,-1
 224 1646 l 1,0,-1
EndSplineSet
EndChar

StartChar: uni0670
Encoding: 1648 1648 297
Width: 0
GlyphClass: 4
Flags: W
AnchorPoint: "Anchor-2" 0 0 mark 0
AnchorPoint: "Anchor-0" 0 0 mark 0
LayerCount: 2
Fore
SplineSet
75 260 m 1,0,1
 51 185 51 185 39.5 122 c 128,-1,2
 28 59 28 59 30 7 c 1,3,-1
 -30 7 l 1,4,5
 -32 59 -32 59 -23 125 c 128,-1,6
 -14 191 -14 191 9 273 c 1,7,-1
 75 260 l 1,8,-1
 75 260 l 1,0,1
EndSplineSet
EndChar

StartChar: glyph298
Encoding: 65565 -1 298
Width: 458
GlyphClass: 2
Flags: W
LayerCount: 2
Fore
SplineSet
235 1433 m 2,0,1
 266 1457 266 1457 294 1461.5 c 128,-1,2
 322 1466 322 1466 343 1455 c 128,-1,3
 364 1444 364 1444 377 1419 c 128,-1,4
 390 1394 390 1394 390 1357 c 2,5,-1
 389 1277 l 1,6,-1
 69 1277 l 1,7,-1
 69 1335 l 1,8,-1
 123 1335 l 1,9,-1
 235 1433 l 2,0,1
203 1335 m 1,10,-1
 331 1335 l 1,11,-1
 331 1365 l 2,12,13
 329 1394 329 1394 311 1402 c 128,-1,14
 293 1410 293 1410 263 1388 c 2,15,-1
 203 1335 l 1,10,-1
EndSplineSet
EndChar

StartChar: glyph299
Encoding: 65566 -1 299
Width: 1442
GlyphClass: 2
Flags: W
LayerCount: 2
Fore
SplineSet
1409 -78 m 2,0,1
 1356 -346 1356 -346 1022 -346 c 2,2,-1
 426 -346 l 2,3,4
 240 -346 240 -346 240 -168 c 0,5,6
 240 -152 240 -152 243 -126.5 c 128,-1,7
 246 -101 246 -101 254 -66 c 2,8,-1
 442 856 l 1,9,-1
 715 754 l 1,10,-1
 565 -6 l 2,11,12
 563 -17 563 -17 562 -24.5 c 128,-1,13
 561 -32 561 -32 561 -37 c 0,14,15
 561 -94 561 -94 616 -94 c 2,16,-1
 930 -94 l 2,17,18
 982 -94 982 -94 1017 -92.5 c 128,-1,19
 1052 -91 1052 -91 1069 -86 c 0,20,21
 1144 -65 1144 -65 1159 0 c 1,22,23
 1045 -2 1045 -2 968.5 4.5 c 128,-1,24
 892 11 892 11 854 25 c 0,25,26
 768 58 768 58 768 164 c 0,27,28
 768 186 768 186 770.5 211.5 c 128,-1,29
 773 237 773 237 778 266 c 2,30,-1
 823 510 l 2,31,32
 843 619 843 619 861.5 687.5 c 128,-1,33
 880 756 880 756 897 782 c 0,34,35
 945 858 945 858 1092 858 c 2,36,-1
 1251 858 l 2,37,38
 1401 858 1401 858 1448 846 c 0,39,40
 1556 817 1556 817 1556 713 c 0,41,42
 1556 690 1556 690 1553 659 c 128,-1,43
 1550 628 1550 628 1542 590 c 2,44,-1
 1409 -78 l 2,0,1
1233 678 m 2,45,46
 1148 678 1148 678 1116 606 c 0,47,48
 1108 587 1108 587 1085 459 c 2,49,-1
 1051 250 l 1,50,-1
 1085 250 l 2,51,52
 1122 250 1122 250 1145.5 254.5 c 128,-1,53
 1169 259 1169 259 1183.5 272.5 c 128,-1,54
 1198 286 1198 286 1206.5 309.5 c 128,-1,55
 1215 333 1215 333 1221 371 c 2,56,-1
 1274 678 l 1,57,-1
 1233 678 l 2,45,46
EndSplineSet
EndChar

StartChar: uni06DD
Encoding: 1757 1757 388
Width: 2300
GlyphClass: 2
Flags: W
LayerCount: 2
Fore
SplineSet
2250 715 m 256,0,1
 2250 469 2250 469 2146 249 c 0,2,3
 2046 35 2046 35 1867 -119 c 1,4,5
 1870 -133 1870 -133 1870 -148 c 0,6,7
 1870 -203 1870 -203 1831 -241.5 c 128,-1,8
 1792 -280 1792 -280 1737 -280 c 0,9,10
 1697 -280 1697 -280 1664 -258 c 1,11,12
 1424 -385 1424 -385 1149 -385 c 0,13,14
 876 -385 876 -385 636 -258 c 1,15,16
 603 -280 603 -280 563 -280 c 0,17,18
 508 -280 508 -280 469 -241.5 c 128,-1,19
 430 -203 430 -203 430 -148 c 0,20,21
 430 -133 430 -133 433 -119 c 1,22,23
 254 35 254 35 154 249 c 0,24,25
 50 469 50 469 50 715 c 256,26,27
 50 961 50 961 154 1181 c 0,28,29
 254 1394 254 1394 433 1548 c 1,30,31
 430 1562 430 1562 430 1577 c 0,32,33
 430 1632 430 1632 469 1670.5 c 128,-1,34
 508 1709 508 1709 563 1709 c 0,35,36
 603 1709 603 1709 636 1687 c 1,37,38
 876 1814 876 1814 1151 1814 c 0,39,40
 1424 1814 1424 1814 1664 1687 c 1,41,42
 1697 1709 1697 1709 1737 1709 c 0,43,44
 1792 1709 1792 1709 1831 1670.5 c 128,-1,45
 1870 1632 1870 1632 1870 1577 c 0,46,47
 1870 1562 1870 1562 1867 1548 c 1,48,49
 2046 1394 2046 1394 2146 1181 c 0,50,51
 2250 961 2250 961 2250 715 c 256,0,1
1816 1576 m 0,52,53
 1816 1609 1816 1609 1793 1632 c 128,-1,54
 1770 1655 1770 1655 1738 1655 c 256,55,56
 1706 1655 1706 1655 1682.5 1631.5 c 128,-1,57
 1659 1608 1659 1608 1659 1576 c 256,58,59
 1659 1544 1659 1544 1682 1521 c 128,-1,60
 1705 1498 1705 1498 1738 1498 c 0,61,62
 1770 1498 1770 1498 1793 1521 c 128,-1,63
 1816 1544 1816 1544 1816 1576 c 0,52,53
1602 1595 m 1,64,65
 1390 1704 1390 1704 1151 1704 c 0,66,67
 910 1704 910 1704 698 1595 c 1,68,-1
 1602 1595 l 1,64,65
641 1576 m 256,69,70
 641 1608 641 1608 617.5 1631.5 c 128,-1,71
 594 1655 594 1655 562 1655 c 256,72,73
 530 1655 530 1655 507 1632 c 128,-1,74
 484 1609 484 1609 484 1576 c 0,75,76
 484 1544 484 1544 507 1521 c 128,-1,77
 530 1498 530 1498 562 1498 c 0,78,79
 595 1498 595 1498 618 1521 c 128,-1,80
 641 1544 641 1544 641 1576 c 256,69,70
2140 714 m 0,81,82
 2140 933 2140 933 2048 1131 c 0,83,84
 1960 1321 1960 1321 1801 1460 c 1,85,86
 1772 1444 1772 1444 1737 1444 c 0,87,88
 1681 1444 1681 1444 1642 1485 c 1,89,-1
 658 1485 l 1,90,91
 619 1444 619 1444 563 1444 c 0,92,93
 528 1444 528 1444 499 1460 c 1,94,95
 340 1321 340 1321 252 1131 c 0,96,97
 160 933 160 933 160 714 c 0,98,99
 160 265 160 265 499 -31 c 1,100,101
 528 -15 528 -15 563 -15 c 0,102,103
 619 -15 619 -15 658 -56 c 1,104,-1
 1642 -56 l 1,105,106
 1681 -15 1681 -15 1737 -15 c 0,107,108
 1772 -15 1772 -15 1801 -31 c 1,109,110
 2140 265 2140 265 2140 714 c 0,81,82
1816 -147 m 0,111,112
 1816 -115 1816 -115 1793 -92 c 128,-1,113
 1770 -69 1770 -69 1738 -69 c 0,114,115
 1705 -69 1705 -69 1682 -92 c 128,-1,116
 1659 -115 1659 -115 1659 -147 c 256,117,118
 1659 -179 1659 -179 1682.5 -202.5 c 128,-1,119
 1706 -226 1706 -226 1738 -226 c 256,120,121
 1770 -226 1770 -226 1793 -203 c 128,-1,122
 1816 -180 1816 -180 1816 -147 c 0,111,112
1602 -166 m 1,123,-1
 698 -166 l 1,124,125
 910 -275 910 -275 1151 -275 c 0,126,127
 1390 -275 1390 -275 1602 -166 c 1,123,-1
641 -147 m 256,128,129
 641 -115 641 -115 618 -92 c 128,-1,130
 595 -69 595 -69 562 -69 c 0,131,132
 530 -69 530 -69 507 -92 c 128,-1,133
 484 -115 484 -115 484 -147 c 0,134,135
 484 -180 484 -180 507 -203 c 128,-1,136
 530 -226 530 -226 562 -226 c 256,137,138
 594 -226 594 -226 617.5 -202.5 c 128,-1,139
 641 -179 641 -179 641 -147 c 256,128,129
EndSplineSet
EndChar

StartChar: uni06DE
Encoding: 1758 1758 389
Width: 2221
GlyphClass: 2
Flags: W
LayerCount: 2
Fore
SplineSet
2171 750 m 1,0,-1
 1861 439 l 1,1,-1
 1861 0 l 1,2,-1
 1421 0 l 1,3,-1
 1111 -311 l 1,4,-1
 800 0 l 1,5,-1
 361 0 l 1,6,-1
 361 439 l 1,7,-1
 50 750 l 1,8,-1
 361 1061 l 1,9,-1
 361 1500 l 1,10,-1
 800 1500 l 1,11,-1
 1111 1811 l 1,12,-1
 1421 1500 l 1,13,-1
 1861 1500 l 1,14,-1
 1861 1061 l 1,15,-1
 2171 750 l 1,0,-1
436 364 m 1,16,-1
 436 75 l 1,17,-1
 725 75 l 1,18,-1
 436 364 l 1,16,-1
725 1425 m 1,19,-1
 436 1425 l 1,20,-1
 436 1136 l 1,21,-1
 725 1425 l 1,19,-1
1786 1136 m 1,22,-1
 1786 1425 l 1,23,-1
 1496 1425 l 1,24,-1
 1786 1136 l 1,22,-1
1786 75 m 1,25,-1
 1786 364 l 1,26,-1
 1496 75 l 1,27,-1
 1786 75 l 1,25,-1
906 0 m 1,28,-1
 1111 -205 l 1,29,-1
 1315 0 l 1,30,-1
 906 0 l 1,28,-1
361 955 m 1,31,-1
 156 750 l 1,32,-1
 361 545 l 1,33,-1
 361 955 l 1,31,-1
1315 1500 m 1,34,-1
 1111 1705 l 1,35,-1
 906 1500 l 1,36,-1
 1315 1500 l 1,34,-1
1786 1030 m 1,37,-1
 1390 1425 l 1,38,-1
 831 1425 l 1,39,-1
 436 1030 l 1,40,-1
 436 470 l 1,41,-1
 831 75 l 1,42,-1
 1390 75 l 1,43,-1
 1786 470 l 1,44,-1
 1786 1030 l 1,37,-1
2065 750 m 1,45,-1
 1861 955 l 1,46,-1
 1861 545 l 1,47,-1
 2065 750 l 1,45,-1
1328 750 m 256,48,49
 1328 660 1328 660 1264.5 596 c 128,-1,50
 1201 532 1201 532 1111 532 c 256,51,52
 1021 532 1021 532 957 596 c 128,-1,53
 893 660 893 660 893 750 c 256,54,55
 893 840 893 840 957 903.5 c 128,-1,56
 1021 967 1021 967 1111 967 c 256,57,58
 1201 967 1201 967 1264.5 903.5 c 128,-1,59
 1328 840 1328 840 1328 750 c 256,48,49
1253 750 m 256,60,61
 1253 809 1253 809 1211 850.5 c 128,-1,62
 1169 892 1169 892 1110 892 c 256,63,64
 1051 892 1051 892 1009 850.5 c 128,-1,65
 967 809 967 809 967 750 c 256,66,67
 967 691 967 691 1009 649 c 128,-1,68
 1051 607 1051 607 1110 607 c 256,69,70
 1169 607 1169 607 1211 649 c 128,-1,71
 1253 691 1253 691 1253 750 c 256,60,61
EndSplineSet
EndChar

StartChar: uni06DF
Encoding: 1759 1759 390
Width: 0
GlyphClass: 2
Flags: W
LayerCount: 2
Fore
SplineSet
75 1429 m 256,0,1
 75 1398 75 1398 53 1376 c 128,-1,2
 31 1354 31 1354 0 1354 c 256,3,4
 -31 1354 -31 1354 -53 1376 c 128,-1,5
 -75 1398 -75 1398 -75 1429 c 256,6,7
 -75 1460 -75 1460 -53 1482 c 128,-1,8
 -31 1504 -31 1504 0 1504 c 256,9,10
 31 1504 31 1504 53 1482 c 128,-1,11
 75 1460 75 1460 75 1429 c 256,0,1
EndSplineSet
EndChar

StartChar: uni06E9
Encoding: 1769 1769 391
Width: 1229
GlyphClass: 2
Flags: W
LayerCount: 2
Fore
SplineSet
1179 0 m 1,0,-1
 50 0 l 1,1,-1
 278 261 l 1,2,-1
 278 849 l 1,3,-1
 50 1108 l 1,4,-1
 614 1676 l 1,5,-1
 1179 1108 l 1,6,-1
 951 849 l 1,7,-1
 951 261 l 1,8,-1
 1179 0 l 1,0,-1
1101 1108 m 1,9,-1
 614 1598 l 1,10,-1
 128 1108 l 1,11,-1
 338 871 l 1,12,-1
 338 239 l 1,13,-1
 178 56 l 1,14,-1
 1051 56 l 1,15,-1
 891 239 l 1,16,-1
 891 871 l 1,17,-1
 1101 1108 l 1,9,-1
995 1108 m 1,18,-1
 845 937 l 1,19,-1
 845 131 l 1,20,-1
 384 131 l 1,21,-1
 384 937 l 1,22,-1
 234 1108 l 1,23,-1
 614 1489 l 1,24,-1
 995 1108 l 1,18,-1
922 1108 m 1,25,-1
 614 1416 l 1,26,-1
 307 1108 l 1,27,-1
 433 968 l 1,28,-1
 433 186 l 1,29,-1
 796 186 l 1,30,-1
 796 968 l 1,31,-1
 922 1108 l 1,25,-1
833 1108 m 1,32,-1
 745 1011 l 1,33,-1
 745 267 l 1,34,-1
 484 267 l 1,35,-1
 484 1011 l 1,36,-1
 396 1108 l 1,37,-1
 614 1331 l 1,38,-1
 833 1108 l 1,32,-1
780 1108 m 1,39,-1
 614 1278 l 1,40,-1
 449 1108 l 1,41,-1
 523 1027 l 1,42,-1
 523 309 l 1,43,-1
 705 309 l 1,44,-1
 705 1027 l 1,45,-1
 780 1108 l 1,39,-1
EndSplineSet
EndChar

StartChar: uni06EB
Encoding: 1771 1771 393
Width: 0
GlyphClass: 2
Flags: W
LayerCount: 2
Fore
SplineSet
168 1522 m 1,0,-1
 -1 1354 l 1,1,-1
 -168 1521 l 1,2,-1
 1 1689 l 1,3,-1
 168 1522 l 1,0,-1
104 1522 m 1,4,-1
 0 1626 l 1,5,-1
 -104 1521 l 1,6,-1
 0 1417 l 1,7,-1
 104 1522 l 1,4,-1
EndSplineSet
EndChar

StartChar: comma
Encoding: 44 44 402
Width: 519
Flags: W
LayerCount: 2
Fore
SplineSet
94 -270 m 1,0,1
 206 -202 206 -202 262 -147 c 128,-1,2
 318 -92 318 -92 329 -42 c 0,3,4
 332 -28 332 -28 325 -17.5 c 128,-1,5
 318 -7 318 -7 306 -7 c 2,6,-1
 293 -7 l 1,7,-1
 271 -10 l 1,8,-1
 258 -10 l 2,9,10
 250 -10 250 -10 240 -7.5 c 128,-1,11
 230 -5 230 -5 220.5 -1 c 128,-1,12
 211 3 211 3 202 8.5 c 128,-1,13
 193 14 193 14 188 20 c 0,14,15
 169 36 169 36 163.5 62.5 c 128,-1,16
 158 89 158 89 165 122 c 0,17,18
 179 187 179 187 226.5 225.5 c 128,-1,19
 274 264 274 264 337 264 c 0,20,21
 375 264 375 264 403.5 249.5 c 128,-1,22
 432 235 432 235 449.5 209 c 128,-1,23
 467 183 467 183 472 147 c 128,-1,24
 477 111 477 111 468 67 c 0,25,26
 456 12 456 12 428.5 -37.5 c 128,-1,27
 401 -87 401 -87 357.5 -132.5 c 128,-1,28
 314 -178 314 -178 251 -221.5 c 128,-1,29
 188 -265 188 -265 105 -308 c 1,30,-1
 94 -270 l 1,0,1
EndSplineSet
EndChar

StartChar: afii57407
Encoding: 1567 1567 403
Width: 918
GlyphClass: 2
Flags: W
LayerCount: 2
Fore
SplineSet
964 920 m 1,0,1
 869 993 869 993 755 993 c 0,2,3
 720 993 720 993 684.5 983 c 128,-1,4
 649 973 649 973 618.5 953.5 c 128,-1,5
 588 934 588 934 564.5 905.5 c 128,-1,6
 541 877 541 877 532 840 c 1,7,8
 529 807 529 807 535 778.5 c 128,-1,9
 541 750 541 750 567 716.5 c 128,-1,10
 593 683 593 683 645 639 c 128,-1,11
 697 595 697 595 786 532 c 1,12,13
 878 443 878 443 878 315 c 0,14,15
 878 301 878 301 877 287.5 c 128,-1,16
 876 274 876 274 874 260 c 1,17,-1
 616 260 l 1,18,19
 610 287 610 287 603.5 317 c 128,-1,20
 597 347 597 347 576.5 383.5 c 128,-1,21
 556 420 556 420 516.5 465.5 c 128,-1,22
 477 511 477 511 405 569 c 1,23,24
 335 637 335 637 311 714 c 128,-1,25
 287 791 287 791 299.5 866.5 c 128,-1,26
 312 942 312 942 355.5 1010 c 128,-1,27
 399 1078 399 1078 464.5 1127.5 c 128,-1,28
 530 1177 530 1177 612 1202.5 c 128,-1,29
 694 1228 694 1228 784 1218 c 0,30,31
 859 1210 859 1210 933 1179.5 c 128,-1,32
 1007 1149 1007 1149 1083 1100 c 1,33,-1
 964 920 l 1,0,1
780 -17 m 1,34,-1
 542 -17 l 1,35,-1
 632 188 l 1,36,-1
 872 188 l 1,37,-1
 780 -17 l 1,34,-1
EndSplineSet
EndChar

StartChar: afii57392
Encoding: 1776 1776 404
Width: 559
Flags: W
LayerCount: 2
Fore
SplineSet
596 221 m 1,0,-1
 264 221 l 1,1,-1
 319 494 l 1,2,-1
 649 494 l 1,3,-1
 596 221 l 1,0,-1
EndSplineSet
EndChar

StartChar: afii57393
Encoding: 1777 1777 405
Width: 528
Flags: W
LayerCount: 2
Fore
SplineSet
514 0 m 1,0,-1
 221 0 l 1,1,-1
 465 1171 l 1,2,-1
 737 1092 l 1,3,-1
 514 0 l 1,0,-1
EndSplineSet
EndChar

StartChar: afii57394
Encoding: 1778 1778 406
Width: 932
Flags: W
LayerCount: 2
Fore
SplineSet
1075 561 m 2,0,1
 1048 436 1048 436 1028 403 c 0,2,3
 972 317 972 317 831 317 c 2,4,-1
 662 317 l 2,5,6
 614 317 614 317 588 346 c 1,7,-1
 518 0 l 1,8,-1
 223 0 l 1,9,-1
 461 1174 l 1,10,-1
 737 1085 l 1,11,-1
 645 668 l 2,12,13
 643 658 643 658 642 649.5 c 128,-1,14
 641 641 641 641 641 633 c 0,15,16
 641 566 641 566 709 569 c 0,17,18
 790 572 790 572 811 668 c 2,19,-1
 913 1174 l 1,20,-1
 1190 1083 l 1,21,-1
 1075 561 l 2,0,1
EndSplineSet
EndChar

StartChar: afii57395
Encoding: 1779 1779 407
Width: 1378
Flags: W
LayerCount: 2
Fore
SplineSet
1528 559 m 2,0,1
 1500 434 1500 434 1481 401 c 0,2,3
 1422 315 1422 315 1282 315 c 2,4,-1
 1114 315 l 2,5,6
 1052 315 1052 315 1004 377 c 1,7,8
 972 315 972 315 913 315 c 2,9,-1
 694 315 l 2,10,11
 624 315 624 315 590 346 c 1,12,-1
 518 0 l 1,13,-1
 223 0 l 1,14,-1
 461 1171 l 1,15,-1
 737 1083 l 1,16,-1
 645 666 l 2,17,18
 643 655 643 655 642 645 c 128,-1,19
 641 635 641 635 641 627 c 0,20,21
 641 564 641 564 709 567 c 0,22,23
 790 570 790 570 811 666 c 2,24,-1
 913 1171 l 1,25,-1
 1190 1083 l 1,26,-1
 1098 666 l 2,27,28
 1096 656 1096 656 1095 647.5 c 128,-1,29
 1094 639 1094 639 1094 631 c 0,30,31
 1094 564 1094 564 1161 567 c 0,32,33
 1203 569 1203 569 1227.5 593.5 c 128,-1,34
 1252 618 1252 618 1262 666 c 2,35,-1
 1364 1171 l 1,36,-1
 1642 1081 l 1,37,-1
 1528 559 l 2,0,1
EndSplineSet
EndChar

StartChar: afii62843
Encoding: 1780 1780 408
Width: 1458
Flags: W
LayerCount: 2
Fore
SplineSet
1548 928 m 1,0,1
 1467 928 1467 928 1418 927 c 128,-1,2
 1369 926 1369 926 1352 924 c 0,3,4
 1289 916 1289 916 1245 897.5 c 128,-1,5
 1201 879 1201 879 1178 850 c 0,6,7
 1168 838 1168 838 1149.5 802.5 c 128,-1,8
 1131 767 1131 767 1102 707 c 256,9,10
 1073 647 1073 647 1073 618 c 0,11,12
 1073 569 1073 569 1139 569 c 2,13,-1
 1458 569 l 1,14,-1
 1397 317 l 1,15,-1
 662 317 l 2,16,17
 614 317 614 317 588 346 c 1,18,-1
 518 0 l 1,19,-1
 223 0 l 1,20,-1
 461 1174 l 1,21,-1
 737 1085 l 1,22,-1
 645 668 l 2,23,24
 643 658 643 658 642 649.5 c 128,-1,25
 641 641 641 641 641 633 c 0,26,27
 641 566 641 566 709 569 c 0,28,29
 787 572 787 572 811 668 c 0,30,31
 879 947 879 947 967 1040 c 0,32,33
 1094 1176 1094 1176 1397 1176 c 2,34,-1
 1610 1176 l 1,35,-1
 1548 928 l 1,0,1
EndSplineSet
EndChar

StartChar: afii62844
Encoding: 1781 1781 409
Width: 1300
Flags: W
LayerCount: 2
Fore
SplineSet
1225 246 m 2,0,1
 1214 187 1214 187 1201 147.5 c 128,-1,2
 1188 108 1188 108 1174 86 c 0,3,4
 1115 0 1115 0 971 0 c 2,5,-1
 899 0 l 2,6,7
 862 0 862 0 839 1 c 128,-1,8
 816 2 816 2 807 4 c 0,9,10
 787 9 787 9 768.5 23.5 c 128,-1,11
 750 38 750 38 733 61 c 1,12,13
 694 0 694 0 635 0 c 2,14,-1
 401 0 l 2,15,16
 307 0 307 0 266 29 c 0,17,18
 213 62 213 62 213 152 c 0,19,20
 213 175 213 175 216 203.5 c 128,-1,21
 219 232 219 232 227 264 c 2,22,-1
 350 854 l 1,23,-1
 635 854 l 1,24,-1
 514 250 l 1,25,-1
 635 252 l 1,26,-1
 678 453 l 1,27,-1
 872 514 l 1,28,-1
 819 252 l 1,29,-1
 848 252 l 2,30,31
 907 252 907 252 928 272 c 0,32,33
 942 287 942 287 954 350 c 2,34,-1
 1063 930 l 1,35,-1
 365 930 l 1,36,-1
 414 1178 l 1,37,-1
 1176 1178 l 2,38,39
 1224 1178 1224 1178 1257.5 1170.5 c 128,-1,40
 1291 1163 1291 1163 1311 1149 c 0,41,42
 1362 1113 1362 1113 1362 1022 c 0,43,44
 1362 975 1362 975 1350 911 c 2,45,-1
 1225 246 l 2,0,1
EndSplineSet
EndChar

StartChar: afii62845
Encoding: 1782 1782 410
Width: 1055
Flags: W
LayerCount: 2
Fore
SplineSet
643 0 m 1,0,-1
 344 0 l 1,1,-1
 498 293 l 1,2,3
 221 381 221 381 221 592 c 0,4,5
 221 626 221 626 229 661.5 c 128,-1,6
 237 697 237 697 254 735 c 2,7,-1
 440 1176 l 1,8,-1
 692 1085 l 1,9,-1
 543 735 l 2,10,11
 535 720 535 720 531.5 706 c 128,-1,12
 528 692 528 692 528 678 c 0,13,14
 528 598 528 598 625 569 c 1,15,-1
 907 1171 l 1,16,-1
 1163 1085 l 1,17,-1
 643 0 l 1,0,-1
EndSplineSet
EndChar

StartChar: afii57399
Encoding: 1783 1783 411
Width: 1233
Flags: W
LayerCount: 2
Fore
SplineSet
1153 477 m 2,0,1
 1099 346 1099 346 1060.5 259 c 128,-1,2
 1022 172 1022 172 997 129 c 0,3,4
 968 78 968 78 937 46 c 128,-1,5
 906 14 906 14 870 0 c 0,6,7
 844 -11 844 -11 795 -15.5 c 128,-1,8
 746 -20 746 -20 674 -20 c 0,9,10
 605 -20 605 -20 560.5 -15.5 c 128,-1,11
 516 -11 516 -11 496 0 c 0,12,13
 441 24 441 24 426 129 c 0,14,15
 414 211 414 211 414 477 c 2,16,-1
 412 1069 l 1,17,-1
 700 1153 l 1,18,-1
 700 584 l 2,19,20
 700 409 700 409 700 359 c 128,-1,21
 700 309 700 309 698 381 c 1,22,23
 701 229 701 229 725 229 c 0,24,25
 742 229 742 229 767 270.5 c 128,-1,26
 792 312 792 312 827 393 c 0,27,28
 841 425 841 425 859.5 473 c 128,-1,29
 878 521 878 521 903 584 c 2,30,-1
 1145 1157 l 1,31,-1
 1395 1067 l 1,32,-1
 1153 477 l 2,0,1
EndSplineSet
EndChar

StartChar: afii57400
Encoding: 1784 1784 412
Width: 1225
Flags: W
LayerCount: 2
Fore
SplineSet
913 -14 m 1,0,-1
 915 758 l 2,1,2
 912 909 912 909 889 909 c 0,3,4
 872 909 872 909 847 868 c 128,-1,5
 822 827 822 827 786 743 c 2,6,-1
 711 555 l 1,7,-1
 469 -20 l 1,8,-1
 219 70 l 1,9,-1
 461 662 l 2,10,11
 515 796 515 796 553 881.5 c 128,-1,12
 591 967 591 967 614 1008 c 0,13,14
 672 1108 672 1108 743 1137 c 0,15,16
 769 1148 769 1148 818.5 1152.5 c 128,-1,17
 868 1157 868 1157 940 1157 c 0,18,19
 1079 1157 1079 1157 1118 1139 c 0,20,21
 1144 1125 1144 1125 1162 1093 c 128,-1,22
 1180 1061 1180 1061 1188 1010 c 0,23,24
 1200 929 1200 929 1200 662 c 2,25,-1
 1202 68 l 1,26,-1
 913 -14 l 1,0,-1
EndSplineSet
EndChar

StartChar: afii57401
Encoding: 1785 1785 413
Width: 850
Flags: W
LayerCount: 2
Fore
SplineSet
850 0 m 1,0,-1
 557 0 l 1,1,-1
 625 305 l 1,2,3
 413 305 413 305 356 322 c 0,4,5
 258 349 258 349 258 461 c 0,6,7
 258 484 258 484 261 511.5 c 128,-1,8
 264 539 264 539 272 571 c 2,9,-1
 330 815 l 2,10,11
 383 1046 383 1046 406 1087 c 0,12,13
 450 1163 450 1163 594 1163 c 2,14,-1
 825 1163 l 2,15,16
 882 1163 882 1163 921 1157.5 c 128,-1,17
 960 1152 960 1152 983 1141 c 0,18,19
 1055 1106 1055 1106 1055 1008 c 0,20,21
 1055 983 1055 983 1051.5 954 c 128,-1,22
 1048 925 1048 925 1040 893 c 2,23,-1
 850 0 l 1,0,-1
717 913 m 2,24,25
 653 913 653 913 641 887 c 0,26,27
 635 879 635 879 604 735 c 2,28,-1
 565 557 l 1,29,-1
 594 557 l 2,30,31
 653 557 653 557 670 575 c 0,32,33
 681 590 681 590 696 657 c 2,34,-1
 750 913 l 1,35,-1
 717 913 l 2,24,25
EndSplineSet
EndChar

StartChar: afii57392.001
Encoding: 1632 1632 414
Width: 559
Flags: W
LayerCount: 2
Fore
SplineSet
596 221 m 1,0,-1
 264 221 l 1,1,-1
 319 494 l 1,2,-1
 649 494 l 1,3,-1
 596 221 l 1,0,-1
EndSplineSet
EndChar

StartChar: afii57393.001
Encoding: 1633 1633 415
Width: 528
Flags: W
LayerCount: 2
Fore
SplineSet
514 0 m 1,0,-1
 221 0 l 1,1,-1
 465 1171 l 1,2,-1
 737 1092 l 1,3,-1
 514 0 l 1,0,-1
EndSplineSet
EndChar

StartChar: afii57394.001
Encoding: 1634 1634 416
Width: 932
Flags: W
LayerCount: 2
Fore
SplineSet
1075 561 m 2,0,1
 1048 436 1048 436 1028 403 c 0,2,3
 972 317 972 317 831 317 c 2,4,-1
 662 317 l 2,5,6
 614 317 614 317 588 346 c 1,7,-1
 518 0 l 1,8,-1
 223 0 l 1,9,-1
 461 1174 l 1,10,-1
 737 1085 l 1,11,-1
 645 668 l 2,12,13
 643 658 643 658 642 649.5 c 128,-1,14
 641 641 641 641 641 633 c 0,15,16
 641 566 641 566 709 569 c 0,17,18
 790 572 790 572 811 668 c 2,19,-1
 913 1174 l 1,20,-1
 1190 1083 l 1,21,-1
 1075 561 l 2,0,1
EndSplineSet
EndChar

StartChar: afii57395.001
Encoding: 1635 1635 417
Width: 1378
Flags: W
LayerCount: 2
Fore
SplineSet
1528 559 m 2,0,1
 1500 434 1500 434 1481 401 c 0,2,3
 1422 315 1422 315 1282 315 c 2,4,-1
 1114 315 l 2,5,6
 1052 315 1052 315 1004 377 c 1,7,8
 972 315 972 315 913 315 c 2,9,-1
 694 315 l 2,10,11
 624 315 624 315 590 346 c 1,12,-1
 518 0 l 1,13,-1
 223 0 l 1,14,-1
 461 1171 l 1,15,-1
 737 1083 l 1,16,-1
 645 666 l 2,17,18
 643 655 643 655 642 645 c 128,-1,19
 641 635 641 635 641 627 c 0,20,21
 641 564 641 564 709 567 c 0,22,23
 790 570 790 570 811 666 c 2,24,-1
 913 1171 l 1,25,-1
 1190 1083 l 1,26,-1
 1098 666 l 2,27,28
 1096 656 1096 656 1095 647.5 c 128,-1,29
 1094 639 1094 639 1094 631 c 0,30,31
 1094 564 1094 564 1161 567 c 0,32,33
 1203 569 1203 569 1227.5 593.5 c 128,-1,34
 1252 618 1252 618 1262 666 c 2,35,-1
 1364 1171 l 1,36,-1
 1642 1081 l 1,37,-1
 1528 559 l 2,0,1
EndSplineSet
EndChar

StartChar: afii57396
Encoding: 1636 1636 418
Width: 1458
Flags: W
LayerCount: 2
Fore
SplineSet
1548 928 m 1,0,1
 1467 928 1467 928 1418 927 c 128,-1,2
 1369 926 1369 926 1352 924 c 0,3,4
 1289 916 1289 916 1245 897.5 c 128,-1,5
 1201 879 1201 879 1178 850 c 0,6,7
 1168 838 1168 838 1149.5 802.5 c 128,-1,8
 1131 767 1131 767 1102 707 c 256,9,10
 1073 647 1073 647 1073 618 c 0,11,12
 1073 569 1073 569 1139 569 c 2,13,-1
 1458 569 l 1,14,-1
 1397 317 l 1,15,-1
 662 317 l 2,16,17
 614 317 614 317 588 346 c 1,18,-1
 518 0 l 1,19,-1
 223 0 l 1,20,-1
 461 1174 l 1,21,-1
 737 1085 l 1,22,-1
 645 668 l 2,23,24
 643 658 643 658 642 649.5 c 128,-1,25
 641 641 641 641 641 633 c 0,26,27
 641 566 641 566 709 569 c 0,28,29
 787 572 787 572 811 668 c 0,30,31
 879 947 879 947 967 1040 c 0,32,33
 1094 1176 1094 1176 1397 1176 c 2,34,-1
 1610 1176 l 1,35,-1
 1548 928 l 1,0,1
EndSplineSet
EndChar

StartChar: afii57397
Encoding: 1637 1637 419
Width: 1300
Flags: W
LayerCount: 2
Fore
SplineSet
1225 246 m 2,0,1
 1214 187 1214 187 1201 147.5 c 128,-1,2
 1188 108 1188 108 1174 86 c 0,3,4
 1115 0 1115 0 971 0 c 2,5,-1
 899 0 l 2,6,7
 862 0 862 0 839 1 c 128,-1,8
 816 2 816 2 807 4 c 0,9,10
 787 9 787 9 768.5 23.5 c 128,-1,11
 750 38 750 38 733 61 c 1,12,13
 694 0 694 0 635 0 c 2,14,-1
 401 0 l 2,15,16
 307 0 307 0 266 29 c 0,17,18
 213 62 213 62 213 152 c 0,19,20
 213 175 213 175 216 203.5 c 128,-1,21
 219 232 219 232 227 264 c 2,22,-1
 350 854 l 1,23,-1
 635 854 l 1,24,-1
 514 250 l 1,25,-1
 635 252 l 1,26,-1
 678 453 l 1,27,-1
 872 514 l 1,28,-1
 819 252 l 1,29,-1
 848 252 l 2,30,31
 907 252 907 252 928 272 c 0,32,33
 942 287 942 287 954 350 c 2,34,-1
 1063 930 l 1,35,-1
 365 930 l 1,36,-1
 414 1178 l 1,37,-1
 1176 1178 l 2,38,39
 1224 1178 1224 1178 1257.5 1170.5 c 128,-1,40
 1291 1163 1291 1163 1311 1149 c 0,41,42
 1362 1113 1362 1113 1362 1022 c 0,43,44
 1362 975 1362 975 1350 911 c 2,45,-1
 1225 246 l 2,0,1
EndSplineSet
EndChar

StartChar: afii57398
Encoding: 1638 1638 420
Width: 1055
Flags: W
LayerCount: 2
Fore
SplineSet
643 0 m 1,0,-1
 344 0 l 1,1,-1
 498 293 l 1,2,3
 221 381 221 381 221 592 c 0,4,5
 221 626 221 626 229 661.5 c 128,-1,6
 237 697 237 697 254 735 c 2,7,-1
 440 1176 l 1,8,-1
 692 1085 l 1,9,-1
 543 735 l 2,10,11
 535 720 535 720 531.5 706 c 128,-1,12
 528 692 528 692 528 678 c 0,13,14
 528 598 528 598 625 569 c 1,15,-1
 907 1171 l 1,16,-1
 1163 1085 l 1,17,-1
 643 0 l 1,0,-1
EndSplineSet
EndChar

StartChar: afii57399.001
Encoding: 1639 1639 421
Width: 1233
Flags: W
LayerCount: 2
Fore
SplineSet
1153 477 m 2,0,1
 1099 346 1099 346 1060.5 259 c 128,-1,2
 1022 172 1022 172 997 129 c 0,3,4
 968 78 968 78 937 46 c 128,-1,5
 906 14 906 14 870 0 c 0,6,7
 844 -11 844 -11 795 -15.5 c 128,-1,8
 746 -20 746 -20 674 -20 c 0,9,10
 605 -20 605 -20 560.5 -15.5 c 128,-1,11
 516 -11 516 -11 496 0 c 0,12,13
 441 24 441 24 426 129 c 0,14,15
 414 211 414 211 414 477 c 2,16,-1
 412 1069 l 1,17,-1
 700 1153 l 1,18,-1
 700 584 l 2,19,20
 700 409 700 409 700 359 c 128,-1,21
 700 309 700 309 698 381 c 1,22,23
 701 229 701 229 725 229 c 0,24,25
 742 229 742 229 767 270.5 c 128,-1,26
 792 312 792 312 827 393 c 0,27,28
 841 425 841 425 859.5 473 c 128,-1,29
 878 521 878 521 903 584 c 2,30,-1
 1145 1157 l 1,31,-1
 1395 1067 l 1,32,-1
 1153 477 l 2,0,1
EndSplineSet
EndChar

StartChar: afii57400.001
Encoding: 1640 1640 422
Width: 1225
Flags: W
LayerCount: 2
Fore
SplineSet
913 -14 m 1,0,-1
 915 758 l 2,1,2
 912 909 912 909 889 909 c 0,3,4
 872 909 872 909 847 868 c 128,-1,5
 822 827 822 827 786 743 c 2,6,-1
 711 555 l 1,7,-1
 469 -20 l 1,8,-1
 219 70 l 1,9,-1
 461 662 l 2,10,11
 515 796 515 796 553 881.5 c 128,-1,12
 591 967 591 967 614 1008 c 0,13,14
 672 1108 672 1108 743 1137 c 0,15,16
 769 1148 769 1148 818.5 1152.5 c 128,-1,17
 868 1157 868 1157 940 1157 c 0,18,19
 1079 1157 1079 1157 1118 1139 c 0,20,21
 1144 1125 1144 1125 1162 1093 c 128,-1,22
 1180 1061 1180 1061 1188 1010 c 0,23,24
 1200 929 1200 929 1200 662 c 2,25,-1
 1202 68 l 1,26,-1
 913 -14 l 1,0,-1
EndSplineSet
EndChar

StartChar: afii57401.001
Encoding: 1641 1641 423
Width: 850
Flags: W
LayerCount: 2
Fore
SplineSet
850 0 m 1,0,-1
 557 0 l 1,1,-1
 625 305 l 1,2,3
 413 305 413 305 356 322 c 0,4,5
 258 349 258 349 258 461 c 0,6,7
 258 484 258 484 261 511.5 c 128,-1,8
 264 539 264 539 272 571 c 2,9,-1
 330 815 l 2,10,11
 383 1046 383 1046 406 1087 c 0,12,13
 450 1163 450 1163 594 1163 c 2,14,-1
 825 1163 l 2,15,16
 882 1163 882 1163 921 1157.5 c 128,-1,17
 960 1152 960 1152 983 1141 c 0,18,19
 1055 1106 1055 1106 1055 1008 c 0,20,21
 1055 983 1055 983 1051.5 954 c 128,-1,22
 1048 925 1048 925 1040 893 c 2,23,-1
 850 0 l 1,0,-1
717 913 m 2,24,25
 653 913 653 913 641 887 c 0,26,27
 635 879 635 879 604 735 c 2,28,-1
 565 557 l 1,29,-1
 594 557 l 2,30,31
 653 557 653 557 670 575 c 0,32,33
 681 590 681 590 696 657 c 2,34,-1
 750 913 l 1,35,-1
 717 913 l 2,24,25
EndSplineSet
EndChar

StartChar: guillemotleft
Encoding: 171 171 424
Width: 836
Flags: W
LayerCount: 2
Fore
SplineSet
442 616 m 1,0,1
 387 507 387 507 387 393 c 0,2,3
 387 255 387 255 518 82 c 1,4,-1
 518 83 l 1,5,6
 538 60 538 60 547.5 44 c 128,-1,7
 557 28 557 28 560 20 c 0,8,9
 560 -5 560 -5 534 -5 c 0,10,11
 528 -5 528 -5 513 1 c 0,12,13
 377 71 377 71 294 168 c 1,14,-1
 294 167 l 1,15,16
 202 276 202 276 202 396 c 0,17,18
 203 448 203 448 222.5 500 c 128,-1,19
 242 552 242 552 280 603 c 0,20,21
 307 640 307 640 344.5 676.5 c 128,-1,22
 382 713 382 713 426 745 c 0,23,24
 499 799 499 799 528 799 c 0,25,26
 563 799 563 799 563 775 c 0,27,28
 563 765 563 765 555 757 c 0,29,30
 528 730 528 730 509 708 c 128,-1,31
 490 686 490 686 477 668.5 c 128,-1,32
 464 651 464 651 455.5 638 c 128,-1,33
 447 625 447 625 441 615 c 2,34,-1
 442 616 l 1,0,1
721 616 m 1,35,36
 666 507 666 507 666 393 c 0,37,38
 666 255 666 255 797 82 c 1,39,-1
 797 83 l 1,40,41
 817 60 817 60 826.5 44 c 128,-1,42
 836 28 836 28 839 20 c 0,43,44
 839 -5 839 -5 813 -5 c 0,45,46
 806 -5 806 -5 793 1 c 0,47,48
 725 36 725 36 670 77 c 128,-1,49
 615 118 615 118 573 168 c 1,50,-1
 573 167 l 1,51,52
 481 276 481 276 481 396 c 0,53,54
 482 448 482 448 501.5 500 c 128,-1,55
 521 552 521 552 559 603 c 0,56,57
 586 640 586 640 623.5 676.5 c 128,-1,58
 661 713 661 713 705 745 c 0,59,60
 778 799 778 799 807 799 c 0,61,62
 842 799 842 799 842 775 c 0,63,64
 842 765 842 765 834 757 c 0,65,66
 807 730 807 730 788 708 c 128,-1,67
 769 686 769 686 756 668.5 c 128,-1,68
 743 651 743 651 734.5 638 c 128,-1,69
 726 625 726 625 720 615 c 2,70,-1
 721 616 l 1,35,36
EndSplineSet
EndChar

StartChar: guillemotright
Encoding: 187 187 425
Width: 836
Flags: W
LayerCount: 2
Fore
SplineSet
573 622 m 1,0,1
 561 641 561 641 537.5 674.5 c 128,-1,2
 514 708 514 708 460 762 c 0,3,4
 452 770 452 770 452 780 c 0,5,6
 452 804 452 804 487 804 c 0,7,8
 514 804 514 804 588 751 c 0,9,10
 631 719 631 719 668 683 c 128,-1,11
 705 647 705 647 732 610 c 0,12,13
 769 559 769 559 788.5 508 c 128,-1,14
 808 457 808 457 809 406 c 0,15,16
 809 287 809 287 718 179 c 1,17,-1
 718 180 l 1,18,19
 636 83 636 83 501 15 c 0,20,21
 487 9 487 9 481 9 c 0,22,23
 455 9 455 9 455 34 c 0,24,25
 458 42 458 42 467.5 57.5 c 128,-1,26
 477 73 477 73 497 96 c 1,27,-1
 497 95 l 1,28,29
 626 266 626 266 626 403 c 0,30,31
 626 515 626 515 572 623 c 1,32,-1
 573 622 l 1,0,1
297 622 m 1,33,34
 285 641 285 641 261.5 674.5 c 128,-1,35
 238 708 238 708 184 762 c 0,36,37
 176 770 176 770 176 780 c 0,38,39
 176 804 176 804 211 804 c 0,40,41
 238 804 238 804 312 751 c 0,42,43
 355 719 355 719 392 683 c 128,-1,44
 429 647 429 647 456 610 c 0,45,46
 493 559 493 559 512.5 508 c 128,-1,47
 532 457 532 457 533 406 c 0,48,49
 533 287 533 287 442 179 c 1,50,-1
 442 180 l 1,51,52
 360 83 360 83 225 15 c 0,53,54
 211 9 211 9 205 9 c 0,55,56
 179 9 179 9 179 34 c 0,57,58
 182 42 182 42 191.5 57.5 c 128,-1,59
 201 73 201 73 221 96 c 1,60,-1
 221 95 l 1,61,62
 350 266 350 266 350 403 c 0,63,64
 350 515 350 515 296 623 c 1,65,-1
 297 622 l 1,33,34
EndSplineSet
EndChar

StartChar: quoteleft
Encoding: 8216 8216 426
Width: 425
Flags: W
LayerCount: 2
Fore
SplineSet
121 993 m 0,0,1
 122 1058 122 1058 166 1121.5 c 128,-1,2
 210 1185 210 1185 265 1211 c 1,3,-1
 296 1153 l 1,4,5
 280 1144 280 1144 258 1120 c 128,-1,6
 236 1096 236 1096 226 1058 c 1,7,8
 292 1030 292 1030 289 975 c 0,9,10
 289 959 289 959 282.5 944.5 c 128,-1,11
 276 930 276 930 265 919 c 128,-1,12
 254 908 254 908 239 901.5 c 128,-1,13
 224 895 224 895 208 895 c 0,14,15
 188 895 188 895 171.5 903.5 c 128,-1,16
 155 912 155 912 144 925.5 c 128,-1,17
 133 939 133 939 127 957 c 128,-1,18
 121 975 121 975 121 993 c 0,0,1
EndSplineSet
EndChar

StartChar: quoteright
Encoding: 8217 8217 427
Width: 372
Flags: W
LayerCount: 2
Fore
SplineSet
311 1113 m 0,0,1
 310 1048 310 1048 266 984.5 c 128,-1,2
 222 921 222 921 167 895 c 1,3,-1
 136 953 l 1,4,5
 152 962 152 962 174 986 c 128,-1,6
 196 1010 196 1010 206 1048 c 1,7,8
 140 1076 140 1076 143 1131 c 0,9,10
 143 1147 143 1147 149.5 1161.5 c 128,-1,11
 156 1176 156 1176 167 1187 c 128,-1,12
 178 1198 178 1198 192.5 1204.5 c 128,-1,13
 207 1211 207 1211 224 1211 c 0,14,15
 244 1211 244 1211 260 1202.5 c 128,-1,16
 276 1194 276 1194 287.5 1180.5 c 128,-1,17
 299 1167 299 1167 305 1149 c 128,-1,18
 311 1131 311 1131 311 1113 c 0,0,1
EndSplineSet
EndChar

StartChar: afii57451
Encoding: 1611 1611 428
Width: 0
GlyphClass: 4
Flags: W
AnchorPoint: "Anchor-2" 0 0 mark 0
AnchorPoint: "Anchor-0" 0 0 mark 0
LayerCount: 2
Fore
SplineSet
192 151 m 1,0,-1
 -181 151 l 1,1,-1
 -163 233 l 1,2,-1
 210 233 l 1,3,-1
 192 151 l 1,0,-1
158 0 m 1,4,-1
 -215 0 l 1,5,-1
 -196 79 l 1,6,-1
 177 79 l 1,7,-1
 158 0 l 1,4,-1
EndSplineSet
EndChar

StartChar: afii57454
Encoding: 1614 1614 429
Width: 0
GlyphClass: 4
Flags: W
AnchorPoint: "Anchor-2" 0 0 mark 0
AnchorPoint: "Anchor-0" 0 0 mark 0
LayerCount: 2
Fore
SplineSet
158 0 m 1,0,-1
 -215 0 l 1,1,-1
 -196 79 l 1,2,-1
 177 79 l 1,3,-1
 158 0 l 1,0,-1
EndSplineSet
EndChar

StartChar: afii57455
Encoding: 1615 1615 430
Width: 0
GlyphClass: 4
Flags: W
AnchorPoint: "Anchor-2" 0 0 mark 0
AnchorPoint: "Anchor-0" 0 0 mark 0
LayerCount: 2
Fore
SplineSet
158 28 m 2,0,1
 152 -1 152 -1 119 -1 c 2,2,-1
 -195 -1 l 1,3,-1
 -177 71 l 1,4,-1
 -51 71 l 1,5,-1
 -20 169 l 2,6,7
 -11 206 -11 206 19 206 c 2,8,-1
 158 206 l 2,9,10
 197 206 197 206 191 177 c 2,11,-1
 158 28 l 2,0,1
117 138 m 1,12,13
 39 138 39 138 33 118 c 2,14,-1
 19 75 l 1,15,-1
 103 75 l 1,16,-1
 117 138 l 1,12,13
EndSplineSet
EndChar

StartChar: afii57452
Encoding: 1612 1612 431
Width: 0
GlyphClass: 4
Flags: W
AnchorPoint: "Anchor-2" 0 0 mark 0
AnchorPoint: "Anchor-0" 0 0 mark 0
LayerCount: 2
Fore
SplineSet
162 28 m 2,0,1
 156 -1 156 -1 123 -1 c 2,2,-1
 -221 -1 l 1,3,-1
 -203 71 l 1,4,-1
 -98 71 l 1,5,-1
 -131 179 l 1,6,-1
 -88 190 l 1,7,-1
 -51 71 l 1,8,-1
 -47 71 l 1,9,-1
 -18 169 l 2,10,11
 -9 206 -9 206 23 206 c 2,12,-1
 162 206 l 2,13,14
 201 206 201 206 195 177 c 2,15,-1
 162 28 l 2,0,1
121 138 m 1,16,17
 43 138 43 138 37 118 c 2,18,-1
 23 75 l 1,19,-1
 107 75 l 1,20,-1
 121 138 l 1,16,17
EndSplineSet
EndChar

StartChar: afii57456
Encoding: 1616 1616 432
Width: 0
GlyphClass: 4
Flags: W
AnchorPoint: "Anchor-3" 0 0 mark 0
AnchorPoint: "Anchor-1" 0 0 mark 0
LayerCount: 2
Fore
SplineSet
158 0 m 1,0,-1
 -215 0 l 1,1,-1
 -196 79 l 1,2,-1
 177 79 l 1,3,-1
 158 0 l 1,0,-1
EndSplineSet
EndChar

StartChar: afii57457
Encoding: 1617 1617 433
Width: 0
GlyphClass: 4
Flags: W
AnchorPoint: "Anchor-2" 0 0 mark 0
AnchorPoint: "Anchor-0" 0 0 mark 0
LayerCount: 2
Fore
SplineSet
166 100 m 2,0,1
 165 71 165 71 154.5 51.5 c 128,-1,2
 144 32 144 32 128 21 c 128,-1,3
 112 10 112 10 92 5.5 c 128,-1,4
 72 1 72 1 51 1 c 0,5,6
 22 1 22 1 2 15 c 128,-1,7
 -18 29 -18 29 -31 46 c 1,8,9
 -37 35 -37 35 -46.5 27 c 128,-1,10
 -56 19 -56 19 -66.5 14.5 c 128,-1,11
 -77 10 -77 10 -88 8 c 128,-1,12
 -99 6 -99 6 -107 6 c 0,13,14
 -129 6 -129 6 -147.5 12.5 c 128,-1,15
 -166 19 -166 19 -178 32.5 c 128,-1,16
 -190 46 -190 46 -195 67.5 c 128,-1,17
 -200 89 -200 89 -194 120 c 2,18,-1
 -169 228 l 1,19,-1
 -106 206 l 1,20,-1
 -129 103 l 1,21,22
 -129 72 -129 72 -98 72 c 0,23,24
 -81 72 -81 72 -71 77.5 c 128,-1,25
 -61 83 -61 83 -55 101 c 2,26,-1
 -35 202 l 1,27,28
 -28 200 -28 200 -9.5 198.5 c 128,-1,29
 9 197 9 197 34 195 c 1,30,31
 19 115 19 115 19 107 c 0,32,33
 18 93 18 93 24.5 80.5 c 128,-1,34
 31 68 31 68 51 68 c 0,35,36
 74 68 74 68 88 80 c 128,-1,37
 102 92 102 92 103 124 c 2,38,-1
 101 197 l 1,39,-1
 167 212 l 1,40,-1
 166 100 l 2,0,1
EndSplineSet
EndChar

StartChar: afii57458
Encoding: 1618 1618 434
Width: 0
GlyphClass: 4
Flags: W
AnchorPoint: "Anchor-2" 0 0 mark 0
AnchorPoint: "Anchor-0" 0 0 mark 0
LayerCount: 2
Fore
SplineSet
144 129 m 256,0,1
 144 101 144 101 133.5 76.5 c 128,-1,2
 123 52 123 52 104.5 34 c 128,-1,3
 86 16 86 16 61 6 c 128,-1,4
 36 -4 36 -4 8 -4 c 0,5,6
 -19 -4 -19 -4 -43.5 6.5 c 128,-1,7
 -68 17 -68 17 -86 35 c 128,-1,8
 -104 53 -104 53 -114.5 77.5 c 128,-1,9
 -125 102 -125 102 -125 129 c 0,10,11
 -125 157 -125 157 -114.5 181.5 c 128,-1,12
 -104 206 -104 206 -86 224 c 128,-1,13
 -68 242 -68 242 -43.5 252.5 c 128,-1,14
 -19 263 -19 263 8 263 c 0,15,16
 36 263 36 263 61 252.5 c 128,-1,17
 86 242 86 242 104.5 224 c 128,-1,18
 123 206 123 206 133.5 181.5 c 128,-1,19
 144 157 144 157 144 129 c 256,0,1
84 127 m 0,20,21
 84 159 84 159 62 181 c 128,-1,22
 40 203 40 203 8 203 c 0,23,24
 -23 203 -23 203 -44 181 c 128,-1,25
 -65 159 -65 159 -65 127 c 0,26,27
 -65 96 -65 96 -44 74.5 c 128,-1,28
 -23 53 -23 53 8 53 c 0,29,30
 40 53 40 53 62 74.5 c 128,-1,31
 84 96 84 96 84 127 c 0,20,21
EndSplineSet
EndChar

StartChar: exclam
Encoding: 33 33 437
Width: 645
GlyphClass: 2
Flags: W
LayerCount: 2
Fore
SplineSet
530 348 m 1,0,-1
 277 348 l 1,1,-1
 464 1223 l 1,2,-1
 710 1223 l 1,3,-1
 530 348 l 1,0,-1
453 0 m 1,4,-1
 211 0 l 1,5,-1
 268 243 l 1,6,-1
 512 243 l 1,7,-1
 453 0 l 1,4,-1
EndSplineSet
EndChar

StartChar: afii64060
Encoding: 64830 64830 438
Width: 639
GlyphClass: 2
Flags: W
LayerCount: 2
Fore
SplineSet
731 1082 m 0,0,1
 467 793 467 793 417 558 c 0,2,3
 376 364 376 364 439 176 c 0,4,5
 449 146 449 146 477 85.5 c 128,-1,6
 505 25 505 25 553 -66 c 0,7,8
 558 -74 558 -74 556 -83 c 0,9,10
 551 -106 551 -106 520 -106 c 0,11,12
 446 -106 446 -106 376 -18 c 0,13,14
 288 89 288 89 247 215 c 0,15,16
 191 385 191 385 227 553 c 0,17,18
 268 745 268 745 416 924 c 0,19,20
 552 1088 552 1088 794 1205 c 0,21,22
 804 1211 804 1211 811 1211 c 0,23,24
 830 1211 830 1211 825 1186 c 1,25,26
 811 1169 811 1169 731 1082 c 0,0,1
EndSplineSet
EndChar

StartChar: afii64061
Encoding: 64831 64831 439
Width: 576
GlyphClass: 2
Flags: W
LayerCount: 2
Fore
SplineSet
411 1082 m 0,0,1
 369 1169 369 1169 363 1186 c 1,2,3
 368 1211 368 1211 387 1211 c 0,4,5
 394 1211 394 1211 402 1205 c 0,6,7
 594 1088 594 1088 660 924 c 0,8,9
 732 745 732 745 691 553 c 0,10,11
 655 385 655 385 527 215 c 0,12,13
 432 89 432 89 300 -18 c 0,14,15
 192 -106 192 -106 118 -106 c 0,16,17
 87 -106 87 -106 92 -83 c 0,18,19
 94 -74 94 -74 101 -66 c 0,20,21
 189 25 189 25 243 85.5 c 128,-1,22
 297 146 297 146 319 176 c 0,23,24
 462 364 462 364 503 558 c 0,25,26
 553 793 553 793 411 1082 c 0,0,1
EndSplineSet
EndChar

StartChar: afii62821
Encoding: 65252 65252 440
Width: 993
GlyphClass: 2
Flags: W
AnchorPoint: "Anchor-3" 465 -405 basechar 0
AnchorPoint: "Anchor-2" 600 1080 basechar 0
LayerCount: 2
Fore
SplineSet
934 0 m 2,0,1
 828 0 828 0 801 61 c 1,2,3
 737 0 737 0 625 0 c 2,4,-1
 313 0 l 2,5,6
 218 0 218 0 203 53 c 1,7,8
 156 0 156 0 113 0 c 2,9,-1
 -53 0 l 1,10,-1
 -53 250 l 1,11,-1
 92 250 l 2,12,13
 175 250 175 250 197 350 c 2,14,-1
 229 510 l 2,15,16
 275 723 275 723 303 774 c 0,17,18
 355 856 355 856 502 856 c 2,19,-1
 754 856 l 2,20,21
 805 856 805 856 840.5 849.5 c 128,-1,22
 876 843 876 843 899 829 c 0,23,24
 958 793 958 793 958 698 c 0,25,26
 958 651 958 651 946 590 c 2,27,-1
 897 336 l 2,28,29
 895 328 895 328 895 321.5 c 128,-1,30
 895 315 895 315 895 307 c 0,31,32
 895 250 895 250 952 250 c 2,33,-1
 1024 250 l 1,34,-1
 1024 0 l 1,35,-1
 934 0 l 2,0,1
637 680 m 2,36,37
 549 680 549 680 520 618 c 0,38,39
 517 612 517 612 509.5 574 c 128,-1,40
 502 536 502 536 489 467 c 2,41,-1
 453 252 l 1,42,-1
 487 252 l 2,43,44
 558 252 558 252 584 276 c 0,45,46
 595 287 595 287 602.5 310.5 c 128,-1,47
 610 334 610 334 618 371 c 2,48,-1
 680 680 l 1,49,-1
 637 680 l 2,36,37
EndSplineSet
EndChar

StartChar: uni25CC
Encoding: 9676 9676 441
Width: 911
Flags: W
AnchorPoint: "Anchor-3" 450 -210 basechar 0
AnchorPoint: "Anchor-2" 465 930 basechar 0
LayerCount: 2
Fore
SplineSet
771 629 m 256,0,1
 771 592 771 592 734 592 c 0,2,3
 695 592 695 592 695 629 c 256,4,5
 695 666 695 666 734 666 c 0,6,7
 771 666 771 666 771 629 c 256,0,1
658 703 m 0,8,9
 658 666 658 666 621 666 c 0,10,11
 582 666 582 666 582 703 c 0,12,13
 582 742 582 742 621 742 c 0,14,15
 658 742 658 742 658 703 c 0,8,9
847 516 m 0,16,17
 847 477 847 477 808 477 c 0,18,19
 771 477 771 477 771 516 c 0,20,21
 771 553 771 553 810 553 c 0,22,23
 847 553 847 553 847 516 c 0,16,17
873 384 m 256,24,25
 873 347 873 347 836 347 c 0,26,27
 797 347 797 347 797 384 c 256,28,29
 797 421 797 421 836 421 c 0,30,31
 873 421 873 421 873 384 c 256,24,25
525 731 m 0,32,33
 525 692 525 692 488 692 c 256,34,35
 451 692 451 692 451 731 c 0,36,37
 451 768 451 768 488 768 c 256,38,39
 525 768 525 768 525 731 c 0,32,33
847 251 m 0,40,41
 847 214 847 214 808 214 c 0,42,43
 771 214 771 214 771 251 c 0,44,45
 771 290 771 290 808 290 c 0,46,47
 847 290 847 290 847 251 c 0,40,41
394 703 m 0,48,49
 394 666 394 666 356 666 c 0,50,51
 319 666 319 666 319 703 c 0,52,53
 319 742 319 742 356 742 c 0,54,55
 394 742 394 742 394 703 c 0,48,49
282 629 m 256,56,57
 282 592 282 592 243 592 c 0,58,59
 206 592 206 592 206 627 c 0,60,61
 206 666 206 666 243 666 c 0,62,63
 282 666 282 666 282 629 c 256,56,57
771 138 m 0,64,65
 771 101 771 101 734 101 c 256,66,67
 697 101 697 101 697 138 c 0,68,69
 697 177 697 177 734 177 c 256,70,71
 771 177 771 177 771 138 c 0,64,65
658 64 m 0,72,73
 658 27 658 27 621 27 c 256,74,75
 584 27 584 27 584 64 c 0,76,77
 584 103 584 103 621 103 c 256,78,79
 658 103 658 103 658 64 c 0,72,73
206 516 m 0,80,81
 206 477 206 477 171 477 c 0,82,83
 132 477 132 477 132 516 c 0,84,85
 132 553 132 553 169 553 c 256,86,87
 206 553 206 553 206 516 c 0,80,81
180 384 m 256,88,89
 180 347 180 347 143 347 c 0,90,91
 104 347 104 347 104 384 c 256,92,93
 104 421 104 421 143 421 c 0,94,95
 180 421 180 421 180 384 c 256,88,89
525 38 m 0,96,97
 525 -1 525 -1 488 -1 c 256,98,99
 451 -1 451 -1 451 38 c 0,100,101
 451 75 451 75 488 75 c 256,102,103
 525 75 525 75 525 38 c 0,96,97
394 66 m 0,104,105
 394 27 394 27 356 27 c 0,106,107
 319 27 319 27 319 64 c 0,108,109
 319 103 319 103 356 103 c 0,110,111
 394 103 394 103 394 66 c 0,104,105
206 251 m 0,112,113
 206 214 206 214 169 214 c 256,114,115
 132 214 132 214 132 251 c 0,116,117
 132 290 132 290 169 290 c 256,118,119
 206 290 206 290 206 251 c 0,112,113
282 138 m 0,120,121
 282 101 282 101 245 101 c 0,122,123
 206 101 206 101 206 138 c 0,124,125
 206 177 206 177 243 177 c 0,126,127
 282 177 282 177 282 138 c 0,120,121
EndSplineSet
EndChar

StartChar: afii62819
Encoding: 65246 65246 442
Width: 1479
GlyphClass: 2
Flags: W
AnchorPoint: "Anchor-3" 660 -645 basechar 0
AnchorPoint: "Anchor-2" 1260 1350 basechar 0
LayerCount: 2
Fore
SplineSet
1360 338 m 2,0,1
 1358 333 1358 333 1358 327.5 c 128,-1,2
 1358 322 1358 322 1358 315 c 0,3,4
 1358 250 1358 250 1415 250 c 2,5,-1
 1509 250 l 1,6,-1
 1509 0 l 1,7,-1
 1405 0 l 2,8,9
 1349 0 1349 0 1303 66 c 1,10,11
 1253 -161 1253 -161 1190 -209 c 0,12,13
 1130 -254 1130 -254 895 -254 c 2,14,-1
 414 -254 l 2,15,16
 231 -254 231 -254 231 -63 c 0,17,18
 231 -43 231 -43 234 -20.5 c 128,-1,19
 237 2 237 2 242 27 c 2,20,-1
 414 860 l 1,21,-1
 690 766 l 1,22,-1
 555 84 l 2,23,24
 553 73 553 73 552 64 c 128,-1,25
 551 55 551 55 551 47 c 0,26,27
 551 0 551 0 604 0 c 2,28,-1
 846 0 l 2,29,30
 884 0 884 0 910 2.5 c 128,-1,31
 936 5 936 5 950 10 c 0,32,33
 1000 25 1000 25 1012 84 c 2,34,-1
 1249 1176 l 1,35,-1
 1542 1176 l 1,36,-1
 1360 338 l 2,0,1
EndSplineSet
EndChar

StartChar: braceright
Encoding: 125 125 445
Width: 672
GlyphClass: 2
Flags: W
LayerCount: 2
Fore
SplineSet
320 224 m 2,0,1
 331 277 331 277 348 314 c 128,-1,2
 365 351 365 351 393.5 376.5 c 128,-1,3
 422 402 422 402 464.5 418 c 128,-1,4
 507 434 507 434 569 447 c 1,5,6
 511 460 511 460 475.5 476 c 128,-1,7
 440 492 440 492 423 517 c 128,-1,8
 406 542 406 542 404.5 578.5 c 128,-1,9
 403 615 403 615 415 669 c 2,10,-1
 477 960 l 2,11,12
 487 1008 487 1008 485.5 1043 c 128,-1,13
 484 1078 484 1078 467.5 1103 c 128,-1,14
 451 1128 451 1128 419.5 1143.5 c 128,-1,15
 388 1159 388 1159 340 1170 c 1,16,-1
 345 1191 l 1,17,18
 402 1190 402 1190 444 1187.5 c 128,-1,19
 486 1185 486 1185 517 1179 c 128,-1,20
 548 1173 548 1173 569.5 1163.5 c 128,-1,21
 591 1154 591 1154 609 1141 c 0,22,23
 684 1088 684 1088 655 951 c 2,24,-1
 590 645 l 2,25,26
 580 600 580 600 581 568.5 c 128,-1,27
 582 537 582 537 598 514.5 c 128,-1,28
 614 492 614 492 645.5 476.5 c 128,-1,29
 677 461 677 461 730 447 c 1,30,31
 672 433 672 433 633.5 418 c 128,-1,32
 595 403 595 403 569.5 380.5 c 128,-1,33
 544 358 544 358 529.5 326 c 128,-1,34
 515 294 515 294 505 249 c 2,35,-1
 440 -57 l 2,36,37
 411 -196 411 -196 314 -249 c 0,38,39
 290 -263 290 -263 264 -272 c 128,-1,40
 238 -281 238 -281 204.5 -286.5 c 128,-1,41
 171 -292 171 -292 128 -295 c 128,-1,42
 85 -298 85 -298 28 -298 c 1,43,-1
 32 -278 l 1,44,45
 86 -268 86 -268 124.5 -251.5 c 128,-1,46
 163 -235 163 -235 189 -210 c 128,-1,47
 215 -185 215 -185 231.5 -150.5 c 128,-1,48
 248 -116 248 -116 258 -67 c 2,49,-1
 320 224 l 2,0,1
EndSplineSet
EndChar

StartChar: uni0656
Encoding: 1622 1622 452
Width: 0
GlyphClass: 4
Flags: W
AnchorPoint: "Anchor-3" 0 0 mark 0
AnchorPoint: "Anchor-1" 0 0 mark 0
LayerCount: 2
Fore
SplineSet
75 260 m 1,0,1
 51 185 51 185 39.5 122 c 128,-1,2
 28 59 28 59 30 7 c 1,3,-1
 -30 7 l 1,4,5
 -32 59 -32 59 -23 125 c 128,-1,6
 -14 191 -14 191 9 273 c 1,7,-1
 75 260 l 1,8,-1
 75 260 l 1,0,1
EndSplineSet
EndChar

StartChar: E005
Encoding: 65578 -1 470
Width: 592
GlyphClass: 3
Flags: W
LayerCount: 2
Fore
SplineSet
-53 0 m 1,0,-1
 -53 250 l 1,1,-1
 621 250 l 1,2,-1
 621 0 l 1,3,-1
 -53 0 l 1,0,-1
EndSplineSet
EndChar

StartChar: afii57470
Encoding: 1726 1726 480
Width: 1186
Flags: W
AnchorPoint: "Anchor-3" 540 -435 basechar 0
AnchorPoint: "Anchor-2" 720 1260 basechar 0
LayerCount: 2
Fore
SplineSet
1276 213 m 0,0,1
 1276 148 1276 148 1233 78 c 0,2,3
 1186 0 1186 0 1124 0 c 2,4,-1
 -53 0 l 1,5,-1
 -53 250 l 1,6,-1
 125 250 l 1,7,-1
 180 512 l 2,8,9
 227 728 227 728 262 782 c 0,10,11
 312 856 312 856 453 856 c 2,12,-1
 745 856 l 1,13,-1
 694 946 l 1,14,-1
 1026 946 l 1,15,16
 1276 551 1276 551 1276 213 c 0,0,1
971 319 m 0,17,18
 971 376 971 376 935.5 473.5 c 128,-1,19
 900 571 900 571 827 711 c 1,20,-1
 756 250 l 1,21,-1
 874 250 l 2,22,23
 934 250 934 250 946 256 c 0,24,25
 971 268 971 268 971 319 c 0,17,18
571 680 m 2,26,27
 539 680 539 680 517 669.5 c 128,-1,28
 495 659 495 659 481 639 c 0,29,30
 473 627 473 627 467 602 c 128,-1,31
 461 577 461 577 453 539 c 2,32,-1
 401 250 l 1,33,34
 505 250 505 250 532 274 c 0,35,36
 550 289 550 289 565 367 c 2,37,-1
 629 680 l 1,38,-1
 571 680 l 2,26,27
EndSplineSet
Substitution2: "'medi' Medial Forms in Arabic lookup 3 subtable" afii62827
Substitution2: "'fina' Terminal Forms in Arabic lookup 2 subtable" afii62827
Substitution2: "'init' Initial Forms in Arabic lookup 1 subtable" afii57470
EndChar

StartChar: at
Encoding: 64 64 489
Width: 1587
Flags: W
LayerCount: 2
Fore
SplineSet
1217 863 m 1,0,-1
 1337 863 l 1,1,-1
 1131 419 l 2,2,3
 1128 414 1128 414 1125.5 405.5 c 128,-1,4
 1123 397 1123 397 1121 389 c 0,5,6
 1104 308 1104 308 1168 308 c 0,7,8
 1211 308 1211 308 1256.5 337 c 128,-1,9
 1302 366 1302 366 1343 414.5 c 128,-1,10
 1384 463 1384 463 1415.5 526 c 128,-1,11
 1447 589 1447 589 1461 657 c 0,12,13
 1481 749 1481 749 1459 831.5 c 128,-1,14
 1437 914 1437 914 1382.5 976.5 c 128,-1,15
 1328 1039 1328 1039 1246.5 1075.5 c 128,-1,16
 1165 1112 1165 1112 1065 1112 c 0,17,18
 959 1112 959 1112 860.5 1070.5 c 128,-1,19
 762 1029 762 1029 681.5 955 c 128,-1,20
 601 881 601 881 542.5 778.5 c 128,-1,21
 484 676 484 676 458 555 c 0,22,23
 435 443 435 443 452.5 350 c 128,-1,24
 470 257 470 257 523.5 189.5 c 128,-1,25
 577 122 577 122 663 84 c 128,-1,26
 749 46 749 46 861 46 c 0,27,28
 903 46 903 46 943 50.5 c 128,-1,29
 983 55 983 55 1025 64.5 c 128,-1,30
 1067 74 1067 74 1114 90.5 c 128,-1,31
 1161 107 1161 107 1218 130 c 1,32,-1
 1227 70 l 1,33,34
 1159 40 1159 40 1105.5 20.5 c 128,-1,35
 1052 1 1052 1 1004.5 -11 c 128,-1,36
 957 -23 957 -23 914 -27.5 c 128,-1,37
 871 -32 871 -32 823 -32 c 0,38,39
 687 -32 687 -32 579 14 c 128,-1,40
 471 60 471 60 400.5 140 c 128,-1,41
 330 220 330 220 303.5 329 c 128,-1,42
 277 438 277 438 303 563 c 0,43,44
 331 692 331 692 404.5 804 c 128,-1,45
 478 916 478 916 583.5 999.5 c 128,-1,46
 689 1083 689 1083 816 1131 c 128,-1,47
 943 1179 943 1179 1077 1179 c 0,48,49
 1199 1179 1199 1179 1295.5 1139.5 c 128,-1,50
 1392 1100 1392 1100 1455 1030.5 c 128,-1,51
 1518 961 1518 961 1542 867.5 c 128,-1,52
 1566 774 1566 774 1543 665 c 0,53,54
 1525 580 1525 580 1482.5 503.5 c 128,-1,55
 1440 427 1440 427 1384 369.5 c 128,-1,56
 1328 312 1328 312 1262 278 c 128,-1,57
 1196 244 1196 244 1131 244 c 256,58,59
 1066 244 1066 244 1030 279 c 128,-1,60
 994 314 994 314 997 371 c 1,61,62
 940 313 940 313 876 279.5 c 128,-1,63
 812 246 812 246 757 246 c 0,64,65
 722 246 722 246 696 260.5 c 128,-1,66
 670 275 670 275 653.5 301.5 c 128,-1,67
 637 328 637 328 633 364 c 128,-1,68
 629 400 629 400 637 441 c 0,69,70
 647 489 647 489 667 537 c 128,-1,71
 687 585 687 585 715.5 631 c 128,-1,72
 744 677 744 677 779.5 719 c 128,-1,73
 815 761 815 761 856 797 c 0,74,75
 906 839 906 839 964 862.5 c 128,-1,76
 1022 886 1022 886 1079 886 c 0,77,78
 1102 886 1102 886 1118.5 882 c 128,-1,79
 1135 878 1135 878 1146.5 867.5 c 128,-1,80
 1158 857 1158 857 1167 839.5 c 128,-1,81
 1176 822 1176 822 1183 795 c 1,82,-1
 1217 863 l 1,0,-1
1083 804 m 0,83,84
 1051 807 1051 807 1006.5 783 c 128,-1,85
 962 759 962 759 916 716 c 0,86,87
 861 667 861 667 825.5 604.5 c 128,-1,88
 790 542 790 542 775 472 c 0,89,90
 761 405 761 405 779.5 365 c 128,-1,91
 798 325 798 325 845 325 c 0,92,93
 883 325 883 325 926.5 355.5 c 128,-1,94
 970 386 970 386 1009 441 c 0,95,96
 1029 467 1029 467 1047.5 499 c 128,-1,97
 1066 531 1066 531 1082.5 564.5 c 128,-1,98
 1099 598 1099 598 1111 630.5 c 128,-1,99
 1123 663 1123 663 1132 692 c 0,100,101
 1144 742 1144 742 1132.5 772 c 128,-1,102
 1121 802 1121 802 1083 804 c 0,83,84
EndSplineSet
EndChar

StartChar: A
Encoding: 65 65 490
Width: 1232
Flags: W
LayerCount: 2
Fore
SplineSet
1175 0 m 1,0,-1
 623 0 l 1,1,-1
 631 42 l 1,2,3
 650 45 650 45 665 46 c 128,-1,4
 680 47 680 47 686 47 c 0,5,6
 732 50 732 50 753.5 63.5 c 128,-1,7
 775 77 775 77 781 104 c 0,8,9
 784 118 784 118 784 137.5 c 128,-1,10
 784 157 784 157 780.5 184.5 c 128,-1,11
 777 212 777 212 769.5 249 c 128,-1,12
 762 286 762 286 751 336 c 1,13,-1
 368 336 l 1,14,-1
 328 269 l 2,15,16
 307 235 307 235 292 209 c 128,-1,17
 277 183 277 183 267.5 164.5 c 128,-1,18
 258 146 258 146 252 134 c 128,-1,19
 246 122 246 122 245 113 c 0,20,21
 237 79 237 79 265.5 63 c 128,-1,22
 294 47 294 47 370 42 c 1,23,-1
 362 0 l 1,24,-1
 15 0 l 1,25,-1
 23 42 l 1,26,27
 55 48 55 48 78 58 c 128,-1,28
 101 68 101 68 123 89 c 128,-1,29
 145 110 145 110 170.5 146 c 128,-1,30
 196 182 196 182 233 242 c 2,31,-1
 812 1177 l 1,32,-1
 859 1177 l 1,33,-1
 1049 280 l 2,34,35
 1064 205 1064 205 1076.5 158 c 128,-1,36
 1089 111 1089 111 1103 85.5 c 128,-1,37
 1117 60 1117 60 1134.5 51 c 128,-1,38
 1152 42 1152 42 1177 42 c 2,39,-1
 1183 42 l 1,40,-1
 1175 0 l 1,0,-1
740 403 m 1,41,-1
 656 817 l 1,42,-1
 407 403 l 1,43,-1
 740 403 l 1,41,-1
EndSplineSet
EndChar

StartChar: B
Encoding: 66 66 491
Width: 1138
Flags: W
LayerCount: 2
Fore
SplineSet
799 1152 m 2,0,1
 1012 1152 1012 1152 1112.5 1082 c 128,-1,2
 1213 1012 1213 1012 1185 880 c 0,3,4
 1174 831 1174 831 1151 793.5 c 128,-1,5
 1128 756 1128 756 1089.5 725 c 128,-1,6
 1051 694 1051 694 994.5 669.5 c 128,-1,7
 938 645 938 645 858 623 c 1,8,9
 901 613 901 613 933.5 603 c 128,-1,10
 966 593 966 593 990.5 581 c 128,-1,11
 1015 569 1015 569 1035 554 c 128,-1,12
 1055 539 1055 539 1073 520 c 0,13,14
 1111 480 1111 480 1123.5 429 c 128,-1,15
 1136 378 1136 378 1124 320 c 0,16,17
 1108 248 1108 248 1061.5 189 c 128,-1,18
 1015 130 1015 130 942.5 88 c 128,-1,19
 870 46 870 46 777 23 c 128,-1,20
 684 0 684 0 576 0 c 2,21,-1
 27 0 l 1,22,-1
 35 42 l 1,23,24
 84 48 84 48 114.5 55.5 c 128,-1,25
 145 63 145 63 164.5 76 c 128,-1,26
 184 89 184 89 194 110 c 128,-1,27
 204 131 204 131 211 164 c 2,28,-1
 387 990 l 2,29,30
 394 1022 394 1022 392 1044 c 128,-1,31
 390 1066 390 1066 375.5 1080 c 128,-1,32
 361 1094 361 1094 334 1100.5 c 128,-1,33
 307 1107 307 1107 262 1110 c 1,34,-1
 271 1152 l 1,35,-1
 799 1152 l 2,0,1
484 158 m 2,36,37
 472 102 472 102 490.5 78.5 c 128,-1,38
 509 55 509 55 566 55 c 0,39,40
 773 55 773 55 827 306 c 0,41,42
 886 585 886 585 626 585 c 2,43,-1
 575 585 l 1,44,-1
 484 158 l 2,36,37
586 636 m 1,45,46
 664 638 664 638 718 649.5 c 128,-1,47
 772 661 772 661 807.5 687 c 128,-1,48
 843 713 843 713 864.5 757 c 128,-1,49
 886 801 886 801 900 868 c 0,50,51
 926 990 926 990 896.5 1046 c 128,-1,52
 867 1102 867 1102 776 1102 c 0,53,54
 726 1102 726 1102 701.5 1083.5 c 128,-1,55
 677 1065 677 1065 667 1019 c 2,56,-1
 586 636 l 1,45,46
EndSplineSet
EndChar

StartChar: C
Encoding: 67 67 492
Width: 1232
Flags: W
LayerCount: 2
Fore
SplineSet
1218 217 m 1,0,1
 1183 184 1183 184 1155.5 161 c 128,-1,2
 1128 138 1128 138 1104 120 c 128,-1,3
 1080 102 1080 102 1059 87.5 c 128,-1,4
 1038 73 1038 73 1015 60 c 0,5,6
 934 13 934 13 853 -9.5 c 128,-1,7
 772 -32 772 -32 680 -32 c 0,8,9
 548 -32 548 -32 446.5 12.5 c 128,-1,10
 345 57 345 57 281 136.5 c 128,-1,11
 217 216 217 216 196 326 c 128,-1,12
 175 436 175 436 203 568 c 0,13,14
 231 699 231 699 299.5 810.5 c 128,-1,15
 368 922 368 922 465 1004 c 128,-1,16
 562 1086 562 1086 681 1132.5 c 128,-1,17
 800 1179 800 1179 927 1179 c 0,18,19
 989 1179 989 1179 1049 1165 c 128,-1,20
 1109 1151 1109 1151 1178 1119 c 0,21,22
 1205 1106 1205 1106 1222.5 1101 c 128,-1,23
 1240 1096 1240 1096 1252 1096 c 0,24,25
 1277 1096 1277 1096 1296.5 1112 c 128,-1,26
 1316 1128 1316 1128 1345 1174 c 1,27,-1
 1390 1174 l 1,28,-1
 1305 774 l 1,29,-1
 1263 774 l 1,30,31
 1250 822 1250 822 1238.5 858.5 c 128,-1,32
 1227 895 1227 895 1213.5 924.5 c 128,-1,33
 1200 954 1200 954 1183 978 c 128,-1,34
 1166 1002 1166 1002 1144 1027 c 0,35,36
 1098 1076 1098 1076 1048 1099.5 c 128,-1,37
 998 1123 998 1123 938 1123 c 0,38,39
 783 1123 783 1123 674.5 985.5 c 128,-1,40
 566 848 566 848 509 581 c 0,41,42
 482 453 482 453 479.5 359.5 c 128,-1,43
 477 266 477 266 501 198 c 0,44,45
 512 165 512 165 534.5 137.5 c 128,-1,46
 557 110 557 110 588.5 90.5 c 128,-1,47
 620 71 620 71 658 60 c 128,-1,48
 696 49 696 49 738 49 c 0,49,50
 774 49 774 49 816 57 c 128,-1,51
 858 65 858 65 899 80 c 0,52,53
 932 92 932 92 962 107 c 128,-1,54
 992 122 992 122 1024 142.5 c 128,-1,55
 1056 163 1056 163 1092.5 191 c 128,-1,56
 1129 219 1129 219 1176 259 c 1,57,-1
 1218 217 l 1,0,1
EndSplineSet
EndChar

StartChar: D
Encoding: 68 68 493
Width: 1232
Flags: W
LayerCount: 2
Fore
SplineSet
377 997 m 2,0,1
 384 1026 384 1026 381 1045.5 c 128,-1,2
 378 1065 378 1065 365 1078.5 c 128,-1,3
 352 1092 352 1092 326.5 1099 c 128,-1,4
 301 1106 301 1106 259 1110 c 1,5,-1
 268 1152 l 1,6,-1
 788 1152 l 2,7,8
 936 1152 936 1152 1045 1113.5 c 128,-1,9
 1154 1075 1154 1075 1220.5 1002 c 128,-1,10
 1287 929 1287 929 1308.5 824.5 c 128,-1,11
 1330 720 1330 720 1302 589 c 0,12,13
 1274 457 1274 457 1206.5 348 c 128,-1,14
 1139 239 1139 239 1042 162 c 128,-1,15
 945 85 945 85 823.5 42.5 c 128,-1,16
 702 0 702 0 563 0 c 2,17,-1
 24 0 l 1,18,-1
 32 42 l 1,19,20
 107 45 107 45 147 72 c 128,-1,21
 187 99 187 99 198 155 c 2,22,-1
 377 997 l 2,0,1
474 158 m 2,23,24
 468 129 468 129 469 110 c 128,-1,25
 470 91 470 91 478.5 80 c 128,-1,26
 487 69 487 69 505.5 64.5 c 128,-1,27
 524 60 524 60 553 60 c 0,28,29
 718 60 718 60 828 177 c 0,30,31
 854 206 854 206 880 247 c 128,-1,32
 906 288 906 288 928 338 c 128,-1,33
 950 388 950 388 968 445.5 c 128,-1,34
 986 503 986 503 999 563 c 0,35,36
 1022 671 1022 671 1024 762 c 128,-1,37
 1026 853 1026 853 1005 921 c 0,38,39
 980 1010 980 1010 923.5 1053 c 128,-1,40
 867 1096 867 1096 774 1096 c 0,41,42
 673 1096 673 1096 661 1036 c 2,43,-1
 474 158 l 2,23,24
EndSplineSet
EndChar

StartChar: E
Encoding: 69 69 494
Width: 1138
Flags: W
LayerCount: 2
Fore
SplineSet
1183 810 m 1,0,-1
 1141 810 l 1,1,2
 1143 896 1143 896 1128.5 950.5 c 128,-1,3
 1114 1005 1114 1005 1075 1037.5 c 128,-1,4
 1036 1070 1036 1070 968 1083 c 128,-1,5
 900 1096 900 1096 796 1096 c 0,6,7
 763 1096 763 1096 741 1092.5 c 128,-1,8
 719 1089 719 1089 705 1080 c 128,-1,9
 691 1071 691 1071 683 1055.5 c 128,-1,10
 675 1040 675 1040 669 1015 c 2,11,-1
 585 619 l 1,12,13
 653 618 653 618 704 630.5 c 128,-1,14
 755 643 755 643 794 673 c 128,-1,15
 833 703 833 703 861.5 752 c 128,-1,16
 890 801 890 801 915 874 c 1,17,-1
 959 874 l 1,18,-1
 837 297 l 1,19,-1
 793 297 l 1,20,21
 800 371 800 371 793 421.5 c 128,-1,22
 786 472 786 472 760 503 c 128,-1,23
 734 534 734 534 688 548 c 128,-1,24
 642 562 642 562 573 562 c 1,25,-1
 485 148 l 2,26,27
 479 121 479 121 481.5 102.5 c 128,-1,28
 484 84 484 84 498.5 73 c 128,-1,29
 513 62 513 62 539.5 57.5 c 128,-1,30
 566 53 566 53 607 53 c 0,31,32
 704 53 704 53 781 74.5 c 128,-1,33
 858 96 858 96 927 143 c 0,34,35
 954 162 954 162 976.5 181 c 128,-1,36
 999 200 999 200 1021.5 224.5 c 128,-1,37
 1044 249 1044 249 1068 280.5 c 128,-1,38
 1092 312 1092 312 1121 355 c 1,39,-1
 1169 355 l 1,40,-1
 1025 0 l 1,41,-1
 27 0 l 1,42,-1
 35 42 l 1,43,44
 84 48 84 48 115 55 c 128,-1,45
 146 62 146 62 165 75 c 128,-1,46
 184 88 184 88 194 109 c 128,-1,47
 204 130 204 130 211 164 c 2,48,-1
 387 990 l 2,49,50
 394 1022 394 1022 392 1044 c 128,-1,51
 390 1066 390 1066 375.5 1080 c 128,-1,52
 361 1094 361 1094 334 1100.5 c 128,-1,53
 307 1107 307 1107 262 1110 c 1,54,-1
 271 1152 l 1,55,-1
 1255 1152 l 1,56,-1
 1183 810 l 1,0,-1
EndSplineSet
EndChar

StartChar: F
Encoding: 70 70 495
Width: 1042
Flags: W
LayerCount: 2
Fore
SplineSet
1167 810 m 1,0,-1
 1126 810 l 1,1,2
 1125 851 1125 851 1123 880.5 c 128,-1,3
 1121 910 1121 910 1116 932.5 c 128,-1,4
 1111 955 1111 955 1104.5 972.5 c 128,-1,5
 1098 990 1098 990 1087 1006 c 0,6,7
 1056 1052 1056 1052 984.5 1074 c 128,-1,8
 913 1096 913 1096 795 1096 c 0,9,10
 762 1096 762 1096 740.5 1092 c 128,-1,11
 719 1088 719 1088 705 1079 c 128,-1,12
 691 1070 691 1070 682.5 1054.5 c 128,-1,13
 674 1039 674 1039 669 1015 c 2,14,-1
 585 619 l 1,15,16
 648 619 648 619 695.5 631.5 c 128,-1,17
 743 644 743 644 779 673.5 c 128,-1,18
 815 703 815 703 844 752 c 128,-1,19
 873 801 873 801 899 874 c 1,20,-1
 943 874 l 1,21,-1
 821 297 l 1,22,-1
 777 297 l 1,23,24
 784 371 784 371 777.5 421 c 128,-1,25
 771 471 771 471 747.5 502 c 128,-1,26
 724 533 724 533 681 546.5 c 128,-1,27
 638 560 638 560 573 562 c 1,28,-1
 488 164 l 2,29,30
 481 128 481 128 483 105.5 c 128,-1,31
 485 83 485 83 503.5 70 c 128,-1,32
 522 57 522 57 556.5 51 c 128,-1,33
 591 45 591 45 649 42 c 1,34,-1
 641 0 l 1,35,-1
 27 0 l 1,36,-1
 35 42 l 1,37,38
 84 48 84 48 115 55 c 128,-1,39
 146 62 146 62 165 75 c 128,-1,40
 184 88 184 88 194 109 c 128,-1,41
 204 130 204 130 211 164 c 2,42,-1
 387 990 l 2,43,44
 394 1023 394 1023 392 1045 c 128,-1,45
 390 1067 390 1067 375.5 1081 c 128,-1,46
 361 1095 361 1095 334 1101 c 128,-1,47
 307 1107 307 1107 262 1110 c 1,48,-1
 271 1152 l 1,49,-1
 1239 1152 l 1,50,-1
 1167 810 l 1,0,-1
EndSplineSet
EndChar

StartChar: G
Encoding: 71 71 496
Width: 1327
Flags: W
LayerCount: 2
Fore
SplineSet
1383 447 m 1,0,1
 1333 442 1333 442 1302.5 434 c 128,-1,2
 1272 426 1272 426 1253 409.5 c 128,-1,3
 1234 393 1234 393 1223 364.5 c 128,-1,4
 1212 336 1212 336 1202 290 c 2,5,-1
 1156 73 l 1,6,7
 1110 49 1110 49 1052.5 29.5 c 128,-1,8
 995 10 995 10 930 -4 c 128,-1,9
 865 -18 865 -18 797 -25 c 128,-1,10
 729 -32 729 -32 663 -32 c 0,11,12
 529 -32 529 -32 426.5 12 c 128,-1,13
 324 56 324 56 261 135 c 128,-1,14
 198 214 198 214 177 323.5 c 128,-1,15
 156 433 156 433 183 564 c 0,16,17
 212 697 212 697 280.5 809 c 128,-1,18
 349 921 349 921 446 1003.5 c 128,-1,19
 543 1086 543 1086 661 1132.5 c 128,-1,20
 779 1179 779 1179 907 1179 c 0,21,22
 968 1179 968 1179 1028.5 1165 c 128,-1,23
 1089 1151 1089 1151 1158 1119 c 0,24,25
 1185 1106 1185 1106 1203 1101 c 128,-1,26
 1221 1096 1221 1096 1232 1096 c 0,27,28
 1256 1096 1256 1096 1276 1112 c 128,-1,29
 1296 1128 1296 1128 1323 1174 c 1,30,-1
 1370 1174 l 1,31,-1
 1285 774 l 1,32,-1
 1242 774 l 1,33,34
 1229 822 1229 822 1218 859 c 128,-1,35
 1207 896 1207 896 1193.5 925.5 c 128,-1,36
 1180 955 1180 955 1163 979 c 128,-1,37
 1146 1003 1146 1003 1124 1027 c 0,38,39
 1077 1076 1077 1076 1026.5 1099.5 c 128,-1,40
 976 1123 976 1123 917 1123 c 0,41,42
 761 1123 761 1123 652.5 984.5 c 128,-1,43
 544 846 544 846 487 576 c 0,44,45
 422 270 422 270 502 130 c 0,46,47
 533 74 533 74 584 49 c 128,-1,48
 635 24 635 24 716 24 c 0,49,50
 803 24 803 24 847.5 53.5 c 128,-1,51
 892 83 892 83 906 148 c 2,52,-1
 944 327 l 2,53,54
 951 362 951 362 949.5 384 c 128,-1,55
 948 406 948 406 932 418.5 c 128,-1,56
 916 431 916 431 884 437.5 c 128,-1,57
 852 444 852 444 798 447 c 1,58,-1
 807 490 l 1,59,-1
 1392 490 l 1,60,-1
 1383 447 l 1,0,1
EndSplineSet
EndChar

StartChar: H
Encoding: 72 72 497
Width: 1327
Flags: W
LayerCount: 2
Fore
SplineSet
576 557 m 1,0,-1
 492 164 l 2,1,2
 486 132 486 132 487.5 111.5 c 128,-1,3
 489 91 489 91 503.5 77.5 c 128,-1,4
 518 64 518 64 545.5 56 c 128,-1,5
 573 48 573 48 619 42 c 1,6,-1
 611 0 l 1,7,-1
 36 0 l 1,8,-1
 44 42 l 1,9,10
 90 48 90 48 120 56 c 128,-1,11
 150 64 150 64 169 77.5 c 128,-1,12
 188 91 188 91 198 111.5 c 128,-1,13
 208 132 208 132 214 164 c 2,14,-1
 390 990 l 2,15,16
 397 1021 397 1021 395.5 1042.5 c 128,-1,17
 394 1064 394 1064 380 1078 c 128,-1,18
 366 1092 366 1092 339.5 1099 c 128,-1,19
 313 1106 313 1106 271 1110 c 1,20,-1
 280 1152 l 1,21,-1
 855 1152 l 1,22,-1
 846 1110 l 1,23,24
 800 1107 800 1107 769.5 1100 c 128,-1,25
 739 1093 739 1093 718 1078.5 c 128,-1,26
 697 1064 697 1064 686 1042.5 c 128,-1,27
 675 1021 675 1021 668 990 c 2,28,-1
 593 636 l 1,29,-1
 1003 636 l 1,30,-1
 1078 990 l 2,31,32
 1085 1021 1085 1021 1082.5 1042.5 c 128,-1,33
 1080 1064 1080 1064 1065 1078.5 c 128,-1,34
 1050 1093 1050 1093 1022 1100 c 128,-1,35
 994 1107 994 1107 949 1110 c 1,36,-1
 958 1152 l 1,37,-1
 1539 1152 l 1,38,-1
 1530 1110 l 1,39,40
 1486 1107 1486 1107 1456 1100 c 128,-1,41
 1426 1093 1426 1093 1405.5 1078.5 c 128,-1,42
 1385 1064 1385 1064 1373.5 1042.5 c 128,-1,43
 1362 1021 1362 1021 1355 990 c 2,44,-1
 1179 164 l 2,45,46
 1173 132 1173 132 1174.5 111.5 c 128,-1,47
 1176 91 1176 91 1190 77.5 c 128,-1,48
 1204 64 1204 64 1231.5 56 c 128,-1,49
 1259 48 1259 48 1303 42 c 1,50,-1
 1295 0 l 1,51,-1
 714 0 l 1,52,-1
 722 42 l 1,53,54
 771 48 771 48 802.5 56 c 128,-1,55
 834 64 834 64 854.5 77.5 c 128,-1,56
 875 91 875 91 885.5 111.5 c 128,-1,57
 896 132 896 132 902 164 c 2,58,-1
 986 557 l 1,59,-1
 576 557 l 1,0,-1
EndSplineSet
EndChar

StartChar: I
Encoding: 73 73 498
Width: 663
Flags: W
LayerCount: 2
Fore
SplineSet
402 990 m 2,0,1
 409 1022 409 1022 406 1043.5 c 128,-1,2
 403 1065 403 1065 388 1079.5 c 128,-1,3
 373 1094 373 1094 344 1100.5 c 128,-1,4
 315 1107 315 1107 269 1110 c 1,5,-1
 278 1152 l 1,6,-1
 875 1152 l 1,7,-1
 866 1110 l 1,8,9
 819 1108 819 1108 786 1102 c 128,-1,10
 753 1096 753 1096 731.5 1081.5 c 128,-1,11
 710 1067 710 1067 698 1045 c 128,-1,12
 686 1023 686 1023 679 990 c 2,13,-1
 503 164 l 2,14,15
 496 130 496 130 498.5 108 c 128,-1,16
 501 86 501 86 516.5 72.5 c 128,-1,17
 532 59 532 59 561.5 52 c 128,-1,18
 591 45 591 45 639 42 c 1,19,-1
 631 0 l 1,20,-1
 34 0 l 1,21,-1
 42 42 l 1,22,23
 91 47 91 47 124 54.5 c 128,-1,24
 157 62 157 62 177 75.5 c 128,-1,25
 197 89 197 89 208 110 c 128,-1,26
 219 131 219 131 226 164 c 2,27,-1
 402 990 l 2,0,1
EndSplineSet
EndChar

StartChar: J
Encoding: 74 74 499
Width: 853
Flags: W
LayerCount: 2
Fore
SplineSet
709 210 m 2,0,1
 670 25 670 25 557.5 -69.5 c 128,-1,2
 445 -164 445 -164 265 -164 c 0,3,4
 214 -164 214 -164 168 -153 c 128,-1,5
 122 -142 122 -142 93 -125 c 0,6,7
 70 -111 70 -111 54 -89.5 c 128,-1,8
 38 -68 38 -68 27.5 -43.5 c 128,-1,9
 17 -19 17 -19 14.5 8 c 128,-1,10
 12 35 12 35 18 62 c 0,11,12
 23 86 23 86 37 108 c 128,-1,13
 51 130 51 130 71.5 147 c 128,-1,14
 92 164 92 164 116 174 c 128,-1,15
 140 184 140 184 163 184 c 0,16,17
 188 184 188 184 208.5 174 c 128,-1,18
 229 164 229 164 242 146 c 128,-1,19
 255 128 255 128 260.5 105 c 128,-1,20
 266 82 266 82 261 57 c 0,21,22
 256 37 256 37 248.5 24 c 128,-1,23
 241 11 241 11 221 -9 c 0,24,25
 206 -25 206 -25 200 -33.5 c 128,-1,26
 194 -42 194 -42 191 -53 c 0,27,28
 186 -77 186 -77 204.5 -92.5 c 128,-1,29
 223 -108 223 -108 257 -108 c 0,30,31
 315 -108 315 -108 347.5 -73 c 128,-1,32
 380 -38 380 -38 397 41 c 2,33,-1
 599 990 l 2,34,35
 606 1024 606 1024 603.5 1046.5 c 128,-1,36
 601 1069 601 1069 584 1082.5 c 128,-1,37
 567 1096 567 1096 535.5 1102 c 128,-1,38
 504 1108 504 1108 452 1110 c 1,39,-1
 461 1152 l 1,40,-1
 1061 1152 l 1,41,-1
 1052 1110 l 1,42,43
 1004 1107 1004 1107 973 1099.5 c 128,-1,44
 942 1092 942 1092 921.5 1074.5 c 128,-1,45
 901 1057 901 1057 889 1028.5 c 128,-1,46
 877 1000 877 1000 867 954 c 2,47,-1
 709 210 l 2,0,1
EndSplineSet
EndChar

StartChar: K
Encoding: 75 75 500
Width: 1327
Flags: W
LayerCount: 2
Fore
SplineSet
1312 0 m 1,0,-1
 739 0 l 1,1,-1
 747 42 l 1,2,3
 766 44 766 44 781 44 c 128,-1,4
 796 44 796 44 802 44 c 0,5,6
 845 46 845 46 866 54 c 128,-1,7
 887 62 887 62 890 78 c 0,8,9
 893 92 893 92 887.5 107 c 128,-1,10
 882 122 882 122 864 153 c 2,11,-1
 636 541 l 1,12,-1
 580 498 l 1,13,-1
 509 164 l 2,14,15
 503 132 503 132 505 111.5 c 128,-1,16
 507 91 507 91 520.5 77.5 c 128,-1,17
 534 64 534 64 562 56 c 128,-1,18
 590 48 590 48 634 42 c 1,19,-1
 626 0 l 1,20,-1
 51 0 l 1,21,-1
 59 42 l 1,22,23
 107 48 107 48 138 55.5 c 128,-1,24
 169 63 169 63 187.5 76 c 128,-1,25
 206 89 206 89 216.5 110 c 128,-1,26
 227 131 227 131 234 164 c 2,27,-1
 410 990 l 2,28,29
 417 1023 417 1023 415 1045 c 128,-1,30
 413 1067 413 1067 399 1081 c 128,-1,31
 385 1095 385 1095 357.5 1101 c 128,-1,32
 330 1107 330 1107 286 1110 c 1,33,-1
 295 1152 l 1,34,-1
 872 1152 l 1,35,-1
 863 1110 l 1,36,37
 816 1107 816 1107 784.5 1099.5 c 128,-1,38
 753 1092 753 1092 732 1074 c 128,-1,39
 711 1056 711 1056 699 1027.5 c 128,-1,40
 687 999 687 999 677 954 c 2,41,-1
 600 589 l 1,42,-1
 1051 960 l 2,43,44
 1074 980 1074 980 1088.5 993 c 128,-1,45
 1103 1006 1103 1006 1112.5 1016.5 c 128,-1,46
 1122 1027 1122 1027 1125 1035.5 c 128,-1,47
 1128 1044 1128 1044 1131 1054 c 0,48,49
 1136 1080 1136 1080 1120.5 1091.5 c 128,-1,50
 1105 1103 1105 1103 1058 1105 c 0,51,52
 1052 1107 1052 1107 1035.5 1107.5 c 128,-1,53
 1019 1108 1019 1108 997 1110 c 1,54,-1
 1006 1152 l 1,55,-1
 1499 1152 l 1,56,-1
 1490 1110 l 1,57,58
 1449 1106 1449 1106 1413.5 1099.5 c 128,-1,59
 1378 1093 1378 1093 1340.5 1077.5 c 128,-1,60
 1303 1062 1303 1062 1260 1035.5 c 128,-1,61
 1217 1009 1217 1009 1160.5 967.5 c 128,-1,62
 1104 926 1104 926 1031.5 866 c 128,-1,63
 959 806 959 806 861 723 c 1,64,-1
 1245 78 l 2,65,66
 1258 59 1258 59 1273.5 51.5 c 128,-1,67
 1289 44 1289 44 1320 42 c 1,68,-1
 1312 0 l 1,0,-1
EndSplineSet
EndChar

StartChar: L
Encoding: 76 76 501
Width: 1138
Flags: W
LayerCount: 2
Fore
SplineSet
1019 0 m 1,0,-1
 32 0 l 1,1,-1
 40 42 l 1,2,3
 89 48 89 48 119 55.5 c 128,-1,4
 149 63 149 63 168 76 c 128,-1,5
 187 89 187 89 196.5 110 c 128,-1,6
 206 131 206 131 213 164 c 2,7,-1
 389 990 l 2,8,9
 396 1022 396 1022 394 1044 c 128,-1,10
 392 1066 392 1066 378 1080 c 128,-1,11
 364 1094 364 1094 337 1100.5 c 128,-1,12
 310 1107 310 1107 267 1110 c 1,13,-1
 276 1152 l 1,14,-1
 872 1152 l 1,15,-1
 863 1110 l 1,16,17
 807 1107 807 1107 772 1100.5 c 128,-1,18
 737 1094 737 1094 714.5 1077 c 128,-1,19
 692 1060 692 1060 680 1031 c 128,-1,20
 668 1002 668 1002 658 954 c 2,21,-1
 487 148 l 2,22,23
 481 121 481 121 483.5 102.5 c 128,-1,24
 486 84 486 84 500 73 c 128,-1,25
 514 62 514 62 539 57.5 c 128,-1,26
 564 53 564 53 603 53 c 0,27,28
 702 53 702 53 779.5 76 c 128,-1,29
 857 99 857 99 920 147 c 0,30,31
 946 168 946 168 969 189.5 c 128,-1,32
 992 211 992 211 1015.5 238 c 128,-1,33
 1039 265 1039 265 1064 301 c 128,-1,34
 1089 337 1089 337 1121 387 c 1,35,-1
 1171 387 l 1,36,-1
 1019 0 l 1,0,-1
EndSplineSet
EndChar

StartChar: M
Encoding: 77 77 502
Width: 1610
Flags: W
LayerCount: 2
Fore
SplineSet
726 0 m 1,0,-1
 680 0 l 1,1,-1
 466 1013 l 1,2,-1
 296 212 l 2,3,4
 286 165 286 165 286.5 134 c 128,-1,5
 287 103 287 103 302 84 c 128,-1,6
 317 65 317 65 348 55.5 c 128,-1,7
 379 46 379 46 431 42 c 1,8,-1
 423 0 l 1,9,-1
 24 0 l 1,10,-1
 32 42 l 1,11,12
 84 48 84 48 116 55.5 c 128,-1,13
 148 63 148 63 168 77.5 c 128,-1,14
 188 92 188 92 198 116.5 c 128,-1,15
 208 141 208 141 217 179 c 2,16,-1
 389 990 l 2,17,18
 396 1023 396 1023 394.5 1044.5 c 128,-1,19
 393 1066 393 1066 379 1079.5 c 128,-1,20
 365 1093 365 1093 337 1099.5 c 128,-1,21
 309 1106 309 1106 262 1110 c 1,22,-1
 271 1152 l 1,23,-1
 703 1152 l 1,24,-1
 874 348 l 1,25,-1
 1385 1152 l 1,26,-1
 1815 1152 l 1,27,-1
 1806 1110 l 1,28,29
 1759 1107 1759 1107 1728.5 1099.5 c 128,-1,30
 1698 1092 1698 1092 1677.5 1074.5 c 128,-1,31
 1657 1057 1657 1057 1645 1028.5 c 128,-1,32
 1633 1000 1633 1000 1623 954 c 2,33,-1
 1463 200 l 2,34,35
 1453 154 1453 154 1452.5 126.5 c 128,-1,36
 1452 99 1452 99 1463.5 82.5 c 128,-1,37
 1475 66 1475 66 1503 57.5 c 128,-1,38
 1531 49 1531 49 1579 42 c 1,39,-1
 1571 0 l 1,40,-1
 1004 0 l 1,41,-1
 1012 42 l 1,42,43
 1062 47 1062 47 1093 54 c 128,-1,44
 1124 61 1124 61 1144 75 c 128,-1,45
 1164 89 1164 89 1174.5 111.5 c 128,-1,46
 1185 134 1185 134 1193 171 c 2,47,-1
 1377 1039 l 1,48,-1
 726 0 l 1,0,-1
EndSplineSet
EndChar

StartChar: N
Encoding: 78 78 503
Width: 1232
Flags: W
LayerCount: 2
Fore
SplineSet
1077 421 m 1,0,-1
 1188 941 l 2,1,2
 1197 987 1197 987 1196.5 1017.5 c 128,-1,3
 1196 1048 1196 1048 1182 1067 c 128,-1,4
 1168 1086 1168 1086 1139 1095.5 c 128,-1,5
 1110 1105 1110 1105 1064 1110 c 1,6,-1
 1073 1152 l 1,7,-1
 1441 1152 l 1,8,-1
 1432 1110 l 1,9,10
 1389 1104 1389 1104 1361.5 1095.5 c 128,-1,11
 1334 1087 1334 1087 1316 1072 c 128,-1,12
 1298 1057 1298 1057 1287.5 1033.5 c 128,-1,13
 1277 1010 1277 1010 1270 974 c 2,14,-1
 1056 -30 l 1,15,-1
 1008 -30 l 1,16,-1
 443 897 l 1,17,-1
 298 212 l 2,18,19
 288 167 288 167 288.5 137 c 128,-1,20
 289 107 289 107 303 88 c 128,-1,21
 317 69 317 69 346.5 58.5 c 128,-1,22
 376 48 376 48 423 42 c 1,23,-1
 415 0 l 1,24,-1
 27 0 l 1,25,-1
 35 42 l 1,26,27
 84 48 84 48 114.5 56.5 c 128,-1,28
 145 65 145 65 165.5 80 c 128,-1,29
 186 95 186 95 196.5 118.5 c 128,-1,30
 207 142 207 142 215 179 c 2,31,-1
 387 988 l 1,32,33
 364 1024 364 1024 347.5 1048 c 128,-1,34
 331 1072 331 1072 317.5 1086 c 128,-1,35
 304 1100 304 1100 292 1105 c 128,-1,36
 280 1110 280 1110 267 1110 c 1,37,-1
 276 1152 l 1,38,-1
 636 1152 l 1,39,-1
 1077 421 l 1,0,-1
EndSplineSet
EndChar

StartChar: O
Encoding: 79 79 504
Width: 1327
Flags: W
LayerCount: 2
Fore
SplineSet
920 1179 m 0,0,1
 1049 1179 1049 1179 1149 1133.5 c 128,-1,2
 1249 1088 1249 1088 1311.5 1007 c 128,-1,3
 1374 926 1374 926 1395.5 815 c 128,-1,4
 1417 704 1417 704 1389 573 c 0,5,6
 1361 441 1361 441 1293 330 c 128,-1,7
 1225 219 1225 219 1127.5 138.5 c 128,-1,8
 1030 58 1030 58 909.5 13 c 128,-1,9
 789 -32 789 -32 656 -32 c 0,10,11
 524 -32 524 -32 423 12.5 c 128,-1,12
 322 57 322 57 258.5 137.5 c 128,-1,13
 195 218 195 218 174 328.5 c 128,-1,14
 153 439 153 439 181 571 c 0,15,16
 209 705 209 705 278 816 c 128,-1,17
 347 927 347 927 445.5 1008 c 128,-1,18
 544 1089 544 1089 665 1134 c 128,-1,19
 786 1179 786 1179 920 1179 c 0,0,1
907 1123 m 0,20,21
 757 1123 757 1123 647.5 977.5 c 128,-1,22
 538 832 538 832 480 557 c 0,23,24
 425 298 425 298 473 161 c 128,-1,25
 521 24 521 24 668 24 c 0,26,27
 816 24 816 24 922 161 c 128,-1,28
 1028 298 1028 298 1084 562 c 0,29,30
 1112 695 1112 695 1114.5 799.5 c 128,-1,31
 1117 904 1117 904 1094.5 976 c 128,-1,32
 1072 1048 1072 1048 1025 1085.5 c 128,-1,33
 978 1123 978 1123 907 1123 c 0,20,21
EndSplineSet
EndChar

StartChar: P
Encoding: 80 80 505
Width: 1042
Flags: W
LayerCount: 2
Fore
SplineSet
489 200 m 2,0,1
 479 153 479 153 477.5 125 c 128,-1,2
 476 97 476 97 488 81 c 128,-1,3
 500 65 500 65 528.5 57 c 128,-1,4
 557 49 557 49 605 42 c 1,5,-1
 597 0 l 1,6,-1
 27 0 l 1,7,-1
 35 42 l 1,8,9
 50 45 50 45 62.5 47 c 128,-1,10
 75 49 75 49 79 49 c 0,11,12
 109 53 109 53 130.5 62.5 c 128,-1,13
 152 72 152 72 167.5 89 c 128,-1,14
 183 106 183 106 194 133 c 128,-1,15
 205 160 205 160 213 200 c 2,16,-1
 373 954 l 2,17,18
 383 999 383 999 383.5 1027 c 128,-1,19
 384 1055 384 1055 371.5 1073 c 128,-1,20
 359 1091 359 1091 333.5 1098.5 c 128,-1,21
 308 1106 308 1106 262 1110 c 1,22,-1
 271 1152 l 1,23,-1
 820 1152 l 2,24,25
 927 1152 927 1152 1006.5 1131.5 c 128,-1,26
 1086 1111 1086 1111 1134.5 1071.5 c 128,-1,27
 1183 1032 1183 1032 1200.5 974.5 c 128,-1,28
 1218 917 1218 917 1203 843 c 0,29,30
 1182 744 1182 744 1111 669.5 c 128,-1,31
 1040 595 1040 595 927 555 c 0,32,33
 897 543 897 543 868 536 c 128,-1,34
 839 529 839 529 798.5 525 c 128,-1,35
 758 521 758 521 700.5 519.5 c 128,-1,36
 643 518 643 518 556 517 c 1,37,-1
 489 200 l 2,0,1
569 576 m 1,38,39
 614 576 614 576 649 578.5 c 128,-1,40
 684 581 684 581 711 587 c 128,-1,41
 738 593 738 593 758.5 602 c 128,-1,42
 779 611 779 611 797 623 c 0,43,44
 837 653 837 653 863.5 703 c 128,-1,45
 890 753 890 753 907 834 c 0,46,47
 922 904 922 904 921.5 953 c 128,-1,48
 921 1002 921 1002 904 1033 c 128,-1,49
 887 1064 887 1064 852 1079 c 128,-1,50
 817 1094 817 1094 764 1094 c 0,51,52
 679 1094 679 1094 666 1034 c 2,53,-1
 569 576 l 1,38,39
EndSplineSet
EndChar

StartChar: Q
Encoding: 81 81 506
Width: 1327
Flags: W
LayerCount: 2
Fore
SplineSet
1203 -241 m 1,0,1
 1152 -258 1152 -258 1111 -269 c 128,-1,2
 1070 -280 1070 -280 1032.5 -287 c 128,-1,3
 995 -294 995 -294 960.5 -297 c 128,-1,4
 926 -300 926 -300 887 -300 c 0,5,6
 774 -300 774 -300 679.5 -261 c 128,-1,7
 585 -222 585 -222 530 -150 c 0,8,9
 518 -135 518 -135 509 -121 c 128,-1,10
 500 -107 500 -107 493 -90.5 c 128,-1,11
 486 -74 486 -74 479 -52.5 c 128,-1,12
 472 -31 472 -31 464 -3 c 1,13,14
 419 15 419 15 386.5 31 c 128,-1,15
 354 47 354 47 329 65 c 128,-1,16
 304 83 304 83 284 105 c 128,-1,17
 264 127 264 127 245 157 c 0,18,19
 187 239 187 239 171 343.5 c 128,-1,20
 155 448 155 448 179 564 c 0,21,22
 208 698 208 698 277.5 810.5 c 128,-1,23
 347 923 347 923 445 1005 c 128,-1,24
 543 1087 543 1087 663 1133 c 128,-1,25
 783 1179 783 1179 913 1179 c 0,26,27
 1046 1179 1046 1179 1147 1133.5 c 128,-1,28
 1248 1088 1248 1088 1311 1007 c 128,-1,29
 1374 926 1374 926 1395.5 814.5 c 128,-1,30
 1417 703 1417 703 1388 569 c 0,31,32
 1362 444 1362 444 1298 337 c 128,-1,33
 1234 230 1234 230 1138 147 c 0,34,35
 1105 118 1105 118 1073.5 95.5 c 128,-1,36
 1042 73 1042 73 1007.5 55.5 c 128,-1,37
 973 38 973 38 931 22.5 c 128,-1,38
 889 7 889 7 833 -10 c 1,39,40
 840 -33 840 -33 845.5 -51 c 128,-1,41
 851 -69 851 -69 857.5 -82.5 c 128,-1,42
 864 -96 864 -96 871.5 -108 c 128,-1,43
 879 -120 879 -120 888 -131 c 0,44,45
 922 -175 922 -175 973 -197.5 c 128,-1,46
 1024 -220 1024 -220 1084 -220 c 0,47,48
 1108 -220 1108 -220 1133.5 -215.5 c 128,-1,49
 1159 -211 1159 -211 1203 -200 c 1,50,-1
 1203 -241 l 1,0,1
903 1123 m 0,51,52
 830 1123 830 1123 766 1086.5 c 128,-1,53
 702 1050 702 1050 648 978.5 c 128,-1,54
 594 907 594 907 552 803 c 128,-1,55
 510 699 510 699 481 564 c 0,56,57
 425 297 425 297 472 160.5 c 128,-1,58
 519 24 519 24 668 24 c 0,59,60
 816 24 816 24 922 161 c 128,-1,61
 1028 298 1028 298 1084 563 c 0,62,63
 1113 697 1113 697 1115 801 c 128,-1,64
 1117 905 1117 905 1094 976.5 c 128,-1,65
 1071 1048 1071 1048 1023 1085.5 c 128,-1,66
 975 1123 975 1123 903 1123 c 0,51,52
EndSplineSet
EndChar

StartChar: R
Encoding: 82 82 507
Width: 1232
Flags: W
LayerCount: 2
Fore
SplineSet
1219 0 m 1,0,-1
 869 0 l 1,1,-1
 630 534 l 1,2,-1
 583 534 l 1,3,-1
 512 200 l 2,4,5
 502 154 502 154 501.5 126.5 c 128,-1,6
 501 99 501 99 513.5 82.5 c 128,-1,7
 526 66 526 66 553 57.5 c 128,-1,8
 580 49 580 49 628 42 c 1,9,-1
 620 0 l 1,10,-1
 44 0 l 1,11,-1
 52 42 l 1,12,13
 104 48 104 48 135.5 56 c 128,-1,14
 167 64 167 64 185.5 80 c 128,-1,15
 204 96 204 96 215 124.5 c 128,-1,16
 226 153 226 153 236 200 c 2,17,-1
 396 954 l 2,18,19
 406 1000 406 1000 406 1028.5 c 128,-1,20
 406 1057 406 1057 394 1074.5 c 128,-1,21
 382 1092 382 1092 354 1099.5 c 128,-1,22
 326 1107 326 1107 279 1110 c 1,23,-1
 288 1152 l 1,24,-1
 838 1152 l 2,25,26
 1073 1152 1073 1152 1179.5 1075 c 128,-1,27
 1286 998 1286 998 1254 850 c 0,28,29
 1242 792 1242 792 1212 742.5 c 128,-1,30
 1182 693 1182 693 1138 659 c 0,31,32
 1116 642 1116 642 1096 629.5 c 128,-1,33
 1076 617 1076 617 1051.5 606 c 128,-1,34
 1027 595 1027 595 996.5 584 c 128,-1,35
 966 573 966 573 927 562 c 1,36,-1
 1165 74 l 2,37,38
 1184 42 1184 42 1227 42 c 1,39,-1
 1219 0 l 1,0,-1
595 589 m 1,40,41
 644 590 644 590 681 592.5 c 128,-1,42
 718 595 718 595 746 600.5 c 128,-1,43
 774 606 774 606 795.5 613 c 128,-1,44
 817 620 817 620 837 631 c 0,45,46
 884 659 884 659 914 709.5 c 128,-1,47
 944 760 944 760 962 843 c 0,48,49
 990 977 990 977 951 1036.5 c 128,-1,50
 912 1096 912 1096 795 1096 c 0,51,52
 730 1096 730 1096 710 1069 c 0,53,54
 703 1061 703 1061 696 1046.5 c 128,-1,55
 689 1032 689 1032 687 1024 c 2,56,-1
 595 589 l 1,40,41
EndSplineSet
EndChar

StartChar: S
Encoding: 83 83 508
Width: 949
Flags: W
LayerCount: 2
Fore
SplineSet
950 810 m 1,0,1
 946 852 946 852 940.5 883 c 128,-1,2
 935 914 935 914 926 939 c 128,-1,3
 917 964 917 964 905.5 985.5 c 128,-1,4
 894 1007 894 1007 877 1030 c 0,5,6
 804 1126 804 1126 688 1126 c 0,7,8
 600 1126 600 1126 540 1080.5 c 128,-1,9
 480 1035 480 1035 463 955 c 0,10,11
 457 925 457 925 459.5 900.5 c 128,-1,12
 462 876 462 876 477.5 854 c 128,-1,13
 493 832 493 832 522 810 c 128,-1,14
 551 788 551 788 597 762 c 2,15,-1
 822 638 l 2,16,17
 859 617 859 617 886.5 584.5 c 128,-1,18
 914 552 914 552 930 510.5 c 128,-1,19
 946 469 946 469 950 422 c 128,-1,20
 954 375 954 375 944 327 c 0,21,22
 927 247 927 247 882.5 181 c 128,-1,23
 838 115 838 115 772.5 67.5 c 128,-1,24
 707 20 707 20 623.5 -6 c 128,-1,25
 540 -32 540 -32 446 -32 c 0,26,27
 391 -32 391 -32 341 -23 c 128,-1,28
 291 -14 291 -14 231 8 c 0,29,30
 205 18 205 18 190.5 21.5 c 128,-1,31
 176 25 176 25 166 25 c 0,32,33
 145 25 145 25 130.5 12 c 128,-1,34
 116 -1 116 -1 102 -32 c 1,35,-1
 53 -32 l 1,36,-1
 142 389 l 1,37,-1
 191 389 l 1,38,39
 193 344 193 344 196 310 c 128,-1,40
 199 276 199 276 204.5 248 c 128,-1,41
 210 220 210 220 218.5 196.5 c 128,-1,42
 227 173 227 173 239 150 c 0,43,44
 312 24 312 24 463 24 c 0,45,46
 512 24 512 24 554.5 38 c 128,-1,47
 597 52 597 52 630 77.5 c 128,-1,48
 663 103 663 103 685.5 138.5 c 128,-1,49
 708 174 708 174 718 219 c 0,50,51
 725 252 725 252 722 278 c 128,-1,52
 719 304 719 304 702.5 327.5 c 128,-1,53
 686 351 686 351 653.5 374 c 128,-1,54
 621 397 621 397 570 423 c 2,55,-1
 468 477 l 2,56,57
 399 514 399 514 352 552.5 c 128,-1,58
 305 591 305 591 279 634.5 c 128,-1,59
 253 678 253 678 245.5 727 c 128,-1,60
 238 776 238 776 250 832 c 0,61,62
 267 912 267 912 307 976.5 c 128,-1,63
 347 1041 347 1041 405 1086 c 128,-1,64
 463 1131 463 1131 537.5 1155 c 128,-1,65
 612 1179 612 1179 699 1179 c 0,66,67
 723 1179 723 1179 745.5 1177 c 128,-1,68
 768 1175 768 1175 790.5 1170.5 c 128,-1,69
 813 1166 813 1166 837.5 1158.5 c 128,-1,70
 862 1151 862 1151 890 1141 c 0,71,72
 916 1131 916 1131 931.5 1127 c 128,-1,73
 947 1123 947 1123 957 1123 c 0,74,75
 980 1123 980 1123 994 1135 c 128,-1,76
 1008 1147 1008 1147 1024 1180 c 1,77,-1
 1075 1180 l 1,78,-1
 997 810 l 1,79,-1
 950 810 l 1,0,1
EndSplineSet
EndChar

StartChar: T
Encoding: 84 84 509
Width: 1138
Flags: W
LayerCount: 2
Fore
SplineSet
664 1099 m 1,0,1
 584 1096 584 1096 523 1079 c 128,-1,2
 462 1062 462 1062 416.5 1028 c 128,-1,3
 371 994 371 994 336.5 940.5 c 128,-1,4
 302 887 302 887 275 810 c 1,5,-1
 225 810 l 1,6,-1
 302 1152 l 1,7,-1
 1325 1152 l 1,8,-1
 1258 810 l 1,9,-1
 1208 810 l 1,10,11
 1213 887 1213 887 1201.5 940.5 c 128,-1,12
 1190 994 1190 994 1158 1028 c 128,-1,13
 1126 1062 1126 1062 1072.5 1079 c 128,-1,14
 1019 1096 1019 1096 941 1099 c 1,15,-1
 750 200 l 2,16,17
 740 151 740 151 738.5 121.5 c 128,-1,18
 737 92 737 92 751 76 c 128,-1,19
 765 60 765 60 796.5 53 c 128,-1,20
 828 46 828 46 883 42 c 1,21,-1
 875 0 l 1,22,-1
 266 0 l 1,23,-1
 274 42 l 1,24,25
 330 47 330 47 365 54.5 c 128,-1,26
 400 62 400 62 420.5 78.5 c 128,-1,27
 441 95 441 95 452 124 c 128,-1,28
 463 153 463 153 473 200 c 2,29,-1
 664 1099 l 1,0,1
EndSplineSet
EndChar

StartChar: U
Encoding: 85 85 510
Width: 1232
Flags: W
LayerCount: 2
Fore
SplineSet
1152 421 m 2,0,1
 1127 302 1127 302 1076 210 c 128,-1,2
 1025 118 1025 118 955 69 c 0,3,4
 890 21 890 21 800.5 -5.5 c 128,-1,5
 711 -32 711 -32 616 -32 c 256,6,7
 521 -32 521 -32 446 -9.5 c 128,-1,8
 371 13 371 13 320 58 c 0,9,10
 287 86 287 86 266.5 117 c 128,-1,11
 246 148 246 148 237.5 186 c 128,-1,12
 229 224 229 224 232.5 272.5 c 128,-1,13
 236 321 236 321 249 384 c 2,14,-1
 370 954 l 2,15,16
 380 1000 380 1000 381 1028 c 128,-1,17
 382 1056 382 1056 370 1073.5 c 128,-1,18
 358 1091 358 1091 332.5 1098 c 128,-1,19
 307 1105 307 1105 262 1110 c 1,20,-1
 271 1152 l 1,21,-1
 848 1152 l 1,22,-1
 839 1110 l 1,23,24
 808 1109 808 1109 786.5 1107 c 128,-1,25
 765 1105 765 1105 750 1102 c 128,-1,26
 735 1099 735 1099 724 1094.5 c 128,-1,27
 713 1090 713 1090 704 1083 c 0,28,29
 681 1065 681 1065 666 1035 c 128,-1,30
 651 1005 651 1005 640 954 c 2,31,-1
 519 384 l 2,32,33
 482 210 482 210 525 130.5 c 128,-1,34
 568 51 568 51 699 51 c 0,35,36
 851 51 851 51 944 141.5 c 128,-1,37
 1037 232 1037 232 1077 421 c 2,38,-1
 1188 941 l 2,39,40
 1198 988 1198 988 1197 1019 c 128,-1,41
 1196 1050 1196 1050 1181 1069 c 128,-1,42
 1166 1088 1166 1088 1135.5 1097 c 128,-1,43
 1105 1106 1105 1106 1055 1110 c 1,44,-1
 1064 1152 l 1,45,-1
 1441 1152 l 1,46,-1
 1432 1110 l 1,47,48
 1389 1104 1389 1104 1361 1095 c 128,-1,49
 1333 1086 1333 1086 1315 1069.5 c 128,-1,50
 1297 1053 1297 1053 1286.5 1028.5 c 128,-1,51
 1276 1004 1276 1004 1268 965 c 2,52,-1
 1152 421 l 2,0,1
EndSplineSet
EndChar

StartChar: V
Encoding: 86 86 511
Width: 1232
Flags: W
LayerCount: 2
Fore
SplineSet
1432 1110 m 1,0,1
 1397 1105 1397 1105 1373 1098 c 128,-1,2
 1349 1091 1349 1091 1329 1075.5 c 128,-1,3
 1309 1060 1309 1060 1290 1034.5 c 128,-1,4
 1271 1009 1271 1009 1248 970 c 2,5,-1
 646 -30 l 1,6,-1
 601 -30 l 1,7,-1
 381 991 l 2,8,9
 373 1026 373 1026 365 1047.5 c 128,-1,10
 357 1069 357 1069 344.5 1082 c 128,-1,11
 332 1095 332 1095 313 1100 c 128,-1,12
 294 1105 294 1105 262 1110 c 1,13,-1
 271 1152 l 1,14,-1
 845 1152 l 1,15,-1
 836 1110 l 1,16,17
 816 1108 816 1108 801 1107.5 c 128,-1,18
 786 1107 786 1107 779 1107 c 0,19,20
 729 1104 729 1104 705.5 1090 c 128,-1,21
 682 1076 682 1076 676 1046 c 0,22,23
 674 1036 674 1036 673.5 1026.5 c 128,-1,24
 673 1017 673 1017 674 1003.5 c 128,-1,25
 675 990 675 990 679 971 c 128,-1,26
 683 952 683 952 689 923 c 2,27,-1
 803 353 l 1,28,-1
 1140 914 l 2,29,30
 1156 942 1156 942 1167 960.5 c 128,-1,31
 1178 979 1178 979 1184 992 c 128,-1,32
 1190 1005 1190 1005 1193.5 1015 c 128,-1,33
 1197 1025 1197 1025 1200 1036 c 0,34,35
 1204 1056 1204 1056 1201 1069.5 c 128,-1,36
 1198 1083 1198 1083 1183 1091 c 128,-1,37
 1168 1099 1168 1099 1140 1103 c 128,-1,38
 1112 1107 1112 1107 1067 1110 c 1,39,-1
 1076 1152 l 1,40,-1
 1441 1152 l 1,41,-1
 1432 1110 l 1,0,1
EndSplineSet
EndChar

StartChar: W
Encoding: 87 87 512
Width: 1706
Flags: W
LayerCount: 2
Fore
SplineSet
1909 1110 m 1,0,1
 1823 1102 1823 1102 1768 1002 c 2,2,-1
 1208 -25 l 1,3,-1
 1163 -25 l 1,4,-1
 1044 788 l 1,5,-1
 554 -25 l 1,6,-1
 506 -25 l 1,7,-1
 362 1002 l 2,8,9
 358 1033 358 1033 352.5 1052.5 c 128,-1,10
 347 1072 347 1072 336.5 1084 c 128,-1,11
 326 1096 326 1096 310 1101 c 128,-1,12
 294 1106 294 1106 267 1110 c 1,13,-1
 276 1152 l 1,14,-1
 778 1152 l 1,15,-1
 769 1110 l 1,16,17
 736 1107 736 1107 714 1103 c 128,-1,18
 692 1099 692 1099 678 1091 c 128,-1,19
 664 1083 664 1083 656 1070 c 128,-1,20
 648 1057 648 1057 644 1039 c 0,21,22
 642 1028 642 1028 642.5 1015.5 c 128,-1,23
 643 1003 643 1003 644 983 c 2,24,-1
 717 362 l 1,25,-1
 1031 887 l 1,26,-1
 1006 1052 l 2,27,28
 998 1082 998 1082 973 1095 c 128,-1,29
 948 1108 948 1108 896 1110 c 1,30,-1
 905 1152 l 1,31,-1
 1437 1152 l 1,32,-1
 1428 1110 l 1,33,34
 1420 1108 1420 1108 1414 1108 c 128,-1,35
 1408 1108 1408 1108 1405 1108 c 0,36,37
 1348 1104 1348 1104 1323 1091 c 128,-1,38
 1298 1078 1298 1078 1291 1047 c 0,39,40
 1289 1036 1289 1036 1290 1015 c 128,-1,41
 1291 994 1291 994 1296 953 c 2,42,-1
 1358 379 l 1,43,-1
 1673 963 l 2,44,45
 1684 982 1684 982 1690.5 1000.5 c 128,-1,46
 1697 1019 1697 1019 1701 1036 c 0,47,48
 1705 1055 1705 1055 1702.5 1069 c 128,-1,49
 1700 1083 1700 1083 1688.5 1091.5 c 128,-1,50
 1677 1100 1677 1100 1654.5 1104 c 128,-1,51
 1632 1108 1632 1108 1598 1110 c 1,52,-1
 1607 1152 l 1,53,-1
 1918 1152 l 1,54,-1
 1909 1110 l 1,0,1
EndSplineSet
EndChar

StartChar: X
Encoding: 88 88 513
Width: 1232
Flags: W
LayerCount: 2
Fore
SplineSet
1409 1110 m 1,0,1
 1360 1105 1360 1105 1323 1095 c 128,-1,2
 1286 1085 1286 1085 1246.5 1058.5 c 128,-1,3
 1207 1032 1207 1032 1157 985 c 128,-1,4
 1107 938 1107 938 1036 861 c 2,5,-1
 858 672 l 1,6,-1
 1067 189 l 2,7,8
 1087 143 1087 143 1103 114.5 c 128,-1,9
 1119 86 1119 86 1133.5 70.5 c 128,-1,10
 1148 55 1148 55 1164 49 c 128,-1,11
 1180 43 1180 43 1201 42 c 1,12,-1
 1193 0 l 1,13,-1
 612 0 l 1,14,-1
 620 42 l 1,15,16
 638 44 638 44 651 45 c 128,-1,17
 664 46 664 46 670 46 c 0,18,19
 759 50 759 50 768 94 c 0,20,21
 771 108 771 108 767 134.5 c 128,-1,22
 763 161 763 161 752 186 c 2,23,-1
 639 463 l 1,24,-1
 554 375 l 2,25,26
 494 312 494 312 454 267.5 c 128,-1,27
 414 223 414 223 389.5 194 c 128,-1,28
 365 165 365 165 353.5 145.5 c 128,-1,29
 342 126 342 126 340 113 c 0,30,31
 336 96 336 96 340 84.5 c 128,-1,32
 344 73 344 73 359 65 c 128,-1,33
 374 57 374 57 399 51.5 c 128,-1,34
 424 46 424 46 462 42 c 1,35,-1
 454 0 l 1,36,-1
 27 0 l 1,37,-1
 35 42 l 1,38,39
 69 46 69 46 94.5 52.5 c 128,-1,40
 120 59 120 59 143 70 c 128,-1,41
 166 81 166 81 187.5 98 c 128,-1,42
 209 115 209 115 234 138 c 2,43,-1
 612 514 l 1,44,-1
 380 1011 l 2,45,46
 367 1041 367 1041 355.5 1059 c 128,-1,47
 344 1077 344 1077 331.5 1088 c 128,-1,48
 319 1099 319 1099 303.5 1103.5 c 128,-1,49
 288 1108 288 1108 264 1110 c 1,50,-1
 273 1152 l 1,51,-1
 863 1152 l 1,52,-1
 854 1110 l 1,53,54
 837 1108 837 1108 822 1107.5 c 128,-1,55
 807 1107 807 1107 801 1107 c 0,56,57
 753 1104 753 1104 733.5 1093 c 128,-1,58
 714 1082 714 1082 709 1054 c 0,59,60
 707 1047 707 1047 706.5 1041 c 128,-1,61
 706 1035 706 1035 707.5 1028 c 128,-1,62
 709 1021 709 1021 712 1012.5 c 128,-1,63
 715 1004 715 1004 720 991 c 2,64,-1
 831 736 l 1,65,66
 873 780 873 780 907 817 c 128,-1,67
 941 854 941 854 955 866 c 0,68,69
 994 907 994 907 1019 935 c 128,-1,70
 1044 963 1044 963 1059 983.5 c 128,-1,71
 1074 1004 1074 1004 1081 1018.5 c 128,-1,72
 1088 1033 1088 1033 1091 1047 c 0,73,74
 1098 1078 1098 1078 1082 1091 c 128,-1,75
 1066 1104 1066 1104 1016 1107 c 0,76,77
 1012 1108 1012 1108 1003 1108 c 128,-1,78
 994 1108 994 1108 982 1110 c 1,79,-1
 991 1152 l 1,80,-1
 1418 1152 l 1,81,-1
 1409 1110 l 1,0,1
EndSplineSet
EndChar

